SplineFontDB: 3.0
FontName: Sahel
FullName: Sahel
FamilyName: Sahel
Weight: Regular
Copyright: Copyright (c) 2016 by Saber Rastikerdar. All Rights Reserved.\nBased on DejaVu font.\nNon-Arabic(Latin) glyphs and data are imported from Open Sans font under the Apache License, Version 2.0.
Version: 1.0.0-alpha22
ItalicAngle: 0
UnderlinePosition: -500
UnderlineWidth: 100
Ascent: 1638
Descent: 410
InvalidEm: 0
LayerCount: 2
Layer: 0 1 "Back" 1
Layer: 1 1 "Fore" 0
XUID: [1021 502 1027637223 5453938]
UniqueID: 4028628
UseUniqueID: 1
FSType: 0
OS2Version: 1
OS2_WeightWidthSlopeOnly: 0
OS2_UseTypoMetrics: 1
CreationTime: 1431850356
ModificationTime: 1535593399
PfmFamily: 33
TTFWeight: 400
TTFWidth: 5
LineGap: 0
VLineGap: 0
Panose: 2 11 6 3 3 8 4 2 2 4
OS2TypoAscent: 2200
OS2TypoAOffset: 0
OS2TypoDescent: -1000
OS2TypoDOffset: 0
OS2TypoLinegap: 0
OS2WinAscent: 2200
OS2WinAOffset: 0
OS2WinDescent: 1000
OS2WinDOffset: 0
HheadAscent: 2200
HheadAOffset: 0
HheadDescent: -1000
HheadDOffset: 0
OS2SubXSize: 1331
OS2SubYSize: 1433
OS2SubXOff: 0
OS2SubYOff: 286
OS2SupXSize: 1331
OS2SupYSize: 1433
OS2SupXOff: 0
OS2SupYOff: 983
OS2StrikeYSize: 102
OS2StrikeYPos: 530
OS2CapHeight: 1638
OS2XHeight: 1082
OS2Vendor: '    '
OS2CodePages: 00000041.20080000
OS2UnicodeRanges: 8000200f.80000000.00000008.00000000
Lookup: 1 9 0 "'fina' Terminal Forms in Arabic lookup 9" { "'fina' Terminal Forms in Arabic lookup 9 subtable"  } ['fina' ('arab' <'KUR ' 'SND ' 'URD ' 'dflt' > ) ]
Lookup: 1 9 0 "'medi' Medial Forms in Arabic lookup 11" { "'medi' Medial Forms in Arabic lookup 11 subtable"  } ['medi' ('arab' <'KUR ' 'SND ' 'URD ' 'dflt' > ) ]
Lookup: 1 9 0 "'init' Initial Forms in Arabic lookup 13" { "'init' Initial Forms in Arabic lookup 13 subtable"  } ['init' ('arab' <'KUR ' 'SND ' 'URD ' 'dflt' > ) ]
Lookup: 4 1 1 "'rlig' Required Ligatures in Arabic lookup 14" { "'rlig' Required Ligatures in Arabic lookup 14 subtable"  } ['rlig' ('arab' <'KUR ' 'dflt' > ) ]

StartChar: afii57388
Encoding: 1548 1548 2
Width: 748
VWidth: 3387
GlyphClass: 2
Flags: W
LayerCount: 2
Fore
SplineSet
351.693359375 300.504882812 m 5,0,-1
 378.088867188 296.405273438 l 5,1,2
 484.275390625 278.424804688 484.275390625 278.424804688 498.997070312 184.306640625 c 132,-1,3
 513.71875 90.1884765625 513.71875 90.1884765625 464.587890625 42.1494140625 c 132,-1,4
 415.45703125 -5.8896484375 415.45703125 -5.8896484375 343.662109375 -0.232421875 c 4,5,6
 183.463867188 13.8046875 183.463867188 13.8046875 200.25 211.008789062 c 4,7,8
 221.62890625 466.758789062 221.62890625 466.758789062 493.293945312 630.275390625 c 4,9,10
 527.725585938 651.049804688 527.725585938 651.049804688 539 641.2421875 c 4,11,12
 545.021484375 636.00390625 545.021484375 636.00390625 547.141601562 633.666992188 c 4,13,14
 558.405273438 621.258789062 558.405273438 621.258789062 524.732421875 595.818359375 c 132,-1,15
 491.059570312 570.377929688 491.059570312 570.377929688 466.55859375 543.62109375 c 4,16,17
 341.04296875 406.549804688 341.04296875 406.549804688 351.693359375 300.504882812 c 5,0,-1
EndSplineSet
EndChar

StartChar: uni0615
Encoding: 1557 1557 3
Width: 0
VWidth: 3435
GlyphClass: 4
Flags: W
AnchorPoint: "Anchor-10" 702.381 1945.78 mark 0
AnchorPoint: "Anchor-9" 702.381 1945.78 mark 0
AnchorPoint: "Anchor-1" 554.381 2838.96 basemark 0
AnchorPoint: "Anchor-1" 702.381 1945.78 mark 0
LayerCount: 2
Fore
SplineSet
1069.64410407 2274.33450148 m 0,0,1
 1069.64410407 2358.37224681 1069.64410407 2358.37224681 995.67361221 2358.37224681 c 0,2,3
 874.215133003 2358.37224681 874.215133003 2358.37224681 675.7578125 2118.23925781 c 1,4,-1
 777.056640625 2118.23925781 l 1,5,-1
 777.653105311 2118.23907577 l 2,6,7
 972.449175304 2118.23907577 972.449175304 2118.23907577 1041.34375 2195.97753906 c 0,8,9
 1069.64410407 2227.16850914 1069.64410407 2227.16850914 1069.64410407 2274.33450148 c 0,0,1
727.256835938 2018.17675781 m 2,10,-1
 419.657226562 2017.98730469 l 1,11,-1
 367.364257812 2118.23925781 l 1,12,-1
 504.23828125 2118.23925781 l 1,13,-1
 504.23828125 2789.27636719 l 1,14,-1
 605.983398438 2789.27636719 l 1,15,-1
 605.983398438 2168.59765625 l 1,16,17
 817.569559779 2474.83049235 817.569559779 2474.83049235 997.74482056 2474.83049235 c 0,18,19
 1137.35934558 2474.83049235 1137.35934558 2474.83049235 1164.1484375 2341.31640625 c 0,20,21
 1170.13265857 2311.54283657 1170.13265857 2311.54283657 1170.13265857 2283.97792888 c 0,22,23
 1170.13265857 2181.55204015 1170.13265857 2181.55204015 1087.50717281 2109.62164407 c 0,24,25
 982.64547397 2018.3333029 982.64547397 2018.3333029 727.256835938 2018.17675781 c 2,10,-1
EndSplineSet
EndChar

StartChar: uni061B
Encoding: 1563 1563 4
Width: 748
VWidth: 3387
GlyphClass: 2
Flags: W
LayerCount: 2
Fore
SplineSet
214 158.837890625 m 128,-1,1
 214 215.537109375 214 215.537109375 254.5 256.037109375 c 128,-1,2
 295 296.537109375 295 296.537109375 351.700195312 296.537109375 c 128,-1,3
 408.400390625 296.537109375 408.400390625 296.537109375 449.912109375 257.049804688 c 0,4,5
 489.400390625 215.537109375 489.400390625 215.537109375 489.400390625 158.837890625 c 128,-1,6
 489.400390625 102.137695312 489.400390625 102.137695312 448.900390625 61.6376953125 c 128,-1,7
 408.400390625 21.1376953125 408.400390625 21.1376953125 351.700195312 21.1376953125 c 128,-1,8
 295 21.1376953125 295 21.1376953125 254.5 61.6376953125 c 128,-1,0
 214 102.137695312 214 102.137695312 214 158.837890625 c 128,-1,1
351.692382812 820.504882812 m 5,9,-1
 378.088867188 816.404296875 l 5,10,11
 484 798 484 798 498.99609375 704.306640625 c 4,12,13
 514 610 514 610 464.416015625 561.979492188 c 132,-1,14
 415 514 415 514 339.401367188 520.127929688 c 4,15,16
 183 533 183 533 200.25 731.008789062 c 4,17,18
 222 987 222 987 493.293945312 1150.27441406 c 4,19,20
 528 1171 528 1171 539 1161.2578125 c 4,21,22
 545 1156 545 1156 547.141601562 1153.66699219 c 4,23,24
 558 1141 558 1141 524.728515625 1115.81542969 c 4,25,26
 453 1062 453 1062 398.717773438 976.794921875 c 4,27,28
 345 892 345 892 351.692382812 820.504882812 c 5,9,-1
EndSplineSet
EndChar

StartChar: uni061F
Encoding: 1567 1567 5
Width: 914
VWidth: 3375
GlyphClass: 2
Flags: W
LayerCount: 2
Fore
SplineSet
383 158.837890625 m 128,-1,1
 383 215.537109375 383 215.537109375 423.5 256.037109375 c 128,-1,2
 464 296.537109375 464 296.537109375 520.700195312 296.537109375 c 128,-1,3
 577.400390625 296.537109375 577.400390625 296.537109375 618.912109375 257.049804688 c 0,4,5
 658.400390625 215.537109375 658.400390625 215.537109375 658.400390625 158.837890625 c 128,-1,6
 658.400390625 102.137695312 658.400390625 102.137695312 617.900390625 61.6376953125 c 128,-1,7
 577.400390625 21.1376953125 577.400390625 21.1376953125 520.700195312 21.1376953125 c 128,-1,8
 464 21.1376953125 464 21.1376953125 423.5 61.6376953125 c 128,-1,0
 383 102.137695312 383 102.137695312 383 158.837890625 c 128,-1,1
500.051757812 496.077148438 m 2,9,10
 473.529296875 496.077148438 473.529296875 496.077148438 473.529296875 523.2421875 c 2,11,-1
 473.529296875 543.87109375 l 2,12,13
 473.997764078 621.628874019 473.997764078 621.628874019 333.383789062 729.024414062 c 2,14,-1
 256.193359375 787.979492188 l 2,15,16
 102 906 102 906 100.665039062 1060.1796875 c 0,17,18
 100 1145 100 1145 131.15625 1213.17578125 c 0,19,20
 162 1281 162 1281 223.763671875 1332.72265625 c 0,21,22
 318 1411 318 1411 465.973632812 1411.18847656 c 0,23,24
 646 1411 646 1411 745.376953125 1272.05664062 c 0,25,26
 803 1191 803 1191 808.436523438 1061.76953125 c 0,27,28
 809 1047 809 1047 808.161132812 1032.50292969 c 0,29,30
 808 1018 808 1018 807.111328125 1004.93261719 c 1,31,-1
 729.184570312 1004.37109375 l 1,32,33
 688 1224 688 1224 477.547851562 1223.82714844 c 0,34,35
 353 1224 353 1224 300.168945312 1141.92773438 c 0,36,37
 276 1105 276 1105 275.96875 1051.19042969 c 0,38,39
 276 1005 276 1005 313.03515625 950.0078125 c 0,40,41
 329.58624392 924.634305315 329.58624392 924.634305315 413.865234375 846.099609375 c 2,42,-1
 455.946289062 806.88671875 l 2,43,44
 588.461914062 682.566653469 588.461914062 682.566653469 588.461914062 549.729492188 c 2,45,-1
 588.461914062 526.629882812 l 2,46,47
 588.001163437 496.077148438 588.001163437 496.077148438 560.461914062 496.077148438 c 2,48,-1
 500.051757812 496.077148438 l 2,9,10
EndSplineSet
EndChar

StartChar: uni0621
Encoding: 1569 1569 6
Width: 891
VWidth: 3739
GlyphClass: 2
Flags: W
AnchorPoint: "Anchor-7" 458.756 -88.488 basechar 0
AnchorPoint: "Anchor-10" 436.642 1114.47 basechar 0
LayerCount: 2
Fore
SplineSet
682.145507812 534.395507812 m 1,0,1
 564 575 564 575 496.331163138 575.330717311 c 0,2,3
 417 575 417 575 362.8515625 518.044921875 c 0,4,5
 316 469 316 469 315.726766185 447.734313463 c 0,6,7
 316 408 316 408 393.878838089 355.659898584 c 0,8,9
 468 306 468 306 481.899414062 303.730957031 c 0,10,11
 488 303 488 303 495 302.961079815 c 0,12,13
 525.247582328 303.000321198 525.247582328 303.000321198 627.692382812 329.021484375 c 2,14,-1
 728.904296875 354.729492188 l 2,15,16
 782 368 782 368 785.163574219 361.052246094 c 0,17,18
 788.349678761 355.377151637 788.349678761 355.377151637 783.5703125 316.017578125 c 2,19,-1
 767.729492188 185.563476562 l 1,20,21
 457 142 457 142 105.375976562 3.3291015625 c 1,22,-1
 106 176 l 1,23,-1
 274.09765625 235.237304688 l 1,24,25
 175 321 175 321 174.780257715 439.093171516 c 0,26,27
 175 491 175 491 194.079101562 549.317382812 c 0,28,29
 239 687 239 687 372.892578125 735.233398438 c 0,30,31
 428 755 428 755 484.190737351 754.845229559 c 0,32,33
 624 755 624 755 721.829101562 661.774414062 c 1,34,35
 717 639 717 639 682.145507812 534.395507812 c 1,0,1
EndSplineSet
EndChar

StartChar: uni0627
Encoding: 1575 1575 12
Width: 464
VWidth: 3705
GlyphClass: 2
Flags: W
AnchorPoint: "Anchor-10" 213.583 1553.65 basechar 0
AnchorPoint: "Anchor-7" 215.098 -224.043 basechar 0
LayerCount: 2
Fore
SplineSet
177.284179688 -13.3427734375 m 1,0,1
 168 1012 168 1012 120.795898438 1318.72265625 c 5,2,-1
 266 1406 l 6,3,4
 291 1421 291 1421 294 1378 c 4,5,6
 316 1023 316 1023 316.541015625 721.708984375 c 0,7,8
 316 86 316 86 307.44140625 66.7333984375 c 0,9,10
 271 -12 271 -12 177.284179688 -13.3427734375 c 1,0,1
EndSplineSet
Substitution2: "'fina' Terminal Forms in Arabic lookup 9 subtable" uniFE8E
EndChar

StartChar: uni062D
Encoding: 1581 1581 18
Width: 1296
VWidth: 3739
GlyphClass: 2
Flags: W
AnchorPoint: "Anchor-7" 562.136 -813.44 basechar 0
AnchorPoint: "Anchor-10" 590.972 1253.02 basechar 0
LayerCount: 2
Fore
SplineSet
808.768554688 -654.81640625 m 0,0,1
 438 -655 438 -655 269.965820312 -507.939453125 c 0,2,3
 123 -380 123 -380 123.260742188 -164.354492188 c 4,4,5
 123 233 123 233 469.01171875 446.65234375 c 4,6,7
 594 524 594 524 775.43359375 559.942382812 c 5,8,9
 658 582 658 582 589.021484375 597.971679688 c 0,10,11
 455 628 455 628 389.571289062 628.428710938 c 0,12,13
 283 629 283 629 184.560546875 509.346679688 c 1,14,-1
 99 549 l 1,15,16
 169 718 169 718 255.556640625 778.467773438 c 0,17,18
 307 815 307 815 383.6796875 814.798828125 c 0,19,20
 454 815 454 815 529.143554688 793.106445312 c 0,21,22
 832 702 832 702 979.66796875 667.557617188 c 0,23,24
 1063 648 1063 648 1203.37109375 636.41796875 c 24,25,26
 1221.20549269 634.983471339 1221.20549269 634.983471339 1213.17089844 616 c 2,27,-1
 1144.33007812 453.348632812 l 1,28,29
 829 444 829 444 590.952148438 321.383789062 c 0,30,31
 270 156 270 156 269.989257812 -133.680664062 c 0,32,33
 270 -485 270 -485 785.594726562 -485.2265625 c 0,34,35
 961 -485 961 -485 1165 -457.595703125 c 0,36,37
 1185 -455 1185 -455 1181.71191406 -472 c 0,38,39
 1174 -509 1174 -509 1156 -575 c 0,40,41
 1141 -630 1141 -630 1067 -640.119140625 c 0,42,43
 963 -654 963 -654 808.768554688 -654.81640625 c 0,0,1
EndSplineSet
Substitution2: "'fina' Terminal Forms in Arabic lookup 9 subtable" uniFEA2
Substitution2: "'medi' Medial Forms in Arabic lookup 11 subtable" uniFEA4
Substitution2: "'init' Initial Forms in Arabic lookup 13 subtable" uniFEA3
EndChar

StartChar: uni062F
Encoding: 1583 1583 20
Width: 1020
VWidth: 3737
GlyphClass: 2
Flags: W
AnchorPoint: "Anchor-10" 428.795 1206.18 basechar 0
AnchorPoint: "Anchor-7" 400.949 -226.827 basechar 0
LayerCount: 2
Fore
SplineSet
230.859375 325.612304688 m 1,0,1
 231 266 231 266 250.879882812 237.4453125 c 0,2,3
 290 180 290 180 417.994140625 179.999023438 c 4,4,5
 774 180 774 180 774.109081849 318.191303459 c 0,6,7
 774 352 774 352 751.274414062 398.422851562 c 0,8,9
 672 566 672 566 353.720703125 777.817382812 c 1,10,-1
 418 949 l 2,11,12
 428 976 428 976 470.560546875 943.236328125 c 0,13,14
 916 595 916 595 916.126953125 340.834960938 c 0,15,16
 916 271 916 271 890.487304688 218.8046875 c 0,17,18
 784 0 784 0 419.2734375 0 c 0,19,20
 104 0 104 0 105.714759837 230.303616449 c 0,21,22
 106 278 106 278 119.606445312 336.571289062 c 1,23,-1
 230.859375 325.612304688 l 1,0,1
EndSplineSet
PairPos2: "'kern' Horizontal Kerning lookup 15-7" uniFB90 dx=-120 dy=0 dh=-120 dv=0 dx=0 dy=0 dh=0 dv=0
PairPos2: "'kern' Horizontal Kerning lookup 15-7" uni06A9 dx=-120 dy=0 dh=-120 dv=0 dx=0 dy=0 dh=0 dv=0
PairPos2: "'kern' Horizontal Kerning lookup 15-7" uniFB94 dx=-120 dy=0 dh=-120 dv=0 dx=0 dy=0 dh=0 dv=0
PairPos2: "'kern' Horizontal Kerning lookup 15-7" afii57509 dx=-120 dy=0 dh=-120 dv=0 dx=0 dy=0 dh=0 dv=0
Substitution2: "'fina' Terminal Forms in Arabic lookup 9 subtable" uniFEAA
EndChar

StartChar: uni0631
Encoding: 1585 1585 22
Width: 752
VWidth: 3744
GlyphClass: 2
Flags: W
AnchorPoint: "Anchor-7" 350.313 -717.669 basechar 0
AnchorPoint: "Anchor-10" 419.411 1005.21 basechar 0
LayerCount: 2
Fore
SplineSet
598.513671875 -178.618164062 m 4,0,1
 511 -346 511 -346 326.763671875 -454.211914062 c 4,2,3
 234 -509 234 -509 129.038085938 -534.3515625 c 4,4,5
 118 -537 118 -537 107.479492188 -536.866210938 c 4,6,7
 86 -537 86 -537 53.923828125 -503 c 4,8,9
 42 -491 42 -491 19.13671875 -459.24609375 c 4,10,11
 0 -434 0 -434 0.306584683126 -418.809399402 c 4,12,13
 0 -405 0 -405 16.212890625 -400.844726562 c 4,14,15
 447 -283 447 -283 510 4.814453125 c 4,16,17
 517 37 517 37 517.2 71.00125 c 4,18,19
 517 207 517 207 402 370 c 5,20,-1
 512.216796875 521 l 6,21,22
 524 537 524 537 550.0234375 499 c 4,23,24
 667 326 667 326 666.628139017 116.334789236 c 4,25,26
 667 -49 667 -49 598.513671875 -178.618164062 c 4,0,1
EndSplineSet
PairPos2: "'kern' Horizontal Kerning lookup 15-1" uniFEF3 dx=20 dy=0 dh=20 dv=0 dx=0 dy=0 dh=0 dv=0
PairPos2: "'kern' Horizontal Kerning lookup 15-1" uniFB58 dx=20 dy=0 dh=20 dv=0 dx=0 dy=0 dh=0 dv=0
PairPos2: "'kern' Horizontal Kerning lookup 15-1" uniFBFE dx=20 dy=0 dh=20 dv=0 dx=0 dy=0 dh=0 dv=0
PairPos2: "'kern' Horizontal Kerning lookup 15-4" uni0621 dx=-196 dy=0 dh=-196 dv=0 dx=0 dy=0 dh=0 dv=0
PairPos2: "'kern' Horizontal Kerning lookup 15-3" uni0648 dx=-43 dy=0 dh=-43 dv=0 dx=0 dy=0 dh=0 dv=0
PairPos2: "'kern' Horizontal Kerning lookup 15-1" uni0632 dx=-43 dy=0 dh=-43 dv=0 dx=0 dy=0 dh=0 dv=0
PairPos2: "'kern' Horizontal Kerning lookup 15-1" uni0631 dx=-43 dy=0 dh=-43 dv=0 dx=0 dy=0 dh=0 dv=0
PairPos2: "'kern' Horizontal Kerning lookup 15-1" uni06CC dx=-43 dy=0 dh=-43 dv=0 dx=0 dy=0 dh=0 dv=0
PairPos2: "'kern' Horizontal Kerning lookup 15-1" uniFEEB dx=-128 dy=0 dh=-128 dv=0 dx=0 dy=0 dh=0 dv=0
PairPos2: "'kern' Horizontal Kerning lookup 15-1" uniFB7C dx=-115 dy=0 dh=-115 dv=0 dx=0 dy=0 dh=0 dv=0
PairPos2: "'kern' Horizontal Kerning lookup 15-1" uniFEDF dx=-128 dy=0 dh=-128 dv=0 dx=0 dy=0 dh=0 dv=0
PairPos2: "'kern' Horizontal Kerning lookup 15-1" uniFB90 dx=-213 dy=0 dh=-213 dv=0 dx=0 dy=0 dh=0 dv=0
PairPos2: "'kern' Horizontal Kerning lookup 15-1" uni06A9 dx=-213 dy=0 dh=-213 dv=0 dx=0 dy=0 dh=0 dv=0
PairPos2: "'kern' Horizontal Kerning lookup 15-1" uni0649 dx=-43 dy=0 dh=-43 dv=0 dx=0 dy=0 dh=0 dv=0
PairPos2: "'kern' Horizontal Kerning lookup 15-1" uni0647 dx=-128 dy=0 dh=-128 dv=0 dx=0 dy=0 dh=0 dv=0
PairPos2: "'kern' Horizontal Kerning lookup 15-1" uniFEE7 dx=-128 dy=0 dh=-128 dv=0 dx=0 dy=0 dh=0 dv=0
PairPos2: "'kern' Horizontal Kerning lookup 15-1" uniFEE3 dx=-128 dy=0 dh=-128 dv=0 dx=0 dy=0 dh=0 dv=0
PairPos2: "'kern' Horizontal Kerning lookup 15-1" uni0645 dx=-128 dy=0 dh=-128 dv=0 dx=0 dy=0 dh=0 dv=0
PairPos2: "'kern' Horizontal Kerning lookup 15-1" uni0644 dx=-43 dy=0 dh=-43 dv=0 dx=0 dy=0 dh=0 dv=0
PairPos2: "'kern' Horizontal Kerning lookup 15-1" uniFEDB dx=-213 dy=0 dh=-213 dv=0 dx=0 dy=0 dh=0 dv=0
PairPos2: "'kern' Horizontal Kerning lookup 15-1" uniFED7 dx=-128 dy=0 dh=-128 dv=0 dx=0 dy=0 dh=0 dv=0
PairPos2: "'kern' Horizontal Kerning lookup 15-1" uni0642 dx=-43 dy=0 dh=-43 dv=0 dx=0 dy=0 dh=0 dv=0
PairPos2: "'kern' Horizontal Kerning lookup 15-1" uniFED3 dx=-128 dy=0 dh=-128 dv=0 dx=0 dy=0 dh=0 dv=0
PairPos2: "'kern' Horizontal Kerning lookup 15-1" uni0641 dx=-128 dy=0 dh=-128 dv=0 dx=0 dy=0 dh=0 dv=0
PairPos2: "'kern' Horizontal Kerning lookup 15-1" uniFECF dx=-128 dy=0 dh=-128 dv=0 dx=0 dy=0 dh=0 dv=0
PairPos2: "'kern' Horizontal Kerning lookup 15-1" uniFECB dx=-128 dy=0 dh=-128 dv=0 dx=0 dy=0 dh=0 dv=0
PairPos2: "'kern' Horizontal Kerning lookup 15-1" uniFEC7 dx=-128 dy=0 dh=-128 dv=0 dx=0 dy=0 dh=0 dv=0
PairPos2: "'kern' Horizontal Kerning lookup 15-1" uni0638 dx=-128 dy=0 dh=-128 dv=0 dx=0 dy=0 dh=0 dv=0
PairPos2: "'kern' Horizontal Kerning lookup 15-1" uniFEC3 dx=-128 dy=0 dh=-128 dv=0 dx=0 dy=0 dh=0 dv=0
PairPos2: "'kern' Horizontal Kerning lookup 15-1" uni0637 dx=-128 dy=0 dh=-128 dv=0 dx=0 dy=0 dh=0 dv=0
PairPos2: "'kern' Horizontal Kerning lookup 15-1" uniFEBF dx=-128 dy=0 dh=-128 dv=0 dx=0 dy=0 dh=0 dv=0
PairPos2: "'kern' Horizontal Kerning lookup 15-1" uni0636 dx=-128 dy=0 dh=-128 dv=0 dx=0 dy=0 dh=0 dv=0
PairPos2: "'kern' Horizontal Kerning lookup 15-1" uniFEBB dx=-128 dy=0 dh=-128 dv=0 dx=0 dy=0 dh=0 dv=0
PairPos2: "'kern' Horizontal Kerning lookup 15-1" uni0635 dx=-128 dy=0 dh=-128 dv=0 dx=0 dy=0 dh=0 dv=0
PairPos2: "'kern' Horizontal Kerning lookup 15-1" uniFEB7 dx=-128 dy=0 dh=-128 dv=0 dx=0 dy=0 dh=0 dv=0
PairPos2: "'kern' Horizontal Kerning lookup 15-1" uni0634 dx=-128 dy=0 dh=-128 dv=0 dx=0 dy=0 dh=0 dv=0
PairPos2: "'kern' Horizontal Kerning lookup 15-1" uniFEB3 dx=-128 dy=0 dh=-128 dv=0 dx=0 dy=0 dh=0 dv=0
PairPos2: "'kern' Horizontal Kerning lookup 15-1" uni0633 dx=-128 dy=0 dh=-128 dv=0 dx=0 dy=0 dh=0 dv=0
PairPos2: "'kern' Horizontal Kerning lookup 15-1" uni0630 dx=-128 dy=0 dh=-128 dv=0 dx=0 dy=0 dh=0 dv=0
PairPos2: "'kern' Horizontal Kerning lookup 15-1" uni062F dx=-128 dy=0 dh=-128 dv=0 dx=0 dy=0 dh=0 dv=0
PairPos2: "'kern' Horizontal Kerning lookup 15-1" uniFEA7 dx=-128 dy=0 dh=-128 dv=0 dx=0 dy=0 dh=0 dv=0
PairPos2: "'kern' Horizontal Kerning lookup 15-1" uniFEA3 dx=-128 dy=0 dh=-128 dv=0 dx=0 dy=0 dh=0 dv=0
PairPos2: "'kern' Horizontal Kerning lookup 15-1" uniFE9F dx=-128 dy=0 dh=-128 dv=0 dx=0 dy=0 dh=0 dv=0
PairPos2: "'kern' Horizontal Kerning lookup 15-1" uniFE9B dx=-128 dy=0 dh=-128 dv=0 dx=0 dy=0 dh=0 dv=0
PairPos2: "'kern' Horizontal Kerning lookup 15-1" uni062B dx=-128 dy=0 dh=-128 dv=0 dx=0 dy=0 dh=0 dv=0
PairPos2: "'kern' Horizontal Kerning lookup 15-1" uniFE97 dx=-128 dy=0 dh=-128 dv=0 dx=0 dy=0 dh=0 dv=0
PairPos2: "'kern' Horizontal Kerning lookup 15-1" uni062A dx=-128 dy=0 dh=-128 dv=0 dx=0 dy=0 dh=0 dv=0
PairPos2: "'kern' Horizontal Kerning lookup 15-1" uni0629 dx=-128 dy=0 dh=-128 dv=0 dx=0 dy=0 dh=0 dv=0
PairPos2: "'kern' Horizontal Kerning lookup 15-1" uniFE91 dx=-53 dy=0 dh=-53 dv=0 dx=0 dy=0 dh=0 dv=0
PairPos2: "'kern' Horizontal Kerning lookup 15-1" uni0628 dx=-128 dy=0 dh=-128 dv=0 dx=0 dy=0 dh=0 dv=0
PairPos2: "'kern' Horizontal Kerning lookup 15-1" uni0627 dx=-150 dy=0 dh=-150 dv=0 dx=0 dy=0 dh=0 dv=0
PairPos2: "'kern' Horizontal Kerning lookup 15-1" uni0622 dx=-150 dy=0 dh=-150 dv=0 dx=0 dy=0 dh=0 dv=0
PairPos2: "'kern' Horizontal Kerning lookup 15-1" uniFB94 dx=-235 dy=0 dh=-235 dv=0 dx=0 dy=0 dh=0 dv=0
PairPos2: "'kern' Horizontal Kerning lookup 15-1" afii57509 dx=-235 dy=0 dh=-235 dv=0 dx=0 dy=0 dh=0 dv=0
PairPos2: "'kern' Horizontal Kerning lookup 15-1" uniFB56 dx=-128 dy=0 dh=-128 dv=0 dx=0 dy=0 dh=0 dv=0
PairPos2: "'kern' Horizontal Kerning lookup 15-1" afii57506 dx=-128 dy=0 dh=-128 dv=0 dx=0 dy=0 dh=0 dv=0
Substitution2: "'fina' Terminal Forms in Arabic lookup 9 subtable" uniFEAE
EndChar

StartChar: uni0633
Encoding: 1587 1587 24
Width: 2349
VWidth: 3744
GlyphClass: 2
Flags: W
AnchorPoint: "Anchor-7" 635.746 -764.065 basechar 0
AnchorPoint: "Anchor-10" 1670.2 1041.76 basechar 0
LayerCount: 2
Fore
SplineSet
1257.33007812 279.373046875 m 0,0,1
 1317 181 1317 181 1462.6796875 180.962890625 c 0,2,3
 1597.30783645 181.000085048 1597.30783645 181.000085048 1613.50683594 327.958007812 c 2,4,-1
 1634.83105469 521.412109375 l 5,5,-1
 1748.29882812 521.412109375 l 5,6,-1
 1768.85449219 329.776367188 l 2,7,8
 1785 180 1785 180 1931.18261719 180.438476562 c 0,9,10
 2097 180 2097 180 2096.92871094 341.384765625 c 0,11,12
 2097 396 2097 396 2018.48828125 615.358398438 c 1,13,-1
 2127.21386719 741.091796875 l 2,14,15
 2144 761 2144 761 2165.21386719 718.091796875 c 0,16,17
 2249 546 2249 546 2248.55957031 386.078125 c 0,18,19
 2249 238 2249 238 2167.19238281 125.884765625 c 0,20,21
 2075 1 2075 1 1934.19726562 0.93359375 c 16,22,23
 1778 1 1778 1 1689.984375 129.227539062 c 1,24,25
 1595 2 1595 2 1473.74121094 1.98046875 c 0,26,27
 1342 2 1342 2 1298 48 c 1,28,29
 1298 -82 1298 -82 1261 -185.876840953 c 0,30,31
 1135 -539 1135 -539 666.965820312 -538.86328125 c 0,32,33
 454 -539 454 -539 308 -447.248046875 c 0,34,35
 108 -321 108 -321 107.665039062 -35.0888671875 c 0,36,37
 108 169 108 169 205.79296875 384.94140625 c 1,38,-1
 316.0546875 352.40234375 l 1,39,40
 259 165 259 165 258.880859375 13.18359375 c 0,41,42
 259 -359 259 -359 673.813476562 -359.276367188 c 0,43,44
 987 -359 987 -359 1109.19140625 -164.387695312 c 0,45,46
 1147 -104 1147 -104 1146.53173608 -15 c 0,47,48
 1146 97 1146 97 1023.66699219 328.455078125 c 1,49,-1
 1120.31640625 474.686523438 l 1,50,51
 1129 487 1129 487 1138.31347656 486.528320312 c 0,52,53
 1152 487 1152 487 1171.24511719 445.676757812 c 0,54,55
 1222 339 1222 339 1257.33007812 279.373046875 c 0,0,1
EndSplineSet
Substitution2: "'fina' Terminal Forms in Arabic lookup 9 subtable" uniFEB2
Substitution2: "'medi' Medial Forms in Arabic lookup 11 subtable" uniFEB4
Substitution2: "'init' Initial Forms in Arabic lookup 13 subtable" uniFEB3
EndChar

StartChar: uni0635
Encoding: 1589 1589 26
Width: 2603
VWidth: 3745
GlyphClass: 2
Flags: W
AnchorPoint: "Anchor-7" 635.746 -764.065 basechar 0
AnchorPoint: "Anchor-10" 2100.2 1161.76 basechar 0
LayerCount: 2
Fore
SplineSet
1602.11328125 180.791992188 m 5,0,-1
 1843.25390625 180.791992188 l 6,1,2
 2178 181 2178 181 2267.31933594 249.029296875 c 4,3,4
 2341 306 2341 306 2341.54003906 398.5390625 c 4,5,6
 2342 480 2342 480 2285 528.196710974 c 4,7,8
 2240 566 2240 566 2156.45703125 566.015625 c 4,9,10
 1920 566 1920 566 1602.11328125 180.791992188 c 5,0,-1
1298 48 m 1,11,12
 1298 -81 1298 -81 1261 -185.876840953 c 0,13,14
 1137 -539 1137 -539 666.965820312 -538.86328125 c 0,15,16
 454 -539 454 -539 308 -447.248046875 c 0,17,18
 108 -321 108 -321 107.665039062 -35.0888671875 c 0,19,20
 108 169 108 169 205.79296875 384.94140625 c 1,21,-1
 316.0546875 352.40234375 l 1,22,23
 259 165 259 165 258.880859375 13.18359375 c 0,24,25
 259 -359 259 -359 673.813476562 -359.276367188 c 0,26,27
 987 -359 987 -359 1109.19140625 -164.387695312 c 0,28,29
 1147 -104 1147 -104 1146.53173608 -15 c 0,30,31
 1146 97 1146 97 1023.66699219 328.455078125 c 1,32,-1
 1120.31640625 474.686523438 l 1,33,34
 1129 487 1129 487 1138.31347656 486.528320312 c 0,35,36
 1153 486 1153 486 1171.24511719 445.676757812 c 0,37,38
 1211 357 1211 357 1257.33007812 279.373046875 c 24,39,40
 1317 182 1317 182 1452.38574219 180.909179688 c 1,41,42
 1806 743 1806 743 2169.27148438 743.09375 c 0,43,44
 2289 743 2289 743 2369 686.765486396 c 0,45,46
 2500 595 2500 595 2500.23828125 419.375976562 c 0,47,48
 2500.00005327 0.09375 2500.00005327 0.09375 1831.76269531 0.09375 c 2,49,-1
 1586.95019531 0.09375 l 2,50,51
 1360 0 1360 0 1298 48 c 1,11,12
EndSplineSet
Substitution2: "'fina' Terminal Forms in Arabic lookup 9 subtable" uniFEBA
Substitution2: "'medi' Medial Forms in Arabic lookup 11 subtable" uniFEBC
Substitution2: "'init' Initial Forms in Arabic lookup 13 subtable" uniFEBB
EndChar

StartChar: uni0637
Encoding: 1591 1591 28
Width: 1570
VWidth: 3745
GlyphClass: 2
Flags: W
AnchorPoint: "Anchor-10" 485.708 1533.06 basechar 0
AnchorPoint: "Anchor-7" 712.507 -219.535 basechar 0
LayerCount: 2
Fore
SplineSet
568.793945312 180.791015625 m 1,0,-1
 809.934570312 180.791015625 l 2,1,2
 1144.68066406 180.999023438 1144.68066406 180.999023438 1234 249.028320312 c 0,3,4
 1307.68066406 305.999023438 1307.68066406 305.999023438 1308.22070312 398.538085938 c 0,5,6
 1308.68066406 479.999023438 1308.68066406 479.999023438 1251.68066406 528.1953125 c 0,7,8
 1206.68066406 565.999023438 1206.68066406 565.999023438 1123.13769531 566.014648438 c 0,9,10
 886.680664062 565.999023438 886.680664062 565.999023438 568.793945312 180.791015625 c 1,0,-1
808.443359375 0.0927734375 m 2,11,12
 260.19921875 0 l 1,13,14
 97 128 97 128 96.3173828125 163 c 0,15,16
 96.0060455491 180.65713366 96.0060455491 180.65713366 124.399414062 180.657226562 c 2,17,-1
 422.862304688 180.658203125 l 1,18,19
 457 232 457 232 491.7890625 282.39453125 c 1,20,21
 486 366 486 366 469.5078125 777.770507812 c 0,22,23
 451 1232 451 1232 428.522460938 1319.796875 c 5,24,-1
 579 1407 l 6,25,26
 604.18440922 1422.11064553 604.18440922 1422.11064553 604.880859375 1382.04882812 c 6,27,-1
 621.05859375 451.458984375 l 1,28,29
 870 743 870 743 1135.95214844 743.092773438 c 0,30,31
 1256 743 1256 743 1335.68066406 686.764648438 c 0,32,33
 1467 595 1467 595 1466.91894531 419.375 c 0,34,35
 1467 0 1467 0 808.443359375 0.0927734375 c 2,11,12
EndSplineSet
Substitution2: "'fina' Terminal Forms in Arabic lookup 9 subtable" uniFEC2
Substitution2: "'medi' Medial Forms in Arabic lookup 11 subtable" uniFEC4
Substitution2: "'init' Initial Forms in Arabic lookup 13 subtable" uniFEC3
EndChar

StartChar: uni0639
Encoding: 1593 1593 30
Width: 1262
VWidth: 3739
GlyphClass: 2
Flags: W
AnchorPoint: "Anchor-7" 562.136 -813.44 basechar 0
AnchorPoint: "Anchor-10" 706.051 1329.67 basechar 0
LayerCount: 2
Fore
SplineSet
788.768554688 -654.81640625 m 0,0,1
 418 -655 418 -655 249.965820312 -507.939453125 c 4,2,3
 104 -381 104 -381 103.260742188 -184.354492188 c 0,4,5
 102 172 102 172 460 360 c 1,6,7
 306 459 306 459 306.028320312 632.578125 c 0,8,9
 306 671 306 671 319.127929688 723.736328125 c 0,10,11
 352 855 352 855 461.2578125 934 c 0,12,13
 574 1016 574 1016 703.815429688 1016.01855469 c 0,14,15
 872 1016 872 1016 985.583984375 912.750976562 c 0,16,17
 993 906 993 906 1001.28808594 897.672851562 c 1,18,19
 997 878 997 878 954.852539062 768.501953125 c 1,20,21
 812 824 812 824 701.169921875 823.515625 c 0,22,23
 577 824 577 824 483.205078125 717.178710938 c 0,24,25
 449 678 449 678 448.647460938 647.791992188 c 0,26,27
 449 587 449 587 561.40625 500.189453125 c 0,28,29
 617 457 617 457 673.580078125 457.0859375 c 0,30,31
 697 457 697 457 928.5625 491.759765625 c 1,32,-1
 1067.60449219 509.389648438 l 2,33,34
 1101 514 1101 514 1090.60839844 477 c 0,35,36
 1079 435 1079 435 1032.72167969 294.971679688 c 1,37,38
 663 291 663 291 470.227539062 176.634765625 c 0,39,40
 249 46 249 46 249.989257812 -153.680664062 c 0,41,42
 250 -486 250 -486 765.594726562 -485.2265625 c 0,43,44
 941 -485 941 -485 1145 -457.595741747 c 0,45,46
 1165 -455 1165 -455 1161.71195905 -472 c 0,47,48
 1154 -509 1154 -509 1136 -575 c 0,49,50
 1121 -630 1121 -630 1047 -640.119140625 c 0,51,52
 943 -654 943 -654 788.768554688 -654.81640625 c 0,0,1
EndSplineSet
Substitution2: "'fina' Terminal Forms in Arabic lookup 9 subtable" uniFECA
Substitution2: "'medi' Medial Forms in Arabic lookup 11 subtable" uniFECC
Substitution2: "'init' Initial Forms in Arabic lookup 13 subtable" uniFECB
EndChar

StartChar: afii57440
Encoding: 1600 1600 32
Width: 245
VWidth: 3772
GlyphClass: 2
Flags: W
AnchorPoint: "Anchor-10" 128.034 870.08 basechar 0
AnchorPoint: "Anchor-7" 124.768 -197.603 basechar 0
LayerCount: 2
Fore
SplineSet
-60.3662109375 77 m 2,0,-1
 -60.3662109375 102 l 2,1,2
 -60.000004585 179.999023438 -60.000004585 179.999023438 -5 179.999023438 c 6,3,-1
 250 179.999023438 l 6,4,5
 275.340820312 180.000013313 275.340820312 180.000013313 275.340820312 102 c 2,6,-1
 275.340820312 77 l 2,7,8
 275 0 275 0 250 0 c 2,9,-1
 -5 0 l 2,10,11
 -60 0 -60 0 -60.3662109375 77 c 2,0,-1
EndSplineSet
EndChar

StartChar: uni0643
Encoding: 1603 1603 35
Width: 1878
VWidth: 3705
GlyphClass: 2
Flags: W
AnchorPoint: "Anchor-10" 916.253 1515.45 basechar 0
AnchorPoint: "Anchor-7" 832.494 -204.19 basechar 0
LayerCount: 2
Fore
SplineSet
808.87890625 2 m 0,0,1
 477 2 477 2 305.037109375 98.587890625 c 0,2,3
 104 210 104 210 104.243164062 454.830078125 c 0,4,5
 104 625 104 625 174.85546875 766.762695312 c 1,6,-1
 276.431640625 732.233398438 l 1,7,8
 244 613 244 613 243.690429688 523.778320312 c 0,9,10
 244 424 244 424 284.80859375 362.3515625 c 0,11,12
 406 180 406 180 825.046875 180.487304688 c 0,13,14
 1105 181 1105 181 1305.89550781 221.599609375 c 0,15,16
 1449 250 1449 250 1536.30078125 300.086914062 c 0,17,18
 1580 325 1580 325 1579 574 c 128,-1,19
 1578 823 1578 823 1567.0234375 976.764648438 c 0,20,21
 1562 1047 1562 1047 1536.86523438 1299.42089844 c 1,22,-1
 1685.09472656 1412.51171875 l 2,23,24
 1721.98606616 1440.98924405 1721.98606616 1440.98924405 1721.89941406 1389.92382812 c 2,25,-1
 1720.89941406 800.608398438 l 2,26,27
 1720 250 1720 250 1601.63085938 162.662109375 c 0,28,29
 1382 2 1382 2 808.87890625 2 c 0,0,1
849.633789062 1127.10546875 m 0,30,31
 849 1082 849 1082 985.580078125 1057.65234375 c 0,32,33
 1123 1033 1123 1033 1153.32421875 940.416015625 c 0,34,35
 1189 832 1189 832 1127.52832031 745.630859375 c 0,36,37
 1054 644 1054 644 863.654296875 650.818359375 c 0,38,39
 769 654 769 654 670.5234375 685.338867188 c 1,40,-1
 684.244140625 825.8828125 l 1,41,42
 846 769 846 769 987.969726562 797.603515625 c 0,43,44
 1069 814 1069 814 1075.86621094 859.4765625 c 0,45,46
 1083 907 1083 907 940.265625 938 c 0,47,48
 767 975 767 975 771.475585938 1143.74121094 c 0,49,50
 777 1323 777 1323 1089.30761719 1366.13964844 c 0,51,52
 1147.258781 1374.1503596 1147.258781 1374.1503596 1132.29296875 1331.31835938 c 2,53,-1
 1095.76660156 1226.78027344 l 1,54,55
 851 1202 851 1202 849.633789062 1127.10546875 c 0,30,31
EndSplineSet
Substitution2: "'fina' Terminal Forms in Arabic lookup 9 subtable" uniFEDA
Substitution2: "'medi' Medial Forms in Arabic lookup 11 subtable" uniFEDC
Substitution2: "'init' Initial Forms in Arabic lookup 13 subtable" uniFEDB
EndChar

StartChar: uni0644
Encoding: 1604 1604 36
Width: 1325
VWidth: 3705
GlyphClass: 2
Flags: W
AnchorPoint: "Anchor-10" 570.799 1009.28 basechar 0
AnchorPoint: "Anchor-7" 646.152 -732.482 basechar 0
LayerCount: 2
Fore
SplineSet
1175.76660156 88.3427734375 m 2,0,1
 1190.10948277 -534.999192182 1190.10948277 -534.999192182 656.619140625 -538.935546875 c 0,2,3
 381 -541 381 -541 237.024414062 -386.934570312 c 0,4,5
 107 -246 107 -246 106.561523438 -25.052734375 c 0,6,7
 107 164 107 164 209.770507812 384.857421875 c 1,8,-1
 320.032226562 352.3203125 l 1,9,10
 260 159 260 159 260.487304688 18.580078125 c 0,11,12
 260 -360 260 -360 654.125 -359.364257812 c 0,13,14
 1012 -359 1012 -359 1029.62597656 -32 c 0,15,16
 1033 30 1033 30 1029.85449219 114 c 0,17,18
 986 1238 986 1238 972.236328125 1312.83886719 c 1,19,-1
 1117 1400 l 2,20,21
 1145.19198022 1417.11655942 1145.19198022 1417.11655942 1146 1382 c 2,22,-1
 1175.76660156 88.3427734375 l 2,0,1
EndSplineSet
Substitution2: "'fina' Terminal Forms in Arabic lookup 9 subtable" uniFEDE
Substitution2: "'medi' Medial Forms in Arabic lookup 11 subtable" uniFEE0
Substitution2: "'init' Initial Forms in Arabic lookup 13 subtable" uniFEDF
EndChar

StartChar: uni0645
Encoding: 1605 1605 37
Width: 1110
VWidth: 3775
GlyphClass: 2
Flags: W
AnchorPoint: "Anchor-10" 609.394 1157.86 basechar 0
AnchorPoint: "Anchor-7" 206.665 -888.897 basechar 0
LayerCount: 2
Fore
SplineSet
667.024414062 68.6806640625 m 4,0,1
 518 95 518 95 397.07471309 94.8019547315 c 4,2,3
 282 95 282 95 250.184570312 76.5595703125 c 5,4,-1
 263.3984375 -517.263671875 l 6,5,6
 265 -607 265 -607 177.186523438 -696.890625 c 4,7,8
 151 -724 151 -724 136.416537297 -723.880475809 c 4,9,10
 121.114579372 -723.999111668 121.114579372 -723.999111668 120.072265625 -692.62890625 c 6,11,-1
 106.69140625 -289.909179688 l 6,12,13
 105 -239 105 -239 105.164023793 -198.184048972 c 4,14,15
 105 -18 105 -18 130.040039062 75.455078125 c 4,16,17
 171 227 171 227 290.078125 269.318359375 c 5,18,19
 363 542 363 542 456.986328125 653.043945312 c 4,20,21
 525 734 525 734 618.967773438 734.624023438 c 4,22,23
 710 735 710 735 779.755859375 683.823242188 c 4,24,25
 879.684984128 610.016906067 879.684984128 610.016906067 939.647460938 501 c 4,26,27
 991 408 991 408 1005.14550781 338.657226562 c 4,28,29
 1010 315 1010 315 1009.68164062 290.967773438 c 4,30,31
 1010 187 1010 187 909.490234375 90.28125 c 4,32,33
 864 46 864 46 828.694697229 41.2309357318 c 4,34,35
 827 41 827 41 667.024414062 68.6806640625 c 4,0,1
412.135742188 276.193359375 m 5,36,37
 585 267 585 267 685.897460938 247.643554688 c 4,38,39
 787 229 787 229 821.884765625 228.573242188 c 4,40,41
 857 229 857 229 856.793945312 251.25390625 c 4,42,43
 857 311 857 311 823.18359375 374.678710938 c 4,44,45
 752 507 752 507 645.223632812 537.03515625 c 4,46,47
 631 541 631 541 612.71875 540.81640625 c 4,48,49
 595 541 595 541 572.344726562 533.4921875 c 4,50,51
 528 519 528 519 492.28125 463.798828125 c 4,52,53
 457 409 457 409 412.135742188 276.193359375 c 5,36,37
EndSplineSet
Substitution2: "'init' Initial Forms in Arabic lookup 13 subtable" uniFEE3
Substitution2: "'medi' Medial Forms in Arabic lookup 11 subtable" uniFEE4
Substitution2: "'fina' Terminal Forms in Arabic lookup 9 subtable" uniFEE2
EndChar

StartChar: uni0647
Encoding: 1607 1607 39
Width: 877
VWidth: 3738
GlyphClass: 2
Flags: W
AnchorPoint: "Anchor-10" 377.369 1133.95 basechar 0
AnchorPoint: "Anchor-7" 420.886 -224.499 basechar 0
LayerCount: 2
Fore
SplineSet
368.119140625 596.525390625 m 1,0,1
 243.869339088 429.479902572 243.869339088 429.479902572 243.869339088 311.183792575 c 0,2,3
 243.869339088 185.999348856 243.869339088 185.999348856 447.697265625 185.846679688 c 4,4,5
 645.57729103 186.021743442 645.57729103 186.021743442 645.57729103 320.011920166 c 0,6,7
 645.57729103 437.712653791 645.57729103 437.712653791 436.822265625 559.926757812 c 0,8,9
 382 592 382 592 368.119140625 596.525390625 c 1,0,1
312.573242188 775.623046875 m 0,10,11
 332 802 332 802 348.365554853 802.034179688 c 0,12,13
 365 802 365 802 375.379882812 798.002929688 c 0,14,15
 777.102454999 645.581707502 777.102454999 645.581707502 776.360351562 332.854492188 c 0,16,17
 776 181 776 181 683.640136719 93.4733303695 c 0,18,19
 591 6 591 6 431.374023438 6.345703125 c 0,20,21
 266 6 266 6 173.868164062 108.68359375 c 0,22,23
 109 181 109 181 109.25 296.484375 c 0,24,25
 109 499 109 499 312.573242188 775.623046875 c 0,10,11
EndSplineSet
Substitution2: "'fina' Terminal Forms in Arabic lookup 9 subtable" uniFEEA
Substitution2: "'medi' Medial Forms in Arabic lookup 11 subtable" uniFEEC
Substitution2: "'init' Initial Forms in Arabic lookup 13 subtable" uniFEEB
EndChar

StartChar: uni0648
Encoding: 1608 1608 40
Width: 806
VWidth: 3773
GlyphClass: 2
Flags: W
AnchorPoint: "Anchor-7" 356.313 -677.669 basechar 0
AnchorPoint: "Anchor-10" 373.254 1139.8 basechar 0
LayerCount: 2
Fore
SplineSet
61.212890625 -401.844726562 m 4,0,1
 488 -285 488 -285 556.234375 5.3994140625 c 1,2,-1
 486.193359375 -2 l 2,3,4
 256 -26 256 -26 160.512695312 69.6064453125 c 0,5,6
 88 142 88 142 95.560546875 261.30078125 c 0,7,8
 104 401 104 401 164 515.98046875 c 0,9,10
 243 668 243 668 400.532226562 667.788085938 c 0,11,12
 567 668 567 668 652.97265625 480.303710938 c 0,13,14
 711 354 711 354 710.956054688 166 c 24,15,16
 711 -47 711 -47 643.513671875 -178.618164062 c 0,17,18
 559 -344 559 -344 371.763671875 -455.211914062 c 4,19,20
 279 -510 279 -510 174.038085938 -535.3515625 c 4,21,22
 163 -538 163 -538 152.479492188 -537.866210938 c 4,23,24
 131 -538 131 -538 98.923828125 -504 c 4,25,26
 87 -492 87 -492 64.13671875 -460.24609375 c 4,27,28
 45 -435 45 -435 45.306640625 -419.809570312 c 4,29,30
 45 -406 45 -406 61.212890625 -401.844726562 c 4,0,1
561.814453125 190.555664062 m 1,31,32
 549 351 549 351 495.333007812 428 c 0,33,34
 452 491 452 491 391.065429688 490.7421875 c 0,35,36
 297 491 297 491 260.943359375 383.198242188 c 0,37,38
 238 313 238 313 238.311523438 278.197265625 c 0,39,40
 238 214 238 214 305.215820312 191.265625 c 0,41,42
 352 175 352 175 424 174.234375 c 0,43,44
 493 174 493 174 561.814453125 190.555664062 c 1,31,32
EndSplineSet
Substitution2: "'fina' Terminal Forms in Arabic lookup 9 subtable" uniFEEE
EndChar

StartChar: uni0649
Encoding: 1609 1609 41
Width: 1474
VWidth: 3745
GlyphClass: 2
Flags: W
AnchorPoint: "Anchor-10" 612.513 958.08 basechar 0
AnchorPoint: "Anchor-7" 618.071 -676.887 basechar 0
LayerCount: 2
Fore
SplineSet
677.813476562 -309.276367188 m 0,0,1
 991 -309 991 -309 1148.43554688 -130.353515625 c 0,2,3
 1191 -82 1191 -82 1191.02269753 -55.1702648796 c 0,4,5
 1191 -32 1191 -32 1157.15625 -26.005859375 c 0,6,-1
 913 17 l 0,7,8
 790 38 790 38 766.2890625 100.896484375 c 0,9,10
 759 121 759 121 758.57049056 151.654016345 c 0,11,12
 759 214 759 214 789.98046875 320.5 c 0,13,14
 875 609 875 609 1104.56054688 702.146484375 c 0,15,16
 1179 732 1179 732 1256.30972958 732.346456662 c 0,17,18
 1320 732 1320 732 1385.69921875 712.220703125 c 1,19,20
 1380 651 1380 651 1347.77441406 516.538085938 c 1,21,22
 1284 520 1284 520 1267.49007766 519.613722885 c 0,23,24
 1102 520 1102 520 1018.12109375 436.591796875 c 0,25,26
 931 350 931 350 899.73046875 208.78125 c 1,27,-1
 1162 158.534179688 l 2,28,29
 1314 129 1314 129 1314.23045267 4.94321804852 c 0,30,31
 1314 -138 1314 -138 1227.57226562 -250 c 0,32,33
 1044 -487 1044 -487 668.483398438 -488.856445312 c 8,34,35
 456 -490 456 -490 308 -394.66796875 c 0,36,37
 107 -266 107 -266 106.9296875 15.4951171875 c 0,38,39
 107 209 107 209 209.79296875 434.94140625 c 1,40,-1
 320.0546875 402.40234375 l 1,41,42
 263 215 263 215 262.880859375 63.18359375 c 0,43,44
 263 -310 263 -310 677.813476562 -309.276367188 c 0,0,1
EndSplineSet
Substitution2: "'fina' Terminal Forms in Arabic lookup 9 subtable" uniFEF0
Substitution2: "'medi' Medial Forms in Arabic lookup 11 subtable" uniFBE9
Substitution2: "'init' Initial Forms in Arabic lookup 13 subtable" uniFBE8
EndChar

StartChar: uni064B
Encoding: 1611 1611 43
Width: -25
VWidth: 2402
GlyphClass: 4
Flags: W
AnchorPoint: "Anchor-10" 637 1173.3 mark 0
AnchorPoint: "Anchor-9" 637 1173.3 mark 0
AnchorPoint: "Anchor-1" 595.196 1707 basemark 0
AnchorPoint: "Anchor-1" 637 1173.3 mark 0
LayerCount: 2
Fore
SplineSet
382 1153 m 1,0,-1
 382 1254.09277344 l 1,1,-1
 777 1420.09179688 l 1,2,-1
 777 1319 l 1,3,-1
 382 1153 l 1,0,-1
382 1403 m 1,4,-1
 382 1504.09277344 l 1,5,-1
 777 1670.09179688 l 1,6,-1
 777 1569 l 1,7,-1
 382 1403 l 1,4,-1
EndSplineSet
EndChar

StartChar: uni064C
Encoding: 1612 1612 44
Width: -25
VWidth: 2402
GlyphClass: 4
Flags: W
AnchorPoint: "Anchor-10" 706.932 1262.33 mark 0
AnchorPoint: "Anchor-9" 706.932 1262.33 mark 0
AnchorPoint: "Anchor-1" 593.593 1985.74 basemark 0
AnchorPoint: "Anchor-1" 706.932 1262.33 mark 0
LayerCount: 2
Fore
SplineSet
682.081054688 1807.66210938 m 0,0,1
 635.4140625 1807.66210938 635.4140625 1807.66210938 612.619140625 1787.10839844 c 128,-1,2
 589.82421875 1766.5546875 589.82421875 1766.5546875 589.82421875 1724.77636719 c 0,3,4
 589.82421875 1662.24414062 589.82421875 1662.24414062 671.62109375 1632.5 c 0,5,6
 691.80078125 1625.15917969 691.80078125 1625.15917969 734.59765625 1611.84960938 c 1,7,-1
 750.127929688 1648.07714844 l 2,8,9
 753.275390625 1655.41894531 753.275390625 1655.41894531 755.631835938 1662.59375 c 128,-1,10
 757.989257812 1669.76953125 757.989257812 1669.76953125 759.5546875 1676.76660156 c 128,-1,11
 761.119140625 1683.76367188 761.119140625 1683.76367188 761.899414062 1690.58398438 c 128,-1,12
 762.6796875 1697.40429688 762.6796875 1697.40429688 762.6796875 1704.06542969 c 0,13,14
 762.6796875 1730.89160156 762.6796875 1730.89160156 755.590820312 1751.54394531 c 0,15,16
 745.873046875 1779.85546875 745.873046875 1779.85546875 727.615234375 1793.75878906 c 128,-1,17
 709.357421875 1807.66210938 709.357421875 1807.66210938 682.081054688 1807.66210938 c 0,0,1
331.27734375 1567.06640625 m 2,18,19
 337.979492188 1470.17773438 337.979492188 1470.17773438 347.932617188 1437.5625 c 0,20,21
 380.119140625 1332.10449219 380.119140625 1332.10449219 461.352539062 1334.04101562 c 0,22,23
 502.084960938 1335.01171875 502.084960938 1335.01171875 542.538085938 1354.87304688 c 128,-1,24
 582.9921875 1374.73339844 582.9921875 1374.73339844 623.202148438 1413.64648438 c 0,25,26
 669.795898438 1458.98242188 669.795898438 1458.98242188 696.400390625 1512.19335938 c 2,27,-1
 710.188476562 1539.77441406 l 1,28,-1
 680.01953125 1546.17675781 l 2,29,30
 553.680664062 1572.95605469 553.680664062 1572.95605469 512.194335938 1674.70019531 c 0,31,32
 505.251953125 1691.72070312 505.251953125 1691.72070312 505.251953125 1724.09570312 c 0,33,34
 505.251953125 1756.26171875 505.251953125 1756.26171875 514.016601562 1782.41113281 c 0,35,36
 550.029296875 1889.87402344 550.029296875 1889.87402344 671.806640625 1889.87402344 c 128,-1,37
 793.41796875 1889.87402344 793.41796875 1889.87402344 832.646484375 1785.16113281 c 0,38,39
 844.892578125 1752.47265625 844.892578125 1752.47265625 844.892578125 1710.29882812 c 128,-1,40
 844.892578125 1668.29785156 844.892578125 1668.29785156 831.830078125 1626.85449219 c 2,41,-1
 822.553710938 1597.48730469 l 1,42,-1
 853.311523438 1595.87207031 l 2,43,44
 873.525390625 1594.80566406 873.525390625 1594.80566406 911.638671875 1593.8515625 c 2,45,-1
 914.563476562 1593.77832031 l 1,46,-1
 914.563476562 1511.375 l 1,47,-1
 911.51171875 1511.42773438 l 2,48,49
 876.284179688 1512.04101562 876.284179688 1512.04101562 861.571289062 1513.51855469 c 2,50,-1
 782.775390625 1521.09179688 l 1,51,52
 721.950195312 1383.44628906 721.950195312 1383.44628906 600.155273438 1297.7421875 c 0,53,54
 538.19140625 1254.13867188 538.19140625 1254.13867188 470.0390625 1253.82128906 c 0,55,56
 279.547851562 1252.93457031 279.547851562 1252.93457031 272.821289062 1566.79492188 c 2,57,-1
 272.754882812 1569.859375 l 1,58,-1
 331.083984375 1569.859375 l 1,59,-1
 331.27734375 1567.06640625 l 2,18,19
EndSplineSet
EndChar

StartChar: uni064D
Encoding: 1613 1613 45
Width: -24
VWidth: 2231
GlyphClass: 4
Flags: W
AnchorPoint: "Anchor-7" 519.761 8.6797 mark 0
AnchorPoint: "Anchor-6" 519.761 8.6797 mark 0
AnchorPoint: "Anchor-0" 614.975 -455.578 basemark 0
AnchorPoint: "Anchor-0" 519.761 8.6797 mark 0
LayerCount: 2
Fore
SplineSet
329 -488 m 5,0,-1
 329 -386.907226562 l 5,1,-1
 724 -220.908203125 l 5,2,-1
 724 -322 l 5,3,-1
 329 -488 l 5,0,-1
329 -238 m 5,4,-1
 329 -136.907226562 l 5,5,-1
 724 29.091796875 l 5,6,-1
 724 -72 l 5,7,-1
 329 -238 l 5,4,-1
EndSplineSet
EndChar

StartChar: uni064E
Encoding: 1614 1614 46
Width: -24
VWidth: 2231
GlyphClass: 4
Flags: W
AnchorPoint: "Anchor-10" 541.027 1314.54 mark 0
AnchorPoint: "Anchor-9" 541.027 1314.54 mark 0
AnchorPoint: "Anchor-1" 520.452 1629.02 basemark 0
AnchorPoint: "Anchor-1" 541.027 1314.54 mark 0
LayerCount: 2
Fore
SplineSet
303 1306 m 5,0,-1
 303 1407.09277344 l 5,1,-1
 698 1573.09179688 l 5,2,-1
 698 1472 l 5,3,-1
 303 1306 l 5,0,-1
EndSplineSet
EndChar

StartChar: uni064F
Encoding: 1615 1615 47
Width: -24
VWidth: 2231
GlyphClass: 4
Flags: W
AnchorPoint: "Anchor-10" 597.961 1261.64 mark 0
AnchorPoint: "Anchor-9" 597.961 1261.64 mark 0
AnchorPoint: "Anchor-1" 528.853 1858.42 basemark 0
AnchorPoint: "Anchor-1" 597.961 1261.64 mark 0
LayerCount: 2
Fore
SplineSet
791.53125 1418.96386719 m 1,0,1
 737.403118743 1420.05195662 737.403118743 1420.05195662 666.219726562 1427.66113281 c 1,2,3
 613.530911695 1353.51764752 613.530911695 1353.51764752 523.468092566 1297.92483938 c 128,-1,4
 433.388997783 1242.32198483 433.388997783 1242.32198483 305.546875 1235.00097656 c 1,5,-1
 305.546875 1311.64160156 l 1,6,7
 459.386702053 1319.56060433 459.386702053 1319.56060433 554.650390625 1423.61230469 c 1,8,-1
 581.120117188 1451.4921875 l 1,9,10
 482.564496235 1478.18002467 482.564496235 1478.18002467 444 1526 c 4,11,12
 412 1565 412 1565 412.155761719 1623.29785156 c 0,13,14
 412 1699 412 1699 470 1743 c 0,15,16
 533 1791 533 1791 609.870117188 1769.41308594 c 0,17,18
 648.516601562 1758.59375 648.516601562 1758.59375 677.844726562 1729.57128906 c 0,19,20
 726.754969688 1681.17079907 726.754969688 1681.17079907 727.021484375 1603.67773438 c 0,21,22
 726.756835938 1571.12988281 726.756835938 1571.12988281 712.696289062 1525.93945312 c 2,23,-1
 704.4375 1499.3984375 l 1,24,-1
 732.193359375 1497.75878906 l 2,25,26
 763.574501539 1495.91399151 763.574501539 1495.91399151 791.53125 1495.62890625 c 1,27,-1
 791.53125 1418.96386719 l 1,0,1
624.38671875 1512.61425781 m 1,28,29
 649.851791442 1573.25598795 649.851791442 1573.25598795 648.895719723 1614 c 0,30,31
 647.485729449 1674.0882336 647.485729449 1674.0882336 604 1688.80306403 c 0,32,33
 565 1702 565 1702 536 1688 c 0,34,35
 501 1670 501 1670 492.629882812 1633.48925781 c 0,36,37
 476.825808147 1559.57427236 476.825808147 1559.57427236 600.418945312 1520.04785156 c 0,38,39
 611.1174251 1516.62503855 611.1174251 1516.62503855 624.38671875 1512.61425781 c 1,28,29
EndSplineSet
EndChar

StartChar: uni0650
Encoding: 1616 1616 48
Width: -24
VWidth: 2231
GlyphClass: 4
Flags: W
AnchorPoint: "Anchor-7" 549.05 -78.2773 mark 0
AnchorPoint: "Anchor-6" 549.05 -78.2773 mark 0
AnchorPoint: "Anchor-0" 583.143 -285.976 basemark 0
AnchorPoint: "Anchor-0" 549.05 -78.2773 mark 0
LayerCount: 2
Fore
SplineSet
351 -322 m 1,0,-1
 351 -220.907226562 l 1,1,-1
 746 -54.908203125 l 1,2,-1
 746 -156 l 1,3,-1
 351 -322 l 1,0,-1
EndSplineSet
EndChar

StartChar: uni0651
Encoding: 1617 1617 49
Width: -24
VWidth: 2238
GlyphClass: 4
Flags: W
AnchorPoint: "Anchor-10" 589.815 1342.68 mark 0
AnchorPoint: "Anchor-9" 589.815 1342.68 mark 0
AnchorPoint: "Anchor-1" 560.134 1778.24 basemark 0
AnchorPoint: "Anchor-1" 589.815 1342.68 mark 0
LayerCount: 2
Fore
SplineSet
342.797851562 1621.32324219 m 1,0,1
 344.483398438 1542.14941406 l 2,2,3
 346 1455 346 1455 420.564453125 1457.71484375 c 4,4,5
 502.239207775 1460.00671239 502.239207775 1460.00671239 502.795898438 1560.97363281 c 2,6,7
 503.463867188 1682.12304688 l 1,8,9
 539 1694 539 1694 597.237304688 1699.6484375 c 1,10,11
 598.9296875 1612.25683594 l 2,12,13
 601 1519 601 1519 684.334960938 1518.70898438 c 0,14,15
 759.314237553 1519.00122478 759.314237553 1519.00122478 755.328125 1625.05664062 c 2,16,17
 752.662109375 1695.98925781 l 1,18,19
 831 1747 831 1747 846.057617188 1757.20019531 c 1,20,21
 850.794921875 1699.18945312 l 2,22,23
 877 1380 877 1380 699.999023438 1380.79101562 c 0,24,25
 623 1381 623 1381 569.970703125 1434.99414062 c 1,26,27
 522 1319 522 1319 406.82421875 1319.9921875 c 0,28,29
 234.961843877 1321.0002238 234.961843877 1321.0002238 253.830078125 1581.76074219 c 2,30,-1
 259.16015625 1655.42285156 l 1,31,32
 323 1630 323 1630 342.797851562 1621.32324219 c 1,0,1
348.555664062 1449.36523438 m 1024,33,-1
EndSplineSet
EndChar

StartChar: uni0652
Encoding: 1618 1618 50
Width: -31
VWidth: 2789
GlyphClass: 4
Flags: W
AnchorPoint: "Anchor-10" 731.878 1488.92 mark 0
AnchorPoint: "Anchor-9" 731.878 1488.92 mark 0
AnchorPoint: "Anchor-1" 714.956 2018.45 basemark 0
AnchorPoint: "Anchor-1" 731.878 1488.92 mark 0
LayerCount: 2
Fore
SplineSet
720.7421875 1631.81347656 m 0,0,1
 747.363081253 1631.81347656 747.363081253 1631.81347656 769.587359599 1640.85230221 c 128,-1,2
 791.811637945 1649.89112786 791.811637945 1649.89112786 810.010501757 1668.09328831 c 128,-1,3
 828.217605351 1686.29897864 828.217605351 1686.29897864 837.253333926 1708.33818456 c 128,-1,4
 846.2890625 1730.37739049 846.2890625 1730.37739049 846.2890625 1756.6171875 c 0,5,6
 846.2890625 1769.74664425 846.2890625 1769.74664425 844.034257195 1781.80248371 c 128,-1,7
 841.779451891 1793.85832317 841.779451891 1793.85832317 837.249269275 1804.90638027 c 128,-1,8
 832.719086659 1815.95443736 832.719086659 1815.95443736 825.918393824 1825.99660381 c 128,-1,9
 819.11770099 1836.03877026 819.11770099 1836.03877026 810.011295355 1845.1451759 c 0,10,11
 791.810357452 1863.34658474 791.810357452 1863.34658474 769.584654362 1872.38520643 c 128,-1,12
 747.358951272 1881.42382812 747.358951272 1881.42382812 720.73828125 1881.42382812 c 0,13,14
 707.41302264 1881.42382812 707.41302264 1881.42382812 695.233900348 1879.18928914 c 128,-1,15
 683.054778056 1876.95475016 683.054778056 1876.95475016 671.962288601 1872.46794674 c 128,-1,16
 660.869799145 1867.98114331 660.869799145 1867.98114331 650.858924251 1861.25318597 c 128,-1,17
 640.848049358 1854.52522864 640.848049358 1854.52522864 631.843104897 1845.5191074 c 0,18,19
 613.832351415 1827.50882458 613.832351415 1827.50882458 604.884925708 1805.37704382 c 128,-1,20
 595.9375 1783.24526307 595.9375 1783.24526307 595.9375 1756.61914062 c 128,-1,21
 595.9375 1729.99247545 595.9375 1729.99247545 604.884760501 1707.86039004 c 128,-1,22
 613.832021002 1685.72830462 613.832021002 1685.72830462 631.842220728 1667.7181049 c 0,23,24
 643.850922685 1655.70908911 643.850922685 1655.70908911 657.66454688 1647.74164308 c 128,-1,25
 671.478171074 1639.77419704 671.478171074 1639.77419704 687.228259153 1635.7938368 c 128,-1,26
 702.978347231 1631.81347656 702.978347231 1631.81347656 720.7421875 1631.81347656 c 0,0,1
925.496180948 1757.11039035 m 0,27,28
 924.987862551 1670.92740767 924.987862551 1670.92740767 866.309991262 1611.81908984 c 0,29,30
 807.078687999 1551.99289971 807.078687999 1551.99289971 721.462898188 1552.28415073 c 0,31,32
 635.923130738 1551.99289956 635.923130738 1551.99289956 576.636329149 1611.80132409 c 0,33,34
 516.989316232 1670.92664593 516.989316232 1670.92664593 517.430598349 1757.09323326 c 0,35,36
 517.210714313 1799.93347424 517.210714313 1799.93347424 532.045470368 1836.27558539 c 128,-1,37
 546.880226423 1872.61769654 546.880226423 1872.61769654 576.604084034 1901.99250793 c 0,38,39
 635.933360303 1960.99639877 635.933360303 1960.99639877 721.471541333 1961.14452377 c 0,40,41
 738.538811314 1961.11499493 738.538811314 1961.11499493 754.596952325 1958.72592362 c 128,-1,42
 770.655093337 1956.33685231 770.655093337 1956.33685231 785.681467498 1951.59006314 c 128,-1,43
 800.70784166 1946.84327397 800.70784166 1946.84327397 814.684862726 1939.74968877 c 128,-1,44
 828.661883791 1932.65610356 828.661883791 1932.65610356 841.58442479 1923.20717319 c 128,-1,45
 854.506965789 1913.75824282 854.506965789 1913.75824282 866.339929565 1901.97526284 c 0,46,47
 885.846520142 1882.38541892 885.846520142 1882.38541892 898.947214564 1859.69292463 c 128,-1,48
 912.047908986 1837.00043033 912.047908986 1837.00043033 918.687603268 1811.33453487 c 128,-1,49
 925.32729755 1785.66863942 925.32729755 1785.66863942 925.496180948 1757.11039035 c 0,27,28
EndSplineSet
EndChar

StartChar: uni0653
Encoding: 1619 1619 51
Width: -3
VWidth: 2759
GlyphClass: 4
Flags: W
AnchorPoint: "Anchor-10" 485.314 1565.6 mark 0
AnchorPoint: "Anchor-9" 485.314 1565.6 mark 0
AnchorPoint: "Anchor-1" 455.074 2023.52 basemark 0
AnchorPoint: "Anchor-1" 485.314 1565.6 mark 0
LayerCount: 2
Fore
SplineSet
362.12890625 1670.21582031 m 1,0,1
 268 1662 268 1662 177.368164062 1582.37890625 c 1,2,3
 150 1600 150 1600 134.283203125 1620.86230469 c 1,4,5
 215 1831 215 1831 314.73828125 1831.14941406 c 4,6,7
 384 1831 384 1831 465.94140625 1820.47558594 c 132,-1,8
 548 1810 548 1810 582.85546875 1809.96875 c 4,9,10
 708 1810 708 1810 757.977539062 1822.60351562 c 4,11,12
 811 1836 811 1836 820.592773438 1829.48730469 c 5,13,14
 833 1816 833 1816 801.384765625 1769.48925781 c 4,15,16
 776 1733 776 1733 728.657226562 1698.57617188 c 0,17,18
 653 1645 653 1645 362.12890625 1670.21582031 c 1,0,1
EndSplineSet
EndChar

StartChar: uni0657
Encoding: 1623 1623 54
Width: -34
VWidth: 3005
GlyphClass: 4
Flags: W
AnchorPoint: "Anchor-10" 743.995 1752.27 mark 0
AnchorPoint: "Anchor-9" 743.995 1752.27 mark 0
AnchorPoint: "Anchor-1" 743.995 2711.73 basemark 0
AnchorPoint: "Anchor-1" 743.995 1752.27 mark 0
LayerCount: 2
Fore
SplineSet
346.939453125 2337.88791595 m 1,0,1
 417.403375079 2335.96334391 417.403375079 2335.96334391 513.786977564 2326.01391817 c 1,2,3
 596.644642021 2449.75296673 596.644642021 2449.75296673 711.51958869 2521.26743707 c 0,4,5
 871.884004803 2620.16984344 871.884004803 2620.16984344 1014.69238281 2633.57649374 c 1,6,-1
 1014.69238281 2539.58189734 l 1,7,8
 895.963038063 2530.16866458 895.963038063 2530.16866458 724.589569309 2399.0105334 c 0,9,10
 688.65353045 2370.90141887 688.65353045 2370.90141887 658.857611413 2339.53569478 c 2,11,-1
 617.522009126 2296.02409756 l 1,12,-1
 676.403024639 2282.92686625 l 2,13,14
 686.237733178 2280.75670371 686.237733178 2280.75670371 733.408748699 2256.07347266 c 0,15,16
 830.209071663 2204.53763515 830.209071663 2204.53763515 848.677334118 2108.90087834 c 128,-1,17
 867.145596573 2013.26412154 867.145596573 2013.26412154 810.16577341 1943.09467376 c 128,-1,18
 753.185950247 1872.92522599 753.185950247 1872.92522599 653.797822658 1873.45370496 c 128,-1,19
 554.409695068 1873.98218393 554.409695068 1873.98218393 494.203509735 1932.07586924 c 128,-1,20
 433.997324401 1990.16955456 433.997324401 1990.16955456 434.028319766 2093.24464192 c 0,21,22
 433.997294914 2135.23096282 433.997294914 2135.23096282 453.159700588 2196.82184085 c 2,23,-1
 466.05073013 2238.25410581 l 1,24,-1
 422.730291066 2240.81188851 l 2,25,26
 386.110891581 2242.99392773 386.110891581 2242.99392773 346.939453125 2243.61609684 c 1,27,-1
 346.939453125 2337.88791595 l 1,0,1
627.271484375 1967.77539062 m 0,28,29
 752.862304688 1967.77539062 752.862304688 1967.77539062 752.862304688 2075.53710938 c 0,30,31
 752.862304688 2153.13917103 752.862304688 2153.13917103 665.095793259 2188.2493423 c 0,32,33
 634.607589685 2200.45363058 634.607589685 2200.45363058 565.395678366 2221.77574768 c 1,34,-1
 544.508414709 2173.05059243 l 2,35,36
 528.478515625 2135.65078296 528.478515625 2135.65078296 528.478515625 2093.93759995 c 0,37,38
 528.478515625 2052.22441695 528.478515625 2052.22441695 545.744264664 2022.14173716 c 0,39,40
 576.947458757 1967.77539062 576.947458757 1967.77539062 627.271484375 1967.77539062 c 0,28,29
EndSplineSet
EndChar

StartChar: uni065A
Encoding: 1626 1626 55
Width: 1473
VWidth: 3008
GlyphClass: 4
Flags: W
AnchorPoint: "Anchor-10" 743.995 1755.27 mark 0
AnchorPoint: "Anchor-9" 743.995 1755.27 mark 0
AnchorPoint: "Anchor-1" 741.044 2419.52 basemark 0
AnchorPoint: "Anchor-1" 743.995 1755.27 mark 0
LayerCount: 2
Fore
SplineSet
652.322265625 1877.75097656 m 1,0,-1
 401.5234375 2297.03613281 l 1,1,-1
 535.5390625 2297.03613281 l 1,2,-1
 743.995117188 1984.34179688 l 1,3,-1
 952.453125 2297.03613281 l 1,4,-1
 1086.47070312 2297.03613281 l 1,5,-1
 835.666992188 1877.75097656 l 1,6,-1
 652.322265625 1877.75097656 l 1,0,-1
EndSplineSet
EndChar

StartChar: afii57392
Encoding: 1632 1632 56
Width: 897
VWidth: 3201
GlyphClass: 2
Flags: W
LayerCount: 2
Fore
SplineSet
451.256835938 808.629882812 m 5,0,-1
 664.725585938 595.161132812 l 5,1,-1
 445.84765625 376.283203125 l 5,2,-1
 232.37890625 589.752929688 l 5,3,-1
 451.256835938 808.629882812 l 5,0,-1
EndSplineSet
EndChar

StartChar: afii57393
Encoding: 1633 1633 57
Width: 731
VWidth: 3192
GlyphClass: 2
Flags: W
LayerCount: 2
Fore
SplineSet
447.7734375 848.020507812 m 4,0,1
 505 576 505 576 506.737304688 149.875 c 4,2,3
 507 64 507 64 496.20703125 43.439453125 c 4,4,5
 491 33 491 33 393.61328125 7.548828125 c 5,6,7
 392 659 392 659 145.161132812 1221.36523438 c 5,8,-1
 255 1357 l 6,9,10
 280 1388 280 1388 300 1340 c 4,11,12
 391 1119 391 1119 447.7734375 848.020507812 c 4,0,1
EndSplineSet
EndChar

StartChar: afii57394
Encoding: 1634 1634 58
Width: 1095
VWidth: 3192
GlyphClass: 2
Flags: W
LayerCount: 2
Fore
SplineSet
457.7734375 808.020507812 m 1,0,1
 506 579 506 579 506.737304688 149.875 c 0,2,3
 507 64 507 64 496.20703125 43.439453125 c 0,4,5
 491 33 491 33 393.61328125 7.548828125 c 1,6,7
 393 658 393 658 145.827148438 1222.97460938 c 1,8,-1
 252 1355 l 2,9,10
 280 1390 280 1390 297 1345 c 0,11,12
 321 1280 321 1280 366.79296875 1164.97558594 c 0,13,14
 433 997 433 997 601.317382812 997.434570312 c 0,15,16
 824.009409846 996.999981636 824.009409846 996.999981636 854.557617188 1293.85839844 c 6,17,-1
 859.456054688 1341.45996094 l 5,18,-1
 981.645507812 1341.45996094 l 5,19,-1
 979.405273438 1286.97363281 l 6,20,21
 959 793 959 793 579.541015625 794.7734375 c 0,22,23
 514 795 514 795 457.7734375 808.020507812 c 1,0,1
EndSplineSet
EndChar

StartChar: afii57395
Encoding: 1635 1635 59
Width: 1295
VWidth: 3192
GlyphClass: 2
Flags: W
LayerCount: 2
Fore
SplineSet
366.79296875 1164.97558594 m 0,0,1
 434 997 434 997 544.548828125 997.444335938 c 0,2,3
 686.38273136 998.001503487 686.38273136 998.001503487 697.673828125 1195.43945312 c 2,4,-1
 703.778320312 1302.18359375 l 1,5,-1
 826.91796875 1302.1796875 l 1,6,-1
 831.6328125 1189.51074219 l 2,7,8
 840 996 840 996 951.743164062 995.64453125 c 0,9,10
 1057.13091246 996.000442112 1057.13091246 996.000442112 1075.55371094 1234.04199219 c 6,11,-1
 1082.67675781 1326.07910156 l 1,12,-1
 1204.74707031 1326.08007812 l 1,13,-1
 1204.61523438 1268.93945312 l 2,14,15
 1204 817 1204 817 933.176757812 816.4140625 c 0,16,17
 799 816 799 816 727.791992188 915.0078125 c 1,18,19
 656 801 656 801 516.26953125 803.486328125 c 0,20,21
 486 804 486 804 457.7734375 808.020507812 c 1,22,23
 506 579 506 579 506.737304688 149.875 c 0,24,25
 507 64 507 64 496.20703125 43.439453125 c 0,26,27
 491 33 491 33 393.61328125 7.548828125 c 1,28,29
 393 658 393 658 145.827148438 1222.97460938 c 1,30,-1
 252 1355 l 2,31,32
 280 1390 280 1390 297 1345 c 0,33,34
 321 1280 321 1280 366.79296875 1164.97558594 c 0,0,1
EndSplineSet
EndChar

StartChar: afii57396
Encoding: 1636 1636 60
Width: 991
VWidth: 3198
GlyphClass: 2
Flags: W
LayerCount: 2
Fore
SplineSet
285.868164062 317.783203125 m 5,0,1
 503.928710938 228.483398438 503.928710938 228.483398438 853.866210938 240.00390625 c 5,2,-1
 849.522460938 60.3984375 l 6,3,4
 848.447265625 4.6884765625 848.447265625 4.6884765625 804.1875 6.896484375 c 4,5,6
 440.52734375 23.830078125 440.52734375 23.830078125 190.844726562 188.487304688 c 4,7,8
 117.262695312 237.404296875 117.262695312 237.404296875 152.114257812 298.624023438 c 4,9,10
 270.2265625 509.081054688 270.2265625 509.081054688 498.111328125 633.904296875 c 5,11,12
 284.126953125 726.407226562 284.126953125 726.407226562 195.875 829.651367188 c 4,13,14
 130.708007812 904.71484375 130.708007812 904.71484375 146.05078125 949.676757812 c 4,15,16
 210.32421875 1148.58203125 210.32421875 1148.58203125 696.075195312 1357.875 c 4,17,18
 731.268554688 1373.0078125 731.268554688 1373.0078125 734.65625 1359.72949219 c 4,19,20
 737.184570312 1349.80957031 737.184570312 1349.80957031 731.428710938 1322.83105469 c 6,21,-1
 709.149414062 1218.37304688 l 6,22,23
 695.290039062 1153.38574219 695.290039062 1153.38574219 681.697265625 1089.32421875 c 5,24,25
 444.337890625 1076.28417969 444.337890625 1076.28417969 278.137695312 1007.65722656 c 5,26,27
 463.8828125 851.575195312 463.8828125 851.575195312 741.173828125 729.940429688 c 5,28,-1
 741.169921875 728.014648438 l 6,29,30
 741.083007812 688.778320312 741.083007812 688.778320312 740.05078125 645.622070312 c 5,31,32
 420.963867188 507.657226562 420.963867188 507.657226562 285.868164062 317.783203125 c 5,0,1
EndSplineSet
EndChar

StartChar: afii57397
Encoding: 1637 1637 61
Width: 1155
VWidth: 3521
GlyphClass: 2
Flags: W
LayerCount: 2
Fore
SplineSet
575.083984375 1005.37695312 m 5,0,1
 260.649414062 645.939453125 260.649414062 645.939453125 260.649414062 449.29296875 c 4,2,3
 260.649414062 216.416992188 260.649414062 216.416992188 559.005859375 216.416992188 c 4,4,5
 912.870117188 216.416992188 912.870117188 216.416992188 912.870117188 446.188476562 c 4,6,7
 912.870117188 696.848632812 912.870117188 696.848632812 575.083984375 1005.37695312 c 5,0,1
168.6171875 192.970703125 m 4,8,9
 120.8671875 273.374023438 120.8671875 273.374023438 120.8671875 377.942382812 c 4,10,11
 120.8671875 485.7890625 120.8671875 485.7890625 171.657226562 619.337890625 c 4,12,13
 252.619140625 832.22265625 252.619140625 832.22265625 446.086914062 1058.11523438 c 6,14,-1
 472.235351562 1088.64550781 l 5,15,-1
 393.828125 1147.45214844 l 5,16,-1
 518.092773438 1360.69238281 l 5,17,18
 1034.23535156 879.264648438 1034.23535156 879.264648438 1034.23535156 434.078125 c 4,19,20
 1034.23535156 212.92578125 1034.23535156 212.92578125 886.911132812 95.6064453125 c 4,21,22
 778.083984375 9.13671875 778.083984375 9.13671875 569.436523438 9.13671875 c 4,23,24
 277.909179688 9.13671875 277.909179688 9.13671875 168.6171875 192.970703125 c 4,8,9
EndSplineSet
EndChar

StartChar: afii57398
Encoding: 1638 1638 62
Width: 1228
VWidth: 3201
GlyphClass: 2
Flags: W
LayerCount: 2
Fore
SplineSet
900.790039062 1316.5625 m 5,0,1
 920 352 920 352 1108.42871094 152.818359375 c 5,2,-1
 982.625976562 5.7109375 l 5,3,4
 887 102 887 102 831.220703125 320.23828125 c 4,5,6
 775 539 775 539 766.083984375 1116.27929688 c 5,7,8
 317 1079 317 1079 191.764648438 1151.45800781 c 4,9,10
 150 1176 150 1176 147.368164062 1341.57324219 c 4,11,12
 147 1374 147 1374 172.750976562 1364.79003906 c 4,13,14
 455 1258 455 1258 900.790039062 1316.5625 c 5,0,1
EndSplineSet
EndChar

StartChar: afii57399
Encoding: 1639 1639 63
Width: 1203
VWidth: 3202
GlyphClass: 2
Flags: W
LayerCount: 2
Fore
SplineSet
1102.85058594 1210.16992188 m 5,0,1
 801 681 801 681 667.041992188 9.7314453125 c 5,2,-1
 556.290039062 9.7314453125 l 5,3,4
 438 631 438 631 100.879882812 1211.49804688 c 5,5,-1
 198.580078125 1375.19824219 l 6,6,7
 206.227539062 1388.64257812 206.227539062 1388.64257812 218.03515625 1369.60546875 c 4,8,9
 519 865 519 865 611.544921875 363.686523438 c 5,10,11
 741.8125 973.16015625 741.8125 973.16015625 964.40625 1364.61132812 c 4,12,13
 976 1385 976 1385 986.2578125 1373.78027344 c 5,14,-1
 1102.85058594 1210.16992188 l 5,0,1
EndSplineSet
EndChar

StartChar: afii57400
Encoding: 1640 1640 64
Width: 1203
VWidth: 3202
GlyphClass: 2
Flags: W
LayerCount: 2
Fore
SplineSet
1102.85058594 164.759765625 m 5,0,1
 986.2578125 1.1494140625 l 5,2,3
 976 -10.0703125 976 -10.0703125 964.40625 10.318359375 c 4,4,5
 741.8125 401.76953125 741.8125 401.76953125 611.544921875 1011.24316406 c 5,6,7
 519 509.9296875 519 509.9296875 218.03515625 5.32421875 c 4,8,9
 206.227539062 -13.712890625 206.227539062 -13.712890625 198.580078125 -0.2685546875 c 6,10,-1
 100.879882812 163.431640625 l 5,11,12
 438 743.9296875 438 743.9296875 556.290039062 1365.19824219 c 5,13,-1
 667.041992188 1365.19824219 l 5,14,15
 801 693.9296875 801 693.9296875 1102.85058594 164.759765625 c 5,0,1
EndSplineSet
EndChar

StartChar: afii57401
Encoding: 1641 1641 65
Width: 1039
VWidth: 3202
GlyphClass: 2
Flags: W
LayerCount: 2
Fore
SplineSet
648.711914062 658.280273438 m 1,0,1
 545 642 545 642 462.115234375 641.609375 c 0,2,3
 134 642 134 642 130.8671875 913.969726562 c 16,4,5
 130 988 130 988 152.73828125 1082 c 0,6,7
 223 1374 223 1374 441.413085938 1374.1484375 c 0,8,9
 565 1374 565 1374 644.024414062 1284.21191406 c 0,10,11
 756 1157 756 1157 768.05859375 865.52734375 c 0,12,13
 792 299 792 299 949.734375 152.061523438 c 1,14,-1
 825.612304688 5.9990234375 l 1,15,16
 763 60 763 60 723.923828125 158.674804688 c 0,17,18
 660 318 660 318 648.711914062 658.280273438 c 1,0,1
319.877929688 853.94140625 m 0,19,20
 369 832 369 832 444.59765625 832.33203125 c 0,21,22
 523 832 523 832 628.646484375 855.412109375 c 1,23,-1
 622.950195312 914.599609375 l 2,24,25
 598 1174 598 1174 430.46484375 1173.91699219 c 0,26,27
 362 1174 362 1174 319.006835938 1109.77636719 c 0,28,29
 274 1042 274 1042 274 951 c 0,30,31
 274 874 274 874 319.877929688 853.94140625 c 0,19,20
EndSplineSet
EndChar

StartChar: afii57381
Encoding: 1642 1642 66
Width: 1154
VWidth: 3432
GlyphClass: 2
Flags: W
LayerCount: 2
Fore
SplineSet
693.860351562 289.670898438 m 4,0,1
 693.860351562 353.270507812 693.860351562 353.270507812 738.379882812 398.850585938 c 4,2,3
 785.020507812 444.430664062 785.020507812 444.430664062 848.620117188 444.430664062 c 4,4,5
 891.020507812 444.430664062 891.020507812 444.430664062 926 423.23046875 c 4,6,7
 962.040039062 402.030273438 962.040039062 402.030273438 982.180664062 367.05078125 c 4,8,9
 1003.37988281 332.0703125 1003.37988281 332.0703125 1003.37988281 289.670898438 c 4,10,11
 1003.37988281 226.0703125 1003.37988281 226.0703125 957.799804688 179.430664062 c 4,12,13
 912.220703125 134.911132812 912.220703125 134.911132812 848.620117188 134.911132812 c 4,14,15
 806.220703125 134.911132812 806.220703125 134.911132812 770.180664062 155.05078125 c 4,16,17
 734.140625 176.250976562 734.140625 176.250976562 714 211.23046875 c 4,18,19
 693.860351562 247.270507812 693.860351562 247.270507812 693.860351562 289.670898438 c 4,0,1
150.024414062 1116.92871094 m 4,20,21
 150 1181 150 1181 194.543945312 1226.10839844 c 4,22,23
 241 1272 241 1272 304.784179688 1271.68847656 c 4,24,25
 347 1272 347 1272 382.1640625 1250.48828125 c 4,26,27
 418 1229 418 1229 438.344726562 1194.30859375 c 4,28,29
 460 1159 460 1159 459.543945312 1116.92871094 c 4,30,31
 460 1053 460 1053 413.963867188 1006.68847656 c 4,32,33
 368 962 368 962 304.784179688 962.168945312 c 4,34,35
 262 962 262 962 226.344726562 982.30859375 c 4,36,37
 190 1004 190 1004 170.1640625 1038.48828125 c 4,38,39
 150 1075 150 1075 150.024414062 1116.92871094 c 4,20,21
823 1371.96875 m 5,40,-1
 967.3828125 1297.58300781 l 5,41,-1
 304.471679688 15.5849609375 l 5,42,-1
 160.638671875 94.6279296875 l 5,43,-1
 823 1371.96875 l 5,40,-1
EndSplineSet
EndChar

StartChar: uni066B
Encoding: 1643 1643 67
Width: 822
VWidth: 2952
GlyphClass: 2
Flags: W
LayerCount: 2
Fore
SplineSet
582.755859375 768.005859375 m 5,0,-1
 714.05859375 712.266601562 l 5,1,-1
 199.7890625 -359.061523438 l 5,2,-1
 66.3642578125 -300.9921875 l 5,3,-1
 582.755859375 768.005859375 l 5,0,-1
EndSplineSet
PairPos2: "'kern' Horizontal Kerning lookup 15-5" uni06F4 dx=-110 dy=0 dh=-110 dv=0 dx=0 dy=0 dh=0 dv=0
PairPos2: "'kern' Horizontal Kerning lookup 15-5" uni06F3 dx=-130 dy=0 dh=-130 dv=0 dx=0 dy=0 dh=0 dv=0
PairPos2: "'kern' Horizontal Kerning lookup 15-5" uni06F2 dx=-130 dy=0 dh=-130 dv=0 dx=0 dy=0 dh=0 dv=0
EndChar

StartChar: uni066C
Encoding: 1644 1644 68
Width: 503
VWidth: 3048
GlyphClass: 2
Flags: W
LayerCount: 2
Fore
SplineSet
230.914903429 235.369007396 m 4,0,1
 362.322121131 235.369007396 362.322121131 235.369007396 362.322121131 73.9179816984 c 4,2,3
 362.322121131 -145.836904185 362.322121131 -145.836904185 142.224609375 -277.251953125 c 4,4,5
 118.447027805 -291.525333839 118.447027805 -291.525333839 102.040245048 -291.525333839 c 4,6,7
 86.5515584621 -291.525333839 86.5515584621 -291.525333839 77.6318359375 -278.8046875 c 4,8,9
 69 -266 69 -266 88.89453125 -251.387695312 c 4,10,11
 241 -134 241 -134 241.625 2.53125 c 5,12,-1
 217.936523438 3.2119140625 l 6,13,14
 157.961809726 4.91585219469 157.961809726 4.91585219469 126.971679688 47.0078125 c 4,15,16
 106.340459074 75.0299123754 106.340459074 75.0299123754 106.340459074 111.334463952 c 4,17,18
 106.340459074 124.251396016 106.340459074 124.251396016 108.952148438 138.216796875 c 4,19,20
 127.068811431 235.369007396 127.068811431 235.369007396 230.914903429 235.369007396 c 4,0,1
EndSplineSet
PairPos2: "'kern' Horizontal Kerning lookup 15-5" uni06F4 dx=-112 dy=0 dh=-112 dv=0 dx=0 dy=0 dh=0 dv=0
PairPos2: "'kern' Horizontal Kerning lookup 15-5" uni06F3 dx=-128 dy=0 dh=-128 dv=0 dx=0 dy=0 dh=0 dv=0
PairPos2: "'kern' Horizontal Kerning lookup 15-5" uni06F2 dx=-112 dy=0 dh=-112 dv=0 dx=0 dy=0 dh=0 dv=0
EndChar

StartChar: afii63167
Encoding: 1645 1645 69
Width: 1734
VWidth: 3186
GlyphClass: 2
Flags: W
LayerCount: 2
Fore
SplineSet
218.536132812 1158.84375 m 1,0,-1
 714.16015625 1158.84375 l 1,1,-1
 868.931640625 1630.06054688 l 1,2,-1
 1023.70019531 1158.84375 l 1,3,-1
 1519.328125 1158.84375 l 1,4,-1
 1118.91503906 866.131835938 l 1,5,-1
 1272.1015625 395.526367188 l 1,6,-1
 868.931640625 686.861328125 l 1,7,-1
 465.758789062 395.526367188 l 1,8,-1
 618.944335938 866.131835938 l 1,9,-1
 218.536132812 1158.84375 l 1,0,-1
EndSplineSet
EndChar

StartChar: uni066E
Encoding: 1646 1646 70
Width: 1788
VWidth: 3745
GlyphClass: 2
Flags: W
AnchorPoint: "Anchor-10" 777.906 1271.55 basechar 0
AnchorPoint: "Anchor-7" 635.812 -212.49 basechar 0
LayerCount: 2
Fore
SplineSet
276.423828125 732.236328125 m 1,0,1
 243 608 243 608 243 516.235351562 c 0,2,3
 243 425 243 425 289.510742188 355.677734375 c 0,4,5
 411 180 411 180 834.504882812 179.982421875 c 4,6,7
 1356 180 1356 180 1516.56835938 311.3046875 c 0,8,9
 1536 327 1536 327 1536.00390625 375.926757812 c 0,10,11
 1536 430 1536 430 1465 639 c 1,12,-1
 1574.24121094 767.98046875 l 2,13,14
 1591 788 1591 788 1613.24121094 744.98046875 c 0,15,16
 1687 604 1687 604 1687.26367188 450.703125 c 0,17,18
 1687 337 1687 337 1644.35449219 247.594726562 c 0,19,20
 1526 2 1526 2 834.224609375 2 c 0,21,22
 486 2 486 2 307.02734375 100.59375 c 0,23,24
 104 213 104 213 104.250976562 457.258789062 c 0,25,26
 104 626 104 626 174.85546875 766.762695312 c 1,27,-1
 276.423828125 732.236328125 l 1,0,1
EndSplineSet
Substitution2: "'init' Initial Forms in Arabic lookup 13 subtable" uni066E.init
Substitution2: "'medi' Medial Forms in Arabic lookup 11 subtable" uni066E.medi
Substitution2: "'fina' Terminal Forms in Arabic lookup 9 subtable" uni066E.fina
EndChar

StartChar: uni066F
Encoding: 1647 1647 71
Width: 1390
VWidth: 3773
GlyphClass: 2
Flags: W
AnchorPoint: "Anchor-10" 537.298 1166.3 basechar 0
AnchorPoint: "Anchor-7" 557.936 -696.213 basechar 0
LayerCount: 2
Fore
SplineSet
971.793945312 563.5078125 m 4,0,1
 856.849609375 563.091796875 856.849609375 563.091796875 821.94140625 424.169921875 c 4,2,3
 814.849609375 396.091796875 814.849609375 396.091796875 815.095703125 372.4453125 c 4,4,5
 814.849609375 296.091796875 814.849609375 296.091796875 889.177734375 276.470703125 c 4,6,7
 927.849609375 266.091796875 927.849609375 266.091796875 974.926757812 266.247070312 c 4,8,9
 1012.84960938 266.091796875 1012.84960938 266.091796875 1055.14453125 272.752929688 c 4,10,11
 1115.84960938 282.091796875 1115.84960938 282.091796875 1149.3125 297.861328125 c 5,12,13
 1138.84960938 437.091796875 1138.84960938 437.091796875 1091.97070312 498.970703125 c 4,14,15
 1043.84960938 563.091796875 1043.84960938 563.091796875 971.793945312 563.5078125 c 4,0,1
660.970703125 -437.53125 m 4,16,17
 448 -438 448 -438 302.004882812 -345.916015625 c 4,18,19
 102 -219 102 -219 101.669921875 66.2431640625 c 4,20,21
 102 270 102 270 199.797851562 486.2734375 c 5,22,-1
 310.059570312 453.734375 l 5,23,24
 253 266 253 266 252.885742188 114.515625 c 4,25,26
 253 -258 253 -258 667.818359375 -257.944335938 c 4,27,28
 991 -258 991 -258 1113.20117188 -58.7724609375 c 4,29,30
 1146 -5 1146 -5 1150.0390625 103.715820312 c 5,31,32
 941 59 941 59 812.21484375 112.594726562 c 4,33,34
 684 166 684 166 684.176757812 317.1328125 c 4,35,36
 685 430 685 430 719.049804688 521.091796875 c 4,37,38
 806 752 806 752 979.713867188 752.084960938 c 4,39,40
 1095 752 1095 752 1168 667.349609375 c 4,41,42
 1290 526 1290 526 1290 190 c 12,43,44
 1290 -108 1290 -108 1177.30566406 -240.540039062 c 4,45,46
 1011 -436 1011 -436 660.970703125 -437.53125 c 4,16,17
EndSplineSet
Substitution2: "'init' Initial Forms in Arabic lookup 13 subtable" uni066F.init
Substitution2: "'medi' Medial Forms in Arabic lookup 11 subtable" uni066F.medi
Substitution2: "'fina' Terminal Forms in Arabic lookup 9 subtable" uni066F.fina
EndChar

StartChar: uni0670
Encoding: 1648 1648 72
Width: 0
VWidth: 2975
GlyphClass: 4
Flags: W
AnchorPoint: "Anchor-10" 756.062 1750.01 mark 0
AnchorPoint: "Anchor-9" 756.062 1750.01 mark 0
AnchorPoint: "Anchor-1" 744.304 2347.37 basemark 0
AnchorPoint: "Anchor-1" 756.062 1750.01 mark 0
LayerCount: 2
Fore
SplineSet
738.67578125 1809.56933594 m 1,0,-1
 684.276367188 2193.83203125 l 5,1,-1
 804.50390625 2264.63378906 l 5,2,-1
 804.50390625 1831.46679688 l 1,3,-1
 738.67578125 1809.56933594 l 1,0,-1
EndSplineSet
EndChar

StartChar: uni0674
Encoding: 1652 1652 73
Width: 802
VWidth: 2756
GlyphClass: 2
Flags: W
LayerCount: 2
Fore
SplineSet
200 1791 m 1,0,-1
 221.146484375 1925.98632812 l 1,1,2
 269 1947 269 1947 316.619140625 1968.37402344 c 1,3,4
 210.905273438 1989.77929688 210.905273438 1989.77929688 210.905273438 2098.83886719 c 0,5,6
 210.905273438 2115.24707031 210.905273438 2115.24707031 213.297851562 2133.63964844 c 0,7,8
 241.799804688 2345.50976562 241.799804688 2345.50976562 413.3359375 2345.50976562 c 0,9,10
 414.54296875 2345.50976562 414.54296875 2345.50976562 415.756835938 2345.49902344 c 0,11,12
 491 2345 491 2345 565.873046875 2272.95019531 c 1,13,-1
 530.676757812 2192.19726562 l 1,14,15
 465.807617188 2212.1796875 465.807617188 2212.1796875 417.979492188 2212.1796875 c 0,16,17
 346.602539062 2212.1796875 346.602539062 2212.1796875 313.178710938 2167.67675781 c 0,18,19
 297 2146 297 2146 309.153320312 2117.02734375 c 0,20,21
 339.397460938 2045.9609375 339.397460938 2045.9609375 433.291992188 2045.9609375 c 0,22,23
 475.51953125 2045.9609375 475.51953125 2045.9609375 530.62109375 2060.33496094 c 0,24,25
 586.041992188 2075.01074219 586.041992188 2075.01074219 586 2057 c 2,26,-1
 585.750976562 1950.01269531 l 1,27,28
 470 1920 470 1920 200 1791 c 1,0,-1
EndSplineSet
EndChar

StartChar: uni06A1
Encoding: 1697 1697 77
Width: 1728
VWidth: 3773
GlyphClass: 2
Flags: W
AnchorPoint: "Anchor-10" 739.706 1448.19 basechar 0
AnchorPoint: "Anchor-7" 613.293 -197.962 basechar 0
LayerCount: 2
Fore
SplineSet
1482.07324219 396.609375 m 1,0,1
 1379 375 1379 375 1312.02539062 375.303710938 c 0,2,3
 1193 375 1193 375 1144.24902344 394.48828125 c 0,4,5
 1016 448 1016 448 1016.20996094 588.258789062 c 0,6,7
 1016 700 1016 700 1051.08398438 792.985351562 c 0,8,9
 1139 1024 1139 1024 1311.74804688 1023.97851562 c 0,10,11
 1428 1024 1428 1024 1497.04394531 937.787109375 c 0,12,13
 1627 776 1627 776 1626.42773438 484.728515625 c 0,14,15
 1626 304 1626 304 1577.88378906 211.7734375 c 0,16,17
 1468.9811608 1.96370474732 1468.9811608 1.96370474732 1079.34570312 1.9853515625 c 2,18,-1
 815.678710938 2 l 0,19,20
 477 2 477 2 305.037109375 98.587890625 c 0,21,22
 104 212 104 212 104.243164062 454.830078125 c 0,23,24
 104 625 104 625 174.85546875 766.762695312 c 1,25,-1
 276.431640625 732.233398438 l 1,26,27
 244 613 244 613 243.690429688 523.778320312 c 0,28,29
 244 424 244 424 284.80859375 362.3515625 c 0,30,31
 407 179 407 179 818.309570312 180.650390625 c 0,32,33
 966 181 966 181 1074.890625 181.984375 c 0,34,35
 1485 182 1485 182 1482.16113281 389.291015625 c 6,36,-1
 1482.07324219 396.609375 l 1,0,1
1303.828125 835.401367188 m 0,37,38
 1189 835 1189 835 1153.97558594 696.063476562 c 0,39,40
 1147 668 1147 668 1147.12988281 644.338867188 c 0,41,42
 1147 583 1147 583 1221.21191406 563.364257812 c 0,43,44
 1260 553 1260 553 1306.9609375 553.140625 c 0,45,46
 1412 553 1412 553 1481.34667969 579.754882812 c 1,47,48
 1471 709 1471 709 1424.00488281 770.864257812 c 0,49,50
 1376 835 1376 835 1303.828125 835.401367188 c 0,37,38
EndSplineSet
Substitution2: "'init' Initial Forms in Arabic lookup 13 subtable" uni06A1.init
Substitution2: "'medi' Medial Forms in Arabic lookup 11 subtable" uni06A1.medi
Substitution2: "'fina' Terminal Forms in Arabic lookup 9 subtable" uni06A1.fina
EndChar

StartChar: uni06A9
Encoding: 1705 1705 78
Width: 1892
VWidth: 3745
GlyphClass: 2
Flags: W
AnchorPoint: "Anchor-7" 798.705 -205.915 basechar 0
AnchorPoint: "Anchor-10" 1045.48 1390.04 basechar 0
LayerCount: 2
Fore
SplineSet
1625.22460938 413.499023438 m 24,0,1
 1626 382 1626 382 1619.92675781 355.356445312 c 0,2,3
 1568 123 1568 123 1175.22167969 37.54296875 c 0,4,5
 1012 2 1012 2 808.87890625 2 c 0,6,7
 477 2 477 2 305.037109375 98.587890625 c 0,8,9
 104 210 104 210 104.243164062 454.830078125 c 0,10,11
 104 625 104 625 174.85546875 766.762695312 c 1,12,-1
 276.431640625 732.233398438 l 1,13,14
 244 613 244 613 243.690429688 523.778320312 c 0,15,16
 244 424 244 424 284.80859375 362.3515625 c 0,17,18
 406 181 406 181 825.046875 180.487304688 c 4,19,20
 1229 180 1229 180 1419.8984375 316.056640625 c 0,21,22
 1484 362 1484 362 1484.43847656 405.203125 c 0,23,24
 1484 511 1484 511 955.662109375 955.13671875 c 1,25,-1
 992.662109375 1143.13671875 l 1,26,-1
 1797.38769531 1436.50878906 l 2,27,28
 1838.63940084 1451.86575803 1838.63940084 1451.86575803 1831.7734375 1408.34667969 c 2,29,-1
 1809 1264 l 1,30,-1
 1136 1033 l 1,31,32
 1620 600 1620 600 1625.22460938 413.499023438 c 24,0,1
EndSplineSet
Substitution2: "'init' Initial Forms in Arabic lookup 13 subtable" uniFB90
Substitution2: "'medi' Medial Forms in Arabic lookup 11 subtable" uniFB91
Substitution2: "'fina' Terminal Forms in Arabic lookup 9 subtable" uniFB8F
EndChar

StartChar: afii57509
Encoding: 1711 1711 79
Width: 1904
VWidth: 3749
GlyphClass: 2
Flags: W
AnchorPoint: "Anchor-7" 798.705 -205.915 basechar 0
AnchorPoint: "Anchor-10" 1014.82 1535.24 basechar 0
LayerCount: 2
Fore
SplineSet
1430.1171875 434 m 0
 1374 549 1374 549 958.662109375 895.13671875 c 1
 995.662109375 1083.13671875 l 1
 1800.38769531 1376.50878906 l 2
 1841.63940084 1391.86575803 1841.63940084 1391.86575803 1834.7734375 1348.34667969 c 2
 1812 1204 l 1
 1139 973 l 1
 1578 596 1578 596 1577.85253906 405.530273438 c 0
 1578 261 1578 261 1412.97949219 152.033203125 c 0
 1184 2 1184 2 825.678710938 2 c 0
 477 2 477 2 305.037109375 98.587890625 c 0
 104 211 104 211 104.250976562 457.248046875 c 0
 104 626 104 626 174.85546875 766.762695312 c 1
 276.431640625 732.233398438 l 1
 244 613 244 613 243.690429688 523.778320312 c 0
 244 424 244 424 284.80859375 362.3515625 c 0
 406 179 406 179 816.842773438 179.408203125 c 4
 1138 179 1138 179 1352.39257812 306.252929688 c 4
 1396 332 1396 332 1429.25 375 c 4
 1447 399 1447 399 1430.1171875 434 c 0
EndSplineSet
Refer: 270 -1 N 1.1342 0 0 1.1342 962.298 -757.187 2
Substitution2: "'init' Initial Forms in Arabic lookup 13 subtable" uniFB94
Substitution2: "'medi' Medial Forms in Arabic lookup 11 subtable" uniFB95
Substitution2: "'fina' Terminal Forms in Arabic lookup 9 subtable" uniFB93
EndChar

StartChar: afii57514
Encoding: 1722 1722 80
Width: 1395
VWidth: 3745
GlyphClass: 2
Flags: W
LayerCount: 2
Fore
SplineSet
1271 -42.876953125 m 4,0,1
 1148 -399 1148 -399 666.965820312 -398.86328125 c 4,2,3
 453.891304348 -398.931691518 453.891304348 -398.931691518 308 -307.248046875 c 4,4,5
 108 -181 108 -181 107.665039062 104.911132812 c 4,6,7
 108 309 108 309 205.79296875 524.94140625 c 5,8,-1
 316.0546875 492.40234375 l 5,9,10
 259 305 259 305 258.880859375 153.18359375 c 4,11,12
 259 -219 259 -219 673.813476562 -219.276367188 c 4,13,14
 987 -219 987 -219 1109.19140625 -24.3876953125 c 4,15,16
 1146.53699038 35.260483372 1146.53699038 35.260483372 1146.53699038 122.824476667 c 4,17,18
 1146.53699038 235.984009688 1146.53699038 235.984009688 1023.66699219 468.455078125 c 5,19,-1
 1120.31640625 614.686523438 l 5,20,21
 1129 627 1129 627 1138.31347656 626.528320312 c 4,22,23
 1149 627 1149 627 1171.24511719 585.676757812 c 4,24,25
 1300.55930939 341.050219696 1300.55930939 341.050219696 1300.55930939 139.729362926 c 4,26,27
 1300.55930939 43.4766861687 1300.55930939 43.4766861687 1271 -42.876953125 c 4,0,1
EndSplineSet
Substitution2: "'init' Initial Forms in Arabic lookup 13 subtable" uni06BA.init
Substitution2: "'medi' Medial Forms in Arabic lookup 11 subtable" uni06BA.medi
Substitution2: "'fina' Terminal Forms in Arabic lookup 9 subtable" uniFB9F
EndChar

StartChar: uni06F4
Encoding: 1780 1780 87
Width: 1190
VWidth: 2927
GlyphClass: 2
Flags: W
LayerCount: 2
Fore
SplineSet
366.79296875 1164.97558594 m 6,0,1
 417.473632812 1034.25097656 417.473632812 1034.25097656 539.344726562 976.250976562 c 5,2,3
 502 1100 502 1100 542.553710938 1203.13378906 c 4,4,5
 608 1367 608 1367 800.041992188 1365.86035156 c 4,6,7
 930 1365 930 1365 1026.4140625 1249.35058594 c 5,8,-1
 987.004882812 1174.83886719 l 5,9,10
 784 1252 784 1252 692.620117188 1144.87109375 c 4,11,12
 649 1093 649 1093 649.21875 1015.10644531 c 4,13,14
 650 938 650 938 718.311523438 918.014648438 c 4,15,16
 855 879 855 879 1042.62695312 938.721679688 c 5,17,-1
 1066.95507812 791.215820312 l 5,18,19
 939 730 939 730 791.049804688 732.102539062 c 4,20,21
 577 735 577 735 453.870117188 834.592773438 c 5,22,23
 506 587 506 587 506.737304688 149.875 c 4,24,25
 507 64 507 64 496.20703125 43.439453125 c 4,26,27
 491 33 491 33 393.61328125 7.548828125 c 5,28,29
 393 658 393 658 145.827148438 1222.97460938 c 5,30,-1
 252 1355 l 6,31,32
 280 1390 280 1390 297 1345 c 4,33,34
 366 1166 366 1166 366.79296875 1164.97558594 c 6,0,1
EndSplineSet
PairPos2: "'kern' Horizontal Kerning lookup 15-5" uni06F8 dx=-70 dy=0 dh=-70 dv=0 dx=0 dy=0 dh=0 dv=0
PairPos2: "'kern' Horizontal Kerning lookup 15-5" uni06F5 dx=-70 dy=0 dh=-70 dv=0 dx=0 dy=0 dh=0 dv=0
EndChar

StartChar: uni06F5
Encoding: 1781 1781 88
Width: 1192
VWidth: 3002
GlyphClass: 2
Flags: W
LayerCount: 2
Fore
SplineSet
635.6015625 455.672851562 m 1,0,1
 695 200 695 200 823.663085938 199.872070312 c 0,2,3
 946 200 946 200 946.313476562 323.743164062 c 0,4,5
 945 605 945 605 567.158203125 1044.31445312 c 5,6,7
 249 557 249 557 248.491210938 322.1484375 c 0,8,9
 248 200 248 200 370.296734934 199.770373057 c 0,10,11
 503 200 503 200 566.21875 456.798828125 c 1,12,-1
 635.6015625 455.672851562 l 1,0,1
602.801757812 205.260742188 m 1,13,14
 533 15 533 15 362.241210938 15.244140625 c 0,15,16
 124 15 124 15 124.044570342 307.628545336 c 0,17,18
 124 658 124 658 457.743164062 1161.65917969 c 1,19,-1
 412.880859375 1202.0234375 l 1,20,-1
 500.795898438 1357.62109375 l 2,21,22
 518 1387 518 1387 544.090820312 1359.24511719 c 0,23,24
 1071 798 1071 798 1071.59375 328.7109375 c 0,25,26
 1072 16 1072 16 844.198242188 15.6455078125 c 0,27,28
 681 16 681 16 602.801757812 205.260742188 c 1,13,14
EndSplineSet
PairPos2: "'kern' Horizontal Kerning lookup 15-5" uni06F0 dx=-30 dy=0 dh=-30 dv=0 dx=0 dy=0 dh=0 dv=0
PairPos2: "'kern' Horizontal Kerning lookup 15-5" uni06F7 dx=-70 dy=0 dh=-70 dv=0 dx=0 dy=0 dh=0 dv=0
PairPos2: "'kern' Horizontal Kerning lookup 15-5" uni06F6 dx=-70 dy=0 dh=-70 dv=0 dx=0 dy=0 dh=0 dv=0
PairPos2: "'kern' Horizontal Kerning lookup 15-5" uni06F4 dx=-70 dy=0 dh=-70 dv=0 dx=0 dy=0 dh=0 dv=0
PairPos2: "'kern' Horizontal Kerning lookup 15-5" uni06F3 dx=-100 dy=0 dh=-100 dv=0 dx=0 dy=0 dh=0 dv=0
PairPos2: "'kern' Horizontal Kerning lookup 15-5" uni06F2 dx=-100 dy=0 dh=-100 dv=0 dx=0 dy=0 dh=0 dv=0
EndChar

StartChar: uni06F6
Encoding: 1782 1782 89
Width: 1041
VWidth: 3202
GlyphClass: 2
Flags: W
LayerCount: 2
Fore
SplineSet
744.625976562 1154.0390625 m 1,0,1
 610 1189 610 1189 541.01953125 1188.80664062 c 0,2,3
 401 1189 401 1189 322.94921875 1090.84863281 c 0,4,5
 254 1004 254 1004 290.095703125 950.822265625 c 0,6,7
 372 828 372 828 635.96484375 825.333007812 c 0,8,9
 664 825 664 825 712.595703125 858.334960938 c 0,10,11
 862 959 862 959 906 961 c 0,12,13
 932.635718686 961.986508099 932.635718686 961.986508099 925.780273438 932.415039062 c 2,14,-1
 883.491210938 749.998046875 l 1,15,16
 583 616 583 616 206.235351562 -7.7802734375 c 5,17,-1
 132.798828125 81.7099609375 l 5,18,19
 308 461 308 461 454.2421875 650.724609375 c 1,20,21
 136 718 136 718 134.372070312 954 c 0,22,23
 134 1028 134 1028 176.423828125 1126.20703125 c 0,24,25
 287 1382 287 1382 532.040039062 1381.44433594 c 0,26,27
 677 1381 677 1381 793.365234375 1277.99707031 c 1,28,-1
 744.625976562 1154.0390625 l 1,0,1
EndSplineSet
EndChar

StartChar: uniFB8F
Encoding: 64399 64399 104
Width: 2123
VWidth: 3745
GlyphClass: 2
Flags: W
AnchorPoint: "Anchor-7" 798.705 -205.915 basechar 0
AnchorPoint: "Anchor-10" 975.484 1391.04 basechar 0
LayerCount: 2
Fore
SplineSet
1656.00048828 495.499511719 m 128,-1,1
 1925.00083528 180.999023438 1925.00083528 180.999023438 2115.71289062 180.999023438 c 2,2,-1
 2128 180.999023438 l 2,3,4
 2153.34082031 181.000013313 2153.34082031 181.000013313 2153.34082031 102 c 2,5,-1
 2153.34082031 77 l 2,6,7
 2153 0 2153 0 2128 0 c 2,8,-1
 2116.13769531 0 l 2,9,10
 1863 0 1863 0 1610 320.702148438 c 1,11,12
 1538 116 1538 116 1175.22167969 37.54296875 c 0,13,14
 1012 2 1012 2 808.87890625 2 c 0,15,16
 477 2 477 2 305.037109375 98.587890625 c 0,17,18
 104 210 104 210 104.243164062 454.830078125 c 0,19,20
 104 625 104 625 174.85546875 766.762695312 c 1,21,-1
 276.431640625 732.233398438 l 1,22,23
 244 613 244 613 243.690429688 523.778320312 c 0,24,25
 244 424 244 424 284.80859375 362.3515625 c 0,26,27
 405 181 405 181 825.046875 180.487304688 c 0,28,29
 1228 180 1228 180 1419.8984375 316.056640625 c 0,30,31
 1484 362 1484 362 1484.43847656 405.203125 c 0,32,33
 1484 511 1484 511 955.662109375 955.13671875 c 1,34,-1
 992.662109375 1143.13671875 l 1,35,-1
 1797.38769531 1436.50878906 l 2,36,37
 1838.63940084 1451.86575803 1838.63940084 1451.86575803 1831.7734375 1408.34667969 c 2,38,-1
 1809 1264 l 1,39,-1
 1136 1033 l 1,40,41
 1387 810 1387 810 1656.00048828 495.499511719 c 128,-1,1
EndSplineSet
EndChar

StartChar: uniFB93
Encoding: 64403 64403 108
Width: 2064
VWidth: 3749
GlyphClass: 2
Flags: W
AnchorPoint: "Anchor-7" 798.705 -205.915 basechar 0
AnchorPoint: "Anchor-10" 1012.82 1505.24 basechar 0
LayerCount: 2
Fore
SplineSet
1620 482.262114694 m 0
 1878.65412938 180.403643182 1878.65412938 180.403643182 2053.82617188 180.065429688 c 6
 2069 180.036132812 l 2
 2093.95214844 180.00006916 2093.95214844 180.00006916 2093.95214844 102 c 2
 2093.95214844 77 l 2
 2094 0 2094 0 2069 0 c 2
 2056.37109375 0 l 2
 1821 0 1821 0 1568.28808594 310 c 1
 1531 223 1531 223 1422.97949219 152.033203125 c 0
 1194 2 1194 2 825.678710938 2 c 0
 477 2 477 2 305.037109375 98.587890625 c 0
 104 211 104 211 104.250976562 457.248046875 c 0
 104 626 104 626 174.85546875 766.762695312 c 1
 276.431640625 732.233398438 l 1
 244 613 244 613 243.690429688 523.778320312 c 0
 244 180 244 180 796.842773438 179.408203125 c 0
 1148 179 1148 179 1362.39257812 306.252929688 c 0
 1406 332 1406 332 1439.25 375 c 0
 1457 399 1457 399 1440.1171875 434 c 0
 1384 549 1384 549 968.662109375 895.13671875 c 1
 1005.66210938 1083.13671875 l 1
 1810.38769531 1376.50878906 l 2
 1851.63940084 1391.86575803 1851.63940084 1391.86575803 1844.7734375 1348.34667969 c 2
 1822 1204 l 1
 1149 973 l 1
 1336 814 1336 814 1620 482.262114694 c 0
EndSplineSet
Refer: 270 -1 N 1.1342 0 0 1.1342 972.298 -757.187 2
EndChar

StartChar: uniFB94
Encoding: 64404 64404 109
Width: 974
VWidth: 3749
GlyphClass: 2
Flags: W
AnchorPoint: "Anchor-10" 280.398 1605.11 basechar 0
AnchorPoint: "Anchor-7" 334.15 -239.938 basechar 0
LayerCount: 2
Fore
SplineSet
38.662109375 895.13671875 m 5
 75.662109375 1083.13671875 l 5
 880.387695312 1376.50878906 l 6
 921.639400838 1391.86575803 921.639400838 1391.86575803 914.7734375 1348.34667969 c 6
 892 1204 l 5
 219 973 l 5
 658 605 658 605 657.879882812 382.224609375 c 4
 658 252 658 252 568.831054688 160.669921875 c 4
 412 0 412 0 28.2861328125 0 c 6
 -5 0 l 6
 -60.3662109375 0 -60.3662109375 0 -60.3662109375 77 c 6
 -60.3662109375 102 l 6
 -60.0000121562 179.997410819 -60.0000121562 179.997410819 -5 179.999023438 c 6
 28.306640625 180 l 6
 356 180 356 180 475.739257812 290.487304688 c 4
 514 326 514 326 514.442382812 377.67578125 c 4
 514 500 514 500 38.662109375 895.13671875 c 5
EndSplineSet
Refer: 270 -1 N 1.1342 0 0 1.1342 42.298 -757.187 2
EndChar

StartChar: uniFB95
Encoding: 64405 64405 110
Width: 1135
VWidth: 3749
GlyphClass: 2
Flags: W
AnchorPoint: "Anchor-10" 264.398 1613.11 basechar 0
AnchorPoint: "Anchor-7" 319.424 -241.288 basechar 0
LayerCount: 2
Fore
SplineSet
1122.82617188 180.065429688 m 6
 1140 180 l 6
 1165 180 1165 180 1165 102 c 2
 1165 77 l 2
 1165 0 1165 0 1140 0 c 2
 1114.38378906 0 l 2
 899 0 899 0 653.334960938 301 c 1
 632 231 632 231 577.831054688 175.669921875 c 0
 406 0 406 0 28.2861328125 0 c 2
 -5 0 l 2
 -60.3662109375 0 -60.3662109375 0 -60.3662109375 77 c 2
 -60.3662109375 102 l 2
 -60.0000121562 179.997410818 -60.0000121562 179.997410818 -5 179.999023438 c 6
 28.306640625 180 l 6
 345 180 345 180 475.739257812 300.487304688 c 4
 524 345 524 345 524.442769605 387.675711949 c 0
 524 492 524 492 38.662109375 895.13671875 c 1
 75.662109375 1083.13671875 l 1
 880.387695312 1376.50878906 l 2
 921.639400838 1391.86575803 921.639400838 1391.86575803 914.7734375 1348.34667969 c 2
 892 1204 l 1
 218 973 l 1
 398 820 398 820 689 482.26171875 c 0
 949 181 949 181 1122.82617188 180.065429688 c 6
EndSplineSet
Refer: 270 -1 N 1.1342 0 0 1.1342 42.298 -757.187 2
EndChar

StartChar: uniFB9F
Encoding: 64415 64415 112
Width: 1453
VWidth: 3744
GlyphClass: 2
Flags: W
AnchorPoint: "Anchor-10" 576.655 1006.5 basechar 0
AnchorPoint: "Anchor-7" 451.87 -1007.65 basechar 0
LayerCount: 2
Fore
SplineSet
1458.19824219 180.999023438 m 2,0,1
 1483 180.999023438 1483 180.999023438 1483 102 c 2,2,-1
 1483 77 l 2,3,4
 1483 0 1483 0 1458 0 c 2,5,-1
 1436.578125 0 l 2,6,7
 1339 0 1339 0 1298 48 c 1,8,9
 1298 -81 1298 -81 1261 -185.876840953 c 0,10,11
 1137 -539 1137 -539 666.965820312 -538.86328125 c 4,12,13
 454 -539 454 -539 308 -447.248046875 c 4,14,15
 108 -321 108 -321 107.665039062 -35.0888671875 c 4,16,17
 108 169 108 169 205.79296875 384.94140625 c 5,18,-1
 316.0546875 352.40234375 l 5,19,20
 259 165 259 165 258.880859375 13.18359375 c 4,21,22
 259 -359 259 -359 673.813476562 -359.276367188 c 4,23,24
 987 -359 987 -359 1109.19140625 -164.387695312 c 0,25,26
 1147 -104 1147 -104 1146.53173608 -15 c 0,27,28
 1146 97 1146 97 1023.66699219 328.455078125 c 1,29,-1
 1120.31640625 474.686523438 l 1,30,31
 1129 487 1129 487 1138.31347656 486.528320312 c 0,32,33
 1152 487 1152 487 1171.24511719 445.676757812 c 0,34,35
 1222 339 1222 339 1257.33007812 279.373046875 c 0,36,37
 1318.00060228 180.999023438 1318.00060228 180.999023438 1426.828125 180.999023438 c 2,38,-1
 1458.19824219 180.999023438 l 2,0,1
EndSplineSet
EndChar

StartChar: uniFBE8
Encoding: 64488 64488 115
Width: 626
VWidth: 3744
GlyphClass: 2
Flags: W
AnchorPoint: "Anchor-10" 323.261 1301.53 basechar 0
AnchorPoint: "Anchor-7" 350.876 -259.541 basechar 0
LayerCount: 2
Fore
SplineSet
-5 179.999023438 m 6,0,-1
 97.8056640625 179.999023438 l 6,1,2
 374 180 374 180 373.414330488 346.75148935 c 4,3,4
 373 435 373 435 301 636 c 5,5,-1
 412.000976562 763.575195312 l 6,6,7
 427 781 427 781 447.000976562 738.575195312 c 4,8,9
 525 578 525 578 525.099087467 393.558831594 c 4,10,11
 525 237 525 237 443.703125 137.951171875 c 4,12,13
 330 0 330 0 100.708007812 0 c 6,14,-1
 -5 0 l 6,15,16
 -60.3662109375 0 -60.3662109375 0 -60.3662109375 77 c 6,17,-1
 -60.3662109375 102 l 6,18,19
 -60 180 -60 180 -5 179.999023438 c 6,0,-1
EndSplineSet
EndChar

StartChar: uniFBE9
Encoding: 64489 64489 116
Width: 728
VWidth: 3744
GlyphClass: 2
Flags: W
AnchorPoint: "Anchor-10" 411.618 1159.37 basechar 0
AnchorPoint: "Anchor-7" 351.317 -218.507 basechar 0
LayerCount: 2
Fore
SplineSet
-5 179.999023438 m 2,0,-1
 95.18359375 179.999023438 l 6,1,2
 333.698785 179.999998768 333.698785 179.999998768 348.15625 334.38671875 c 6,3,-1
 367.440429688 540.31640625 l 5,4,-1
 481.720703125 540.369140625 l 5,5,-1
 501.733398438 333.099609375 l 6,6,7
 517.00104006 179.989569865 517.00104006 179.989569865 713.682617188 179.999023438 c 6,8,-1
 734 180 l 6,9,10
 758 180 758 180 758 102 c 6,11,-1
 758 77 l 6,12,13
 758 0 758 0 734 0 c 6,14,-1
 715.583007812 0 l 6,15,16
 506 0 506 0 424.059570312 130.338867188 c 5,17,18
 330 0 330 0 99.8349609375 0 c 6,19,-1
 -5 0 l 2,20,21
 -60.3662109375 0 -60.3662109375 0 -60.3662109375 77 c 2,22,-1
 -60.3662109375 102 l 2,23,24
 -60 180 -60 180 -5 179.999023438 c 2,0,-1
EndSplineSet
EndChar

StartChar: uniFE73
Encoding: 65139 65139 124
Width: 785
VWidth: 3435
GlyphClass: 2
Flags: W
AnchorPoint: "Anchor-10" 369.315 1241.89 basechar 0
AnchorPoint: "Anchor-7" 377.315 -188.464 basechar 0
LayerCount: 2
Fore
SplineSet
309.139648438 464.073242188 m 2,0,1
 309.139648438 180.26953125 309.139648438 180.26953125 698.9453125 180.26953125 c 2,2,-1
 790.182617188 180.26953125 l 1,3,-1
 790.182617188 2.6162109375 l 1,4,-1
 686.444335938 2.6162109375 l 2,5,6
 101.489257812 3.35604798321 101.489257812 3.35604798321 101.489257812 443.893554688 c 2,7,-1
 101.489257812 481.309570312 l 1,8,-1
 309.139648438 481.309570312 l 1,9,-1
 309.139648438 464.073242188 l 2,0,1
EndSplineSet
EndChar

StartChar: uniFE8E
Encoding: 65166 65166 150
Width: 541
VWidth: 3705
GlyphClass: 2
Flags: W
AnchorPoint: "Anchor-10" 165.896 1574.31 basechar 0
AnchorPoint: "Anchor-7" 250.473 -229.464 basechar 0
LayerCount: 2
Fore
SplineSet
547 0 m 2,0,-1
 492.934570312 0 l 2,1,2
 175 0 175 0 157.728515625 350 c 0,3,4
 152 465 152 465 149.518554688 764.955078125 c 0,5,6
 147 1048 147 1048 119.987304688 1319.0390625 c 1,7,-1
 252 1406 l 2,8,9
 279 1424 279 1424 282 1377 c 0,10,11
 301 1136 301 1136 296.779296875 572.400390625 c 0,12,13
 295 294 295 294 341.942382812 233.354492188 c 0,14,15
 382.00246311 179.996719276 382.00246311 179.996719276 497.885742188 179.999023438 c 2,16,-1
 547 180 l 2,17,18
 571 180 571 180 571 102 c 2,19,-1
 571 77 l 2,20,21
 571 0 571 0 547 0 c 2,0,-1
EndSplineSet
EndChar

StartChar: uniFEA2
Encoding: 65186 65186 170
Width: 1319
VWidth: 3739
GlyphClass: 2
Flags: W
AnchorPoint: "Anchor-7" 562.136 -813.44 basechar 0
AnchorPoint: "Anchor-10" 589.972 1252.02 basechar 0
LayerCount: 2
Fore
SplineSet
775.43359375 559.942382812 m 5,0,1
 677 578 677 578 589.021484375 597.971679688 c 0,2,3
 455 628 455 628 389.571289062 628.428710938 c 0,4,5
 283 629 283 629 184.560546875 509.346679688 c 1,6,-1
 99 549 l 1,7,8
 169 718 169 718 255.556640625 778.467773438 c 0,9,10
 306 815 306 815 383.6796875 814.798828125 c 0,11,12
 454 815 454 815 529.143554688 793.106445312 c 0,13,14
 854 697 854 697 979.66796875 667.557617188 c 0,15,16
 1063 648 1063 648 1203.37109375 636.41796875 c 24,17,18
 1221.20549269 634.983471339 1221.20549269 634.983471339 1213.17089844 616 c 2,19,-1
 1144.33007812 453.348632812 l 1,20,21
 1052 442 1052 442 997.987304688 435.309570312 c 1,22,23
 1016 180 1016 180 1304.82714844 180 c 2,24,-1
 1325 180 l 2,25,26
 1349 180 1349 180 1349 102 c 2,27,-1
 1349 77 l 2,28,29
 1349 0 1349 0 1325 0 c 2,30,-1
 1302.97949219 0 l 2,31,32
 900.656990263 3.97903932026e-13 900.656990263 3.97903932026e-13 867.879882812 373.126953125 c 2,33,-1
 864.426757812 412.436523438 l 1,34,35
 719 386 719 386 589.952148438 321.383789062 c 0,36,37
 269 159 269 159 269.989257812 -133.680664062 c 0,38,39
 270 -485 270 -485 785.594726562 -485.2265625 c 0,40,41
 961 -485 961 -485 1165 -457.595703125 c 0,42,43
 1185 -455 1185 -455 1181.71191406 -472 c 0,44,45
 1174 -509 1174 -509 1156 -575 c 0,46,47
 1141 -630 1141 -630 1067 -640.119140625 c 0,48,49
 963 -654 963 -654 808.768554688 -654.81640625 c 0,50,51
 437 -655 437 -655 269.965820312 -507.939453125 c 0,52,53
 123 -380 123 -380 123.260742188 -164.354492188 c 4,54,55
 123 233 123 233 469.01171875 446.65234375 c 4,56,57
 594 524 594 524 775.43359375 559.942382812 c 5,0,1
EndSplineSet
EndChar

StartChar: uniFEA3
Encoding: 65187 65187 171
Width: 1300
VWidth: 3745
GlyphClass: 2
Flags: W
AnchorPoint: "Anchor-10" 527.25 1134.14 basechar 0
AnchorPoint: "Anchor-7" 501.367 -226.896 basechar 0
LayerCount: 2
Fore
SplineSet
709.602539062 675.375 m 4,0,1
 1028 527 1028 527 1223.32226562 526.163085938 c 4,2,3
 1250.95490665 526.000265704 1250.95490665 526.000265704 1241.95605469 495.549804688 c 6,4,-1
 1197.49609375 345.10546875 l 5,5,6
 1039 341 1039 341 717.485351562 158.393554688 c 0,7,8
 438 0 438 0 162.451171875 0 c 2,9,-1
 -5 0 l 2,10,11
 -60.3662109375 0 -60.3662109375 0 -60.3662109375 77 c 2,12,-1
 -60.3662109375 102 l 2,13,14
 -60.000004585 179.999023438 -60.000004585 179.999023438 -5 179.999023438 c 2,15,-1
 195.760742188 179.999023438 l 2,16,17
 425.071324448 180.000000304 425.071324448 180.000000304 708.838867188 327.538085938 c 2,18,-1
 898.53125 426.1640625 l 5,19,20
 842 438 842 438 625 524.5 c 4,21,22
 486 580 486 580 410 580 c 4,23,24
 311 580 311 580 201 446 c 5,25,-1
 116.233398438 486.286132812 l 5,26,-1
 124.211914062 505.868164062 l 6,27,28
 231 769 231 769 438.768554688 767.661132812 c 4,29,30
 513 767 513 767 709.602539062 675.375 c 4,0,1
EndSplineSet
EndChar

StartChar: uniFEA4
Encoding: 65188 65188 172
Width: 1326
VWidth: 3745
GlyphClass: 2
Flags: W
AnchorPoint: "Anchor-10" 531.542 1136.28 basechar 0
AnchorPoint: "Anchor-7" 535.822 -223.531 basechar 0
LayerCount: 2
Fore
SplineSet
717.485351562 158.393554688 m 24,0,1
 438 0 438 0 162.451171875 0 c 2,2,-1
 -5 0 l 2,3,4
 -60.3662109375 0 -60.3662109375 0 -60.3662109375 77 c 2,5,-1
 -60.3662109375 102 l 2,6,7
 -60.000004585 179.999023438 -60.000004585 179.999023438 -5 179.999023438 c 2,8,-1
 195.760742188 179.999023438 l 2,9,10
 425.071324448 180.000000304 425.071324448 180.000000304 708.838867188 327.538085938 c 2,11,-1
 898.53125 426.1640625 l 5,12,13
 821 446 821 446 625 524.5 c 4,14,15
 486 580 486 580 410 580 c 4,16,17
 311 580 311 580 201 446 c 5,18,-1
 116.233398438 486.286132812 l 5,19,-1
 124.211914062 505.868164062 l 6,20,21
 231 769 231 769 438.768554688 767.661132812 c 4,22,23
 513 767 513 767 709.602539062 675.375 c 4,24,25
 1026 527 1026 527 1223.32226562 526.163085938 c 4,26,27
 1250.95490665 526.000265704 1250.95490665 526.000265704 1241.95605469 495.549804688 c 6,28,-1
 1197.49609375 345.10546875 l 1,29,30
 1095 343 1095 343 969 285.483398438 c 1,31,32
 969 179.9983646 969 179.9983646 1115.23828125 179.999023438 c 2,33,-1
 1332 180 l 2,34,35
 1356 180 1356 180 1356 102 c 2,36,-1
 1356 77 l 2,37,38
 1356 0 1356 0 1332 0 c 2,39,-1
 1119.60742188 0 l 2,40,41
 874 0 874 0 859 233 c 1,42,43
 819 216 819 216 717.485351562 158.393554688 c 24,0,1
EndSplineSet
EndChar

StartChar: uniFEAA
Encoding: 65194 65194 178
Width: 1122
VWidth: 3737
GlyphClass: 2
Flags: W
AnchorPoint: "Anchor-10" 641.162 1232.67 basechar 0
AnchorPoint: "Anchor-7" 440.118 -231.355 basechar 0
LayerCount: 2
Fore
SplineSet
416.994140625 179.999023438 m 4,0,1
 590 180 590 180 672.318359375 228.181640625 c 4,2,3
 750.368939108 274.402876093 750.368939108 274.402876093 735.09765625 353.327148438 c 4,4,5
 734.213967426 358.699253187 734.213967426 358.699253187 727.0234375 382.133789062 c 6,6,-1
 585 845 l 5,7,-1
 683.70703125 961.016601562 l 6,8,9
 713.952099039 996.943101009 713.952099039 996.943101009 727.70703125 949.016601562 c 6,10,-1
 877.681640625 426.458007812 l 6,11,12
 948 180 948 180 1115.69726562 180 c 6,13,-1
 1128 180 l 6,14,15
 1152 180 1152 180 1152 102 c 6,16,-1
 1152 77 l 6,17,18
 1152 0 1152 0 1128 0 c 6,19,-1
 1111.90039062 0 l 6,20,21
 915 0 915 0 820.291992188 191.197265625 c 5,22,23
 693 1 693 1 418.2734375 0 c 4,24,25
 103 -1 103 -1 104.71484375 230.303710938 c 4,26,27
 105 278 105 278 118.606445312 336.571289062 c 5,28,-1
 229.859375 325.612304688 l 5,29,30
 230 266 230 266 249.879882812 237.4453125 c 4,31,32
 289 180 289 180 416.994140625 179.999023438 c 4,0,1
EndSplineSet
PairPos2: "'kern' Horizontal Kerning lookup 15-7" uniFB90 dx=-120 dy=0 dh=-120 dv=0 dx=0 dy=0 dh=0 dv=0
PairPos2: "'kern' Horizontal Kerning lookup 15-7" uni06A9 dx=-120 dy=0 dh=-120 dv=0 dx=0 dy=0 dh=0 dv=0
PairPos2: "'kern' Horizontal Kerning lookup 15-7" uniFB94 dx=-120 dy=0 dh=-120 dv=0 dx=0 dy=0 dh=0 dv=0
PairPos2: "'kern' Horizontal Kerning lookup 15-7" afii57509 dx=-120 dy=0 dh=-120 dv=0 dx=0 dy=0 dh=0 dv=0
EndChar

StartChar: uniFEAE
Encoding: 65198 65198 182
Width: 854
VWidth: 3744
GlyphClass: 2
Flags: W
AnchorPoint: "Anchor-7" 350.313 -717.669 basechar 0
AnchorPoint: "Anchor-10" 463.778 922.68 basechar 0
LayerCount: 2
Fore
SplineSet
16.212890625 -400.844726562 m 4,0,1
 448 -282 448 -282 510 5.2353515625 c 0,2,3
 517 34 517 34 516.740234375 70.8984375 c 0,4,5
 517 198 517 198 427 329 c 1,6,-1
 537.216796875 480 l 2,7,8
 554 503 554 503 575.0234375 458 c 0,9,10
 625 353 625 353 662 288 c 0,11,12
 724.00248291 179.995674932 724.00248291 179.995674932 829.29296875 179.999023438 c 2,13,-1
 860 180 l 2,14,15
 884 180 884 180 884 102 c 2,16,-1
 884 77 l 2,17,18
 884 0 884 0 860 0 c 2,19,-1
 834.346679688 0 l 2,20,21
 739 0 739 0 673 43.8779296875 c 1,22,23
 655 -69 655 -69 598.513671875 -178.618164062 c 0,24,25
 511 -345 511 -345 326.763671875 -454.211914062 c 4,26,27
 234 -509 234 -509 129.038085938 -534.3515625 c 4,28,29
 118 -537 118 -537 107.479492188 -536.866210938 c 4,30,31
 86 -537 86 -537 53.923828125 -503 c 4,32,33
 42 -491 42 -491 19.13671875 -459.24609375 c 4,34,35
 0 -434 0 -434 0.306640625 -418.809570312 c 4,36,37
 0 -405 0 -405 16.212890625 -400.844726562 c 4,0,1
EndSplineSet
PairPos2: "'kern' Horizontal Kerning lookup 15-1" uniFEF3 dx=20 dy=0 dh=20 dv=0 dx=0 dy=0 dh=0 dv=0
PairPos2: "'kern' Horizontal Kerning lookup 15-1" uniFB58 dx=20 dy=0 dh=20 dv=0 dx=0 dy=0 dh=0 dv=0
PairPos2: "'kern' Horizontal Kerning lookup 15-1" uniFBFE dx=20 dy=0 dh=20 dv=0 dx=0 dy=0 dh=0 dv=0
PairPos2: "'kern' Horizontal Kerning lookup 15-4" uni0621 dx=-196 dy=0 dh=-196 dv=0 dx=0 dy=0 dh=0 dv=0
PairPos2: "'kern' Horizontal Kerning lookup 15-3" uni0648 dx=-43 dy=0 dh=-43 dv=0 dx=0 dy=0 dh=0 dv=0
PairPos2: "'kern' Horizontal Kerning lookup 15-1" uni0644 dx=-43 dy=0 dh=-43 dv=0 dx=0 dy=0 dh=0 dv=0
PairPos2: "'kern' Horizontal Kerning lookup 15-1" uni0642 dx=-43 dy=0 dh=-43 dv=0 dx=0 dy=0 dh=0 dv=0
PairPos2: "'kern' Horizontal Kerning lookup 15-1" uni0632 dx=-43 dy=0 dh=-43 dv=0 dx=0 dy=0 dh=0 dv=0
PairPos2: "'kern' Horizontal Kerning lookup 15-1" uni0631 dx=-43 dy=0 dh=-43 dv=0 dx=0 dy=0 dh=0 dv=0
PairPos2: "'kern' Horizontal Kerning lookup 15-1" uniFB8A dx=-43 dy=0 dh=-43 dv=0 dx=0 dy=0 dh=0 dv=0
PairPos2: "'kern' Horizontal Kerning lookup 15-1" afii57508 dx=-43 dy=0 dh=-43 dv=0 dx=0 dy=0 dh=0 dv=0
PairPos2: "'kern' Horizontal Kerning lookup 15-1" uniFB7C dx=-128 dy=0 dh=-128 dv=0 dx=0 dy=0 dh=0 dv=0
PairPos2: "'kern' Horizontal Kerning lookup 15-1" uni06CC dx=-43 dy=0 dh=-43 dv=0 dx=0 dy=0 dh=0 dv=0
PairPos2: "'kern' Horizontal Kerning lookup 15-1" uniFEEB dx=-128 dy=0 dh=-128 dv=0 dx=0 dy=0 dh=0 dv=0
PairPos2: "'kern' Horizontal Kerning lookup 15-1" uniFEDF dx=-128 dy=0 dh=-128 dv=0 dx=0 dy=0 dh=0 dv=0
PairPos2: "'kern' Horizontal Kerning lookup 15-1" uniFB90 dx=-213 dy=0 dh=-213 dv=0 dx=0 dy=0 dh=0 dv=0
PairPos2: "'kern' Horizontal Kerning lookup 15-1" uni06A9 dx=-213 dy=0 dh=-213 dv=0 dx=0 dy=0 dh=0 dv=0
PairPos2: "'kern' Horizontal Kerning lookup 15-1" uni0649 dx=-43 dy=0 dh=-43 dv=0 dx=0 dy=0 dh=0 dv=0
PairPos2: "'kern' Horizontal Kerning lookup 15-1" uni0647 dx=-128 dy=0 dh=-128 dv=0 dx=0 dy=0 dh=0 dv=0
PairPos2: "'kern' Horizontal Kerning lookup 15-1" uniFEE7 dx=-128 dy=0 dh=-128 dv=0 dx=0 dy=0 dh=0 dv=0
PairPos2: "'kern' Horizontal Kerning lookup 15-1" uniFEE3 dx=-128 dy=0 dh=-128 dv=0 dx=0 dy=0 dh=0 dv=0
PairPos2: "'kern' Horizontal Kerning lookup 15-1" uni0645 dx=-128 dy=0 dh=-128 dv=0 dx=0 dy=0 dh=0 dv=0
PairPos2: "'kern' Horizontal Kerning lookup 15-1" uniFEDB dx=-213 dy=0 dh=-213 dv=0 dx=0 dy=0 dh=0 dv=0
PairPos2: "'kern' Horizontal Kerning lookup 15-1" uniFED7 dx=-128 dy=0 dh=-128 dv=0 dx=0 dy=0 dh=0 dv=0
PairPos2: "'kern' Horizontal Kerning lookup 15-1" uniFED3 dx=-128 dy=0 dh=-128 dv=0 dx=0 dy=0 dh=0 dv=0
PairPos2: "'kern' Horizontal Kerning lookup 15-1" uni0641 dx=-128 dy=0 dh=-128 dv=0 dx=0 dy=0 dh=0 dv=0
PairPos2: "'kern' Horizontal Kerning lookup 15-1" uniFECF dx=-128 dy=0 dh=-128 dv=0 dx=0 dy=0 dh=0 dv=0
PairPos2: "'kern' Horizontal Kerning lookup 15-1" uniFECB dx=-128 dy=0 dh=-128 dv=0 dx=0 dy=0 dh=0 dv=0
PairPos2: "'kern' Horizontal Kerning lookup 15-1" uniFEC7 dx=-128 dy=0 dh=-128 dv=0 dx=0 dy=0 dh=0 dv=0
PairPos2: "'kern' Horizontal Kerning lookup 15-1" uni0638 dx=-128 dy=0 dh=-128 dv=0 dx=0 dy=0 dh=0 dv=0
PairPos2: "'kern' Horizontal Kerning lookup 15-1" uniFEC3 dx=-128 dy=0 dh=-128 dv=0 dx=0 dy=0 dh=0 dv=0
PairPos2: "'kern' Horizontal Kerning lookup 15-1" uni0637 dx=-128 dy=0 dh=-128 dv=0 dx=0 dy=0 dh=0 dv=0
PairPos2: "'kern' Horizontal Kerning lookup 15-1" uniFEBF dx=-128 dy=0 dh=-128 dv=0 dx=0 dy=0 dh=0 dv=0
PairPos2: "'kern' Horizontal Kerning lookup 15-1" uni0636 dx=-128 dy=0 dh=-128 dv=0 dx=0 dy=0 dh=0 dv=0
PairPos2: "'kern' Horizontal Kerning lookup 15-1" uniFEBB dx=-128 dy=0 dh=-128 dv=0 dx=0 dy=0 dh=0 dv=0
PairPos2: "'kern' Horizontal Kerning lookup 15-1" uni0635 dx=-128 dy=0 dh=-128 dv=0 dx=0 dy=0 dh=0 dv=0
PairPos2: "'kern' Horizontal Kerning lookup 15-1" uniFEB7 dx=-128 dy=0 dh=-128 dv=0 dx=0 dy=0 dh=0 dv=0
PairPos2: "'kern' Horizontal Kerning lookup 15-1" uni0634 dx=-128 dy=0 dh=-128 dv=0 dx=0 dy=0 dh=0 dv=0
PairPos2: "'kern' Horizontal Kerning lookup 15-1" uniFEB3 dx=-128 dy=0 dh=-128 dv=0 dx=0 dy=0 dh=0 dv=0
PairPos2: "'kern' Horizontal Kerning lookup 15-1" uni0633 dx=-128 dy=0 dh=-128 dv=0 dx=0 dy=0 dh=0 dv=0
PairPos2: "'kern' Horizontal Kerning lookup 15-1" uni0630 dx=-128 dy=0 dh=-128 dv=0 dx=0 dy=0 dh=0 dv=0
PairPos2: "'kern' Horizontal Kerning lookup 15-1" uni062F dx=-128 dy=0 dh=-128 dv=0 dx=0 dy=0 dh=0 dv=0
PairPos2: "'kern' Horizontal Kerning lookup 15-1" uniFEA7 dx=-128 dy=0 dh=-128 dv=0 dx=0 dy=0 dh=0 dv=0
PairPos2: "'kern' Horizontal Kerning lookup 15-1" uniFEA3 dx=-128 dy=0 dh=-128 dv=0 dx=0 dy=0 dh=0 dv=0
PairPos2: "'kern' Horizontal Kerning lookup 15-1" uniFE9F dx=-128 dy=0 dh=-128 dv=0 dx=0 dy=0 dh=0 dv=0
PairPos2: "'kern' Horizontal Kerning lookup 15-1" uniFE9B dx=-128 dy=0 dh=-128 dv=0 dx=0 dy=0 dh=0 dv=0
PairPos2: "'kern' Horizontal Kerning lookup 15-1" uni062B dx=-128 dy=0 dh=-128 dv=0 dx=0 dy=0 dh=0 dv=0
PairPos2: "'kern' Horizontal Kerning lookup 15-1" uniFE97 dx=-128 dy=0 dh=-128 dv=0 dx=0 dy=0 dh=0 dv=0
PairPos2: "'kern' Horizontal Kerning lookup 15-1" uni062A dx=-128 dy=0 dh=-128 dv=0 dx=0 dy=0 dh=0 dv=0
PairPos2: "'kern' Horizontal Kerning lookup 15-1" uni0629 dx=-128 dy=0 dh=-128 dv=0 dx=0 dy=0 dh=0 dv=0
PairPos2: "'kern' Horizontal Kerning lookup 15-1" uni0628 dx=-128 dy=0 dh=-128 dv=0 dx=0 dy=0 dh=0 dv=0
PairPos2: "'kern' Horizontal Kerning lookup 15-1" uni0627 dx=-150 dy=0 dh=-150 dv=0 dx=0 dy=0 dh=0 dv=0
PairPos2: "'kern' Horizontal Kerning lookup 15-1" uni0622 dx=-150 dy=0 dh=-150 dv=0 dx=0 dy=0 dh=0 dv=0
PairPos2: "'kern' Horizontal Kerning lookup 15-1" uniFB94 dx=-235 dy=0 dh=-235 dv=0 dx=0 dy=0 dh=0 dv=0
PairPos2: "'kern' Horizontal Kerning lookup 15-1" afii57509 dx=-235 dy=0 dh=-235 dv=0 dx=0 dy=0 dh=0 dv=0
PairPos2: "'kern' Horizontal Kerning lookup 15-1" uniFB56 dx=-128 dy=0 dh=-128 dv=0 dx=0 dy=0 dh=0 dv=0
PairPos2: "'kern' Horizontal Kerning lookup 15-1" afii57506 dx=-128 dy=0 dh=-128 dv=0 dx=0 dy=0 dh=0 dv=0
EndChar

StartChar: uniFEB2
Encoding: 65202 65202 186
Width: 2463
VWidth: 3744
GlyphClass: 2
Flags: W
AnchorPoint: "Anchor-10" 1664.2 1101.76 basechar 0
AnchorPoint: "Anchor-7" 635.746 -764.065 basechar 0
LayerCount: 2
Fore
SplineSet
1257.33007812 279.373046875 m 8,0,1
 1316 183 1316 183 1453 180 c 0,2,3
 1596.51509374 177.010102214 1596.51509374 177.010102214 1613.88183594 331.986328125 c 2,4,-1
 1635.18945312 522.129882812 l 5,5,-1
 1748.69628906 522.129882812 l 5,6,-1
 1769.23535156 331.802734375 l 2,7,8
 1786 180 1786 180 1941.90234375 180.348632812 c 0,9,10
 2073.56451312 180.997852635 2073.56451312 180.997852635 2086.96386719 335.2421875 c 2,11,-1
 2104.72558594 539.703125 l 5,12,-1
 2222.88574219 539.703125 l 5,13,-1
 2242.66210938 335.331054688 l 2,14,15
 2258 180 2258 180 2449.63769531 180 c 2,16,-1
 2469.67480469 180 l 2,17,18
 2493.67480469 180 2493.67480469 180 2493.67480469 102 c 2,19,-1
 2493.67480469 77 l 2,20,21
 2494 0 2494 0 2469.67480469 0 c 2,22,-1
 2448.86425781 0 l 2,23,24
 2226 0 2226 0 2166.12890625 132.162109375 c 1,25,26
 2102 0 2102 0 1938.70507812 -0.0048828125 c 0,27,28
 1763 0 1763 0 1691.61035156 128.845703125 c 1,29,30
 1595 0 1595 0 1459.89257812 0 c 0,31,32
 1341 0 1341 0 1298 48 c 1,33,34
 1298 -82 1298 -82 1261 -185.876840953 c 0,35,36
 1135 -539 1135 -539 666.965820312 -538.86328125 c 0,37,38
 454 -539 454 -539 308 -447.248046875 c 0,39,40
 108 -321 108 -321 107.665039062 -35.0888671875 c 0,41,42
 108 169 108 169 205.79296875 384.94140625 c 1,43,-1
 316.0546875 352.40234375 l 1,44,45
 259 165 259 165 258.880859375 13.18359375 c 0,46,47
 259 -359 259 -359 673.813476562 -359.276367188 c 0,48,49
 987 -359 987 -359 1109.19140625 -164.387695312 c 0,50,51
 1147 -104 1147 -104 1146.53173608 -15 c 0,52,53
 1146 97 1146 97 1023.66699219 328.455078125 c 1,54,-1
 1120.31640625 474.686523438 l 1,55,56
 1129 487 1129 487 1138.31347656 486.528320312 c 0,57,58
 1152 487 1152 487 1171.24511719 445.676757812 c 0,59,60
 1222 339 1222 339 1257.33007812 279.373046875 c 8,0,1
EndSplineSet
EndChar

StartChar: uniFEB3
Encoding: 65203 65203 187
Width: 1532
VWidth: 3744
GlyphClass: 2
Flags: W
AnchorPoint: "Anchor-10" 845.148 1020.27 basechar 0
AnchorPoint: "Anchor-7" 815.32 -263.321 basechar 0
LayerCount: 2
Fore
SplineSet
-5 179.999023438 m 2,0,-1
 76.6552734375 179.999023438 l 2,1,2
 296.368151384 180.000001639 296.368151384 180.000001639 310.140625 332.081054688 c 6,3,-1
 327.41796875 522.864257812 l 1,4,-1
 440.999023438 522.864257812 l 1,5,-1
 457.504882812 333.895507812 l 2,6,7
 471 180 471 180 624.266601562 179.971679688 c 0,8,9
 781.462674305 180.000083601 781.462674305 180.000083601 795.208984375 331.399414062 c 2,10,-1
 812.526367188 522.129882812 l 1,11,-1
 926.010742188 522.129882812 l 1,12,-1
 942.55859375 330.216796875 l 2,13,14
 956 180 956 180 1114.70996094 180.348632812 c 0,15,16
 1279 181 1279 181 1279.71972656 338.900390625 c 0,17,18
 1280 395 1280 395 1201.27441406 613.266601562 c 1,19,-1
 1310 739 l 2,20,21
 1327 759 1327 759 1348 716 c 0,22,23
 1431 536 1431 536 1431.27441406 374.629882812 c 24,24,25
 1431 235 1431 235 1349.97851562 123.79296875 c 0,26,27
 1260 0 1260 0 1123.05273438 -0.2197265625 c 0,28,29
 940 0 940 0 868.935546875 128.845703125 c 1,30,31
 772 0 772 0 619.217773438 0 c 0,32,33
 449 0 449 0 378.49609375 128.840820312 c 1,34,35
 294 0 294 0 72.4453125 0 c 2,36,-1
 -5 0 l 2,37,38
 -60.3662109375 0 -60.3662109375 0 -60.3662109375 77 c 2,39,-1
 -60.3662109375 102 l 2,40,41
 -60 180 -60 180 -5 179.999023438 c 2,0,-1
EndSplineSet
EndChar

StartChar: uniFEB4
Encoding: 65204 65204 188
Width: 1641
VWidth: 3744
GlyphClass: 2
Flags: W
AnchorPoint: "Anchor-10" 845.148 1020.27 basechar 0
AnchorPoint: "Anchor-7" 864.254 -267.588 basechar 0
LayerCount: 2
Fore
SplineSet
1116.03027344 -0.0048828125 m 0,0,1
 940 0 940 0 868.935546875 128.845703125 c 1,2,3
 772 0 772 0 619.217773438 0 c 0,4,5
 449 0 449 0 378.49609375 128.840820312 c 1,6,7
 294 0 294 0 72.4453125 0 c 2,8,-1
 -5 0 l 2,9,10
 -60.3662109375 0 -60.3662109375 0 -60.3662109375 77 c 2,11,-1
 -60.3662109375 102 l 2,12,13
 -60.000004585 179.999023438 -60.000004585 179.999023438 -5 179.999023438 c 2,14,-1
 76.6552734375 179.999023438 l 2,15,16
 296.431449141 180.000001921 296.431449141 180.000001921 310.147460938 331.06640625 c 6,17,-1
 327.46484375 521.797851562 l 1,18,-1
 440.950195312 521.797851562 l 1,19,-1
 457.498046875 334.87890625 l 2,20,21
 471 180 471 180 624.794921875 179.998046875 c 0,22,23
 781.20798824 180.000002601 781.20798824 180.000002601 795.20703125 332.986328125 c 6,24,-1
 812.514648438 522.129882812 l 1,25,-1
 926.021484375 522.129882812 l 1,26,-1
 942.560546875 331.802734375 l 2,27,28
 956 180 956 180 1119.22753906 180.348632812 c 0,29,30
 1257.90740422 180.999565376 1257.90740422 180.999565376 1268.2890625 335.2421875 c 6,31,-1
 1282.05078125 539.703125 l 1,32,-1
 1400.2109375 539.703125 l 1,33,-1
 1415.98730469 335.331054688 l 2,34,35
 1428 180 1428 180 1626.96289062 180 c 2,36,-1
 1647 180 l 2,37,38
 1671 180 1671 180 1671 102 c 2,39,-1
 1671 77 l 2,40,41
 1671 0 1671 0 1647 0 c 2,42,-1
 1626.18945312 0 l 2,43,44
 1403 0 1403 0 1343.45410156 136.162109375 c 1,45,46
 1279 0 1279 0 1116.03027344 -0.0048828125 c 0,0,1
EndSplineSet
EndChar

StartChar: uniFEBA
Encoding: 65210 65210 194
Width: 2651
VWidth: 3745
GlyphClass: 2
Flags: W
AnchorPoint: "Anchor-10" 2100.2 1169.65 basechar 0
AnchorPoint: "Anchor-7" 627.217 -757.813 basechar 0
LayerCount: 2
Fore
SplineSet
1602.11328125 180.791992188 m 5,0,-1
 1843.25390625 180.791992188 l 6,1,2
 2178 181 2178 181 2267.31933594 249.029296875 c 4,3,4
 2341 306 2341 306 2341.54003906 398.5390625 c 4,5,6
 2342 480 2342 480 2285 528.196710974 c 4,7,8
 2240 566 2240 566 2156.45703125 566.015625 c 4,9,10
 1920 566 1920 566 1602.11328125 180.791992188 c 5,0,-1
1257.33007812 279.373046875 m 24,11,12
 1317 182 1317 182 1452.38574219 180.909179688 c 5,13,14
 1806 743 1806 743 2169.27148438 743.09375 c 4,15,16
 2284 743 2284 743 2363 690.854030897 c 4,17,18
 2502 599 2502 599 2502.23828125 419.375976562 c 4,19,20
 2502 268 2502 268 2415.73632812 180 c 5,21,-1
 2657 180 l 6,22,23
 2681 180 2681 180 2681 102 c 6,24,-1
 2681 77 l 6,25,26
 2681 0 2681 0 2657 0 c 6,27,-1
 2607.39257812 0 l 6,28,29
 2403 0 2403 0 2269 70 c 5,30,31
 2118 0 2118 0 1831.76269531 0 c 6,32,-1
 1586.95019531 0 l 6,33,34
 1362 0 1362 0 1298 48 c 1,35,36
 1298 -82 1298 -82 1261 -185.876840953 c 0,37,38
 1135 -539 1135 -539 666.965820312 -538.86328125 c 0,39,40
 454 -539 454 -539 308 -447.248046875 c 0,41,42
 108 -321 108 -321 107.665039062 -35.0888671875 c 0,43,44
 108 169 108 169 205.79296875 384.94140625 c 1,45,-1
 316.0546875 352.40234375 l 1,46,47
 259 165 259 165 258.880859375 13.18359375 c 0,48,49
 259 -359 259 -359 673.813476562 -359.276367188 c 0,50,51
 987 -359 987 -359 1109.19140625 -164.387695312 c 0,52,53
 1147 -104 1147 -104 1146.53173608 -15 c 0,54,55
 1146 97 1146 97 1023.66699219 328.455078125 c 1,56,-1
 1120.31640625 474.686523438 l 1,57,58
 1129 487 1129 487 1138.31347656 486.528320312 c 0,59,60
 1152 487 1152 487 1171.24511719 445.676757812 c 0,61,62
 1222 339 1222 339 1257.33007812 279.373046875 c 24,11,12
EndSplineSet
EndChar

StartChar: uniFEBB
Encoding: 65211 65211 195
Width: 1685
VWidth: 3745
GlyphClass: 2
Flags: W
AnchorPoint: "Anchor-10" 1132.96 1207.91 basechar 0
AnchorPoint: "Anchor-7" 627.342 -247.568 basechar 0
LayerCount: 2
Fore
SplineSet
684.841796875 180.698242188 m 1,0,-1
 925.982421875 180.698242188 l 6,1,2
 1260.72851562 180.90625 1260.72851562 180.90625 1350.04785156 248.935546875 c 4,3,4
 1423.72851562 305.90625 1423.72851562 305.90625 1424.26855469 398.4453125 c 4,5,6
 1424.72851562 479.90625 1424.72851562 479.90625 1367.72851562 528.102539062 c 4,7,8
 1322.72851562 565.90625 1322.72851562 565.90625 1239.18554688 565.921875 c 4,9,10
 1002.72851562 565.90625 1002.72851562 565.90625 684.841796875 180.698242188 c 1,0,-1
669.678710938 0 m 2,11,12
 414 0 414 0 314.329101562 128.564453125 c 1,13,14
 229 0 229 0 28.1640625 0 c 2,15,-1
 -5 0 l 2,16,17
 -60.3662109375 0 -60.3662109375 0 -60.3662109375 77 c 2,18,-1
 -60.3662109375 102 l 2,19,20
 -59.9997260495 180.058349267 -59.9997260495 180.058349267 -5 179.999023438 c 2,21,-1
 29.4033203125 179.961914062 l 2,22,23
 215.809009955 179.999961017 215.809009955 179.999961017 234.15625 334.38671875 c 2,24,-1
 257.440429688 530.31640625 l 1,25,-1
 371.720703125 530.369140625 l 1,26,-1
 395.733398438 333.099609375 l 2,27,28
 412 196 412 196 535.114257812 180.815429688 c 1,29,30
 889 743 889 743 1252 743 c 4,31,32
 1372 743 1372 743 1451.72851562 686.671875 c 4,33,34
 1583 595 1583 595 1582.96679688 419.282226562 c 4,35,36
 1583 0 1583 0 914.491210938 0 c 6,37,-1
 669.678710938 0 l 2,11,12
EndSplineSet
EndChar

StartChar: uniFEBC
Encoding: 65212 65212 196
Width: 1733
VWidth: 3745
GlyphClass: 2
Flags: W
AnchorPoint: "Anchor-10" 1142.96 1217.91 basechar 0
AnchorPoint: "Anchor-7" 643.137 -236.413 basechar 0
LayerCount: 2
Fore
SplineSet
684.841796875 180.698242188 m 1,0,-1
 925.982421875 180.698242188 l 6,1,2
 1260.72851562 180.90625 1260.72851562 180.90625 1350.04785156 248.935546875 c 4,3,4
 1423.72851562 305.90625 1423.72851562 305.90625 1424.26855469 398.4453125 c 4,5,6
 1424.72851562 479.90625 1424.72851562 479.90625 1367.72851562 528.102539062 c 4,7,8
 1322.72851562 565.90625 1322.72851562 565.90625 1239.18554688 565.921875 c 4,9,10
 1002.72851562 565.90625 1002.72851562 565.90625 684.841796875 180.698242188 c 1,0,-1
669.678710938 -0.09375 m 2,11,12
 414.07268064 -0.09375 414.07268064 -0.09375 314.329101562 128.564453125 c 1,13,14
 229 0 229 0 28.1640625 0 c 2,15,-1
 -5 0 l 2,16,17
 -60.3662109375 0 -60.3662109375 0 -60.3662109375 77 c 2,18,-1
 -60.3662109375 102 l 2,19,20
 -59.9997260495 180.058349267 -59.9997260495 180.058349267 -5 179.999023438 c 2,21,-1
 29.4033203125 179.961914062 l 2,22,23
 215.809009955 179.999961017 215.809009955 179.999961017 234.15625 334.38671875 c 2,24,-1
 257.440429688 530.31640625 l 1,25,-1
 371.720703125 530.369140625 l 1,26,-1
 395.733398438 333.099609375 l 2,27,28
 412 196 412 196 535.114257812 180.815429688 c 1,29,30
 889 743 889 743 1252 743 c 4,31,32
 1367 743 1367 743 1445.72851562 690.760742188 c 4,33,34
 1585 599 1585 599 1584.96679688 419.282226562 c 4,35,36
 1585 268 1585 268 1498.46484375 179.90625 c 5,37,-1
 1739.72851562 179.90625 l 6,38,39
 1763.72851562 179.998951376 1763.72851562 179.998951376 1763.72851562 101.90625 c 6,40,-1
 1763.72851562 76.90625 l 6,41,42
 1764.00033094 -0.09375 1764.00033094 -0.09375 1739.72851562 -0.09375 c 6,43,-1
 1690.12109375 -0.09375 l 6,44,45
 1486 -0 1486 -0 1351.72851562 69.90625 c 5,46,47
 1200.79786073 -0.09375 1200.79786073 -0.09375 914.491210938 -0.09375 c 6,48,-1
 669.678710938 -0.09375 l 2,11,12
EndSplineSet
EndChar

StartChar: uniFEC2
Encoding: 65218 65218 202
Width: 1612
VWidth: 3745
GlyphClass: 2
Flags: W
AnchorPoint: "Anchor-10" 489.975 1522.06 basechar 0
AnchorPoint: "Anchor-7" 787.173 -236.469 basechar 0
LayerCount: 2
Fore
SplineSet
568.793945312 180.791015625 m 1,0,-1
 799.934570312 180.791015625 l 2,1,2
 1144 181 1144 181 1234 249.028320312 c 0,3,4
 1307 305 1307 305 1307.22070312 397.538085938 c 0,5,6
 1308 481 1308 481 1251.68066406 528.1953125 c 0,7,8
 1207 566 1207 566 1123.13769531 566.014648438 c 0,9,10
 887 566 887 566 568.793945312 180.791015625 c 1,0,-1
1382.16796875 180 m 1,11,-1
 1618.51171875 180 l 2,12,13
 1642.51171875 180 1642.51171875 180 1642.51171875 102.610351562 c 2,14,-1
 1642.51171875 77.6103515625 l 2,15,16
 1643.00248345 0.6103515625 1643.00248345 0.6103515625 1618.51171875 0.6103515625 c 2,17,-1
 1568.90429688 0.6103515625 l 2,18,19
 1405 1 1405 1 1233 71 c 1,20,21
 1083 0 1083 0 789.443359375 0 c 2,22,-1
 260.19921875 0 l 1,23,24
 97 128 97 128 96.3173828125 163 c 0,25,26
 96.0060455491 180.65713366 96.0060455491 180.65713366 124.399414062 180.657226562 c 2,27,-1
 422.862304688 180.658203125 l 1,28,29
 457 232 457 232 491.7890625 282.39453125 c 1,30,31
 486 366 486 366 469.5078125 777.770507812 c 0,32,33
 451 1232 451 1232 428.522460938 1319.796875 c 5,34,-1
 579 1407 l 6,35,36
 604.18440922 1422.11064553 604.18440922 1422.11064553 604.880859375 1382.04882812 c 6,37,-1
 621.05859375 451.458984375 l 1,38,39
 871 745 871 745 1137 745 c 0,40,41
 1254 745 1254 745 1333 687.704101562 c 0,42,43
 1467 593 1467 593 1466.91894531 418.375 c 0,44,45
 1467 266 1467 266 1382.16796875 180 c 1,11,-1
EndSplineSet
EndChar

StartChar: uniFEC3
Encoding: 65219 65219 203
Width: 1296
VWidth: 3745
GlyphClass: 2
Flags: W
AnchorPoint: "Anchor-7" 482.774 -230.068 basechar 0
AnchorPoint: "Anchor-10" 211.176 1511.33 basechar 0
LayerCount: 2
Fore
SplineSet
295.725585938 180.438476562 m 1,0,-1
 536.866210938 180.438476562 l 2,1,2
 871.612304688 180.646484375 871.612304688 180.646484375 960.931640625 248.67578125 c 0,3,4
 1034.61230469 305.646484375 1034.61230469 305.646484375 1035.15234375 398.185546875 c 0,5,6
 1035.61230469 479.646484375 1035.61230469 479.646484375 978.612304688 527.842773438 c 0,7,8
 933.612304688 565.646484375 933.612304688 565.646484375 850.069335938 565.662109375 c 0,9,10
 613.612304688 565.646484375 613.612304688 565.646484375 295.725585938 180.438476562 c 1,0,-1
535.375 -0.259765625 m 2,11,-1
 -5 0 l 2,12,13
 -60.3662109375 0 -60.3662109375 0 -60.3662109375 77 c 2,14,-1
 -60.3662109375 102 l 2,15,16
 -60.0005194507 179.889361165 -60.0005194507 179.889361165 -5 179.999023438 c 2,17,-1
 148.793945312 180.305664062 l 1,18,19
 183 231 183 231 217.720703125 282.041992188 c 1,20,21
 212 376 212 376 195.439453125 777.41796875 c 0,22,23
 176 1232 176 1232 154.454101562 1319.44433594 c 5,24,-1
 304.931640625 1406.64746094 l 6,25,26
 330.086084022 1421.0492862 330.086084022 1421.0492862 330.8125 1381.69628906 c 6,27,-1
 347.990234375 451.106445312 l 1,28,29
 598 745 598 745 862.883789062 742.740234375 c 0,30,31
 985 742 985 742 1062.61230469 686.412109375 c 0,32,33
 1194 593 1194 593 1193.85058594 419.022460938 c 0,34,35
 1194 -1 1194 -1 535.375 -0.259765625 c 2,11,-1
EndSplineSet
EndChar

StartChar: uniFEC4
Encoding: 65220 65220 204
Width: 1339
VWidth: 3745
GlyphClass: 2
Flags: W
AnchorPoint: "Anchor-7" 476.374 -224.802 basechar 0
AnchorPoint: "Anchor-10" 204.776 1522 basechar 0
LayerCount: 2
Fore
SplineSet
295.731445312 181.439453125 m 1,0,-1
 526.872070312 181.439453125 l 2,1,2
 870.9375 181.6484375 870.9375 181.6484375 960.9375 249.676757812 c 0,3,4
 1033.9375 305.6484375 1033.9375 305.6484375 1034.15820312 398.186523438 c 0,5,6
 1034.9375 481.6484375 1034.9375 481.6484375 978.618164062 528.84375 c 0,7,8
 933.9375 566.6484375 933.9375 566.6484375 850.075195312 566.663085938 c 0,9,10
 613.9375 566.6484375 613.9375 566.6484375 295.731445312 181.439453125 c 1,0,-1
516.380859375 0.6484375 m 2,11,-1
 -5 0 l 2,12,13
 -60.3662109375 -0 -60.3662109375 -0 -60.3662109375 77 c 2,14,-1
 -60.3662109375 102 l 2,15,16
 -60.0022001262 179.53139071 -60.0022001262 179.53139071 -5 179.999023438 c 2,17,-1
 148.799804688 181.306640625 l 1,18,19
 183 232 183 232 217.7265625 283.04296875 c 1,20,21
 212 378 212 378 195.4453125 778.418945312 c 0,22,23
 176 1233 176 1233 154.459960938 1320.4453125 c 5,24,-1
 304.9375 1407.6484375 l 6,25,26
 330.091899798 1422.05262467 330.091899798 1422.05262467 330.818359375 1382.69726562 c 6,27,-1
 347.99609375 452.107421875 l 1,28,29
 597.019037019 744.84682706 597.019037019 744.84682706 863.9375 745.6484375 c 0,30,31
 978 746 978 746 1059.9375 688.352539062 c 0,32,33
 1194 594 1194 594 1193.85644531 419.0234375 c 0,34,35
 1194 267 1194 267 1109.10546875 180.6484375 c 1,36,-1
 1345.44921875 180.6484375 l 2,37,38
 1369.44921875 181.00670587 1369.44921875 181.00670587 1369.44921875 103.258789062 c 2,39,-1
 1369.44921875 78.2587890625 l 2,40,41
 1369.00150472 1.2587890625 1369.00150472 1.2587890625 1345.44921875 1.2587890625 c 2,42,-1
 1295.84179688 1.2587890625 l 2,43,44
 1131 1 1131 1 959.9375 71.6484375 c 1,45,46
 810 1 810 1 516.380859375 0.6484375 c 2,11,-1
EndSplineSet
EndChar

StartChar: uniFECA
Encoding: 65226 65226 210
Width: 1263
VWidth: 3739
GlyphClass: 2
Flags: W
AnchorPoint: "Anchor-7" 562.136 -813.44 basechar 0
AnchorPoint: "Anchor-10" 644.396 1193.45 basechar 0
LayerCount: 2
Fore
SplineSet
788.768554688 -654.81640625 m 0,0,1
 418 -655 418 -655 249.965820312 -507.939453125 c 4,2,3
 105 -382 105 -382 103.260742188 -164.354492188 c 0,4,5
 102 23 102 23 178.540039062 162 c 0,6,7
 284 354 284 354 497 469.383789062 c 0,8,9
 570 509 570 509 649.94921875 537.368164062 c 1,10,11
 602.933166301 632.134711414 602.933166301 632.134711414 343.096679688 633.58203125 c 2,12,-1
 340.116210938 633.598632812 l 1,13,-1
 339.991210938 760.005859375 l 1,14,15
 444 826 444 826 739.80859375 823.9375 c 0,16,17
 1038 822 1038 822 1038.52636719 679.6796875 c 0,18,19
 1039 541 1039 541 826.918945312 427.856445312 c 1,20,21
 886.959869079 182.164218913 886.959869079 182.164218913 1228.66113281 180.228515625 c 2,22,-1
 1269 180 l 2,23,24
 1293 180 1293 180 1293 102 c 2,25,-1
 1293 77 l 2,26,27
 1293 0 1293 0 1269 0 c 2,28,-1
 1232.81933594 0 l 2,29,30
 764 0 764 0 716.598632812 380.681640625 c 1,31,32
 663 368 663 368 569.0078125 320.376953125 c 0,33,34
 248 158 248 158 249.989257812 -133.680664062 c 24,35,36
 252 -485 252 -485 765.594726562 -485.2265625 c 0,37,38
 941 -485 941 -485 1145 -457.595703125 c 0,39,40
 1165 -455 1165 -455 1161.71191406 -472 c 0,41,42
 1154 -509 1154 -509 1136 -575 c 0,43,44
 1121 -630 1121 -630 1047 -640.119140625 c 0,45,46
 943 -654 943 -654 788.768554688 -654.81640625 c 0,0,1
EndSplineSet
EndChar

StartChar: uniFECB
Encoding: 65227 65227 211
Width: 1003
VWidth: 3739
GlyphClass: 2
Flags: W
AnchorPoint: "Anchor-10" 465.836 1172.17 basechar 0
AnchorPoint: "Anchor-7" 448.066 -231.427 basechar 0
LayerCount: 2
Fore
SplineSet
-5 179.999023438 m 2,0,-1
 266.38671875 179.999023438 l 1,1,2
 125 287 125 287 124.620117188 430.444335938 c 0,3,4
 125 586 125 586 216 698 c 0,5,6
 333 841 333 841 517.108398438 841.420898438 c 0,7,8
 685 841 685 841 810.186523438 719.42578125 c 1,9,-1
 763.728515625 598.19140625 l 1,10,11
 614 656 614 656 534.655273438 656.245117188 c 0,12,13
 399 656 399 656 292.173828125 520.424804688 c 0,14,15
 264 485 264 485 264.1875 447.553710938 c 0,16,17
 264 381 264 381 364.0546875 305.606445312 c 0,18,19
 459 235 459 235 484.029296875 221.478515625 c 4,20,21
 864.16015625 313.38671875 l 0,22,23
 908.183543979 324.044434553 908.183543979 324.044434553 902.395507812 290.987304688 c 2,24,-1
 876.956054688 145.6953125 l 1,25,26
 387.71085601 1.50422607601 387.71085601 1.50422607601 62.5625 0.2587890625 c 2,27,-1
 -5 0 l 2,28,29
 -60.3662109375 -0 -60.3662109375 -0 -60.3662109375 77 c 2,30,-1
 -60.3662109375 102 l 2,31,32
 -60 180 -60 180 -5 179.999023438 c 2,0,-1
EndSplineSet
EndChar

StartChar: uniFECC
Encoding: 65228 65228 212
Width: 959
VWidth: 3741
GlyphClass: 2
Flags: W
AnchorPoint: "Anchor-10" 482.738 1068.06 basechar 0
AnchorPoint: "Anchor-7" 429.112 -231.153 basechar 0
LayerCount: 2
Fore
SplineSet
-5 179.999023438 m 6,0,-1
 63.5791015625 179.961914062 l 6,1,2
 355 180 355 180 462.078125 319.1796875 c 1,3,4
 410 478 410 478 145.420898438 497.96484375 c 1,5,-1
 145.319335938 613.874023438 l 1,6,7
 258 683 258 683 500 683.619140625 c 0,8,9
 648 684 648 684 737.1875 639.69140625 c 0,10,11
 812 602 812 602 805.87109375 545.641601562 c 0,12,13
 797 455 797 455 625 305.572265625 c 1,14,15
 711 180 711 180 922.732421875 180 c 6,16,-1
 965 180 l 6,17,18
 989 180 989 180 989 102 c 2,19,-1
 989 77 l 2,20,21
 989 0 989 0 965 0 c 2,22,-1
 919.689453125 0 l 2,23,24
 692 0 692 0 535.125 181.731445312 c 5,25,26
 331.335705885 1.29723262636 331.335705885 1.29723262636 62.0966796875 0.2587890625 c 2,27,-1
 -5 0 l 2,28,29
 -60.3662109375 -0 -60.3662109375 -0 -60.3662109375 77 c 2,30,-1
 -60.3662109375 102 l 2,31,32
 -60 180 -60 180 -5 179.999023438 c 6,0,-1
EndSplineSet
EndChar

StartChar: uniFEDA
Encoding: 65242 65242 226
Width: 1936
VWidth: 3705
GlyphClass: 2
Flags: W
AnchorPoint: "Anchor-10" 887.215 1526.87 basechar 0
AnchorPoint: "Anchor-7" 800.608 -212.552 basechar 0
LayerCount: 2
Fore
SplineSet
1722.58886719 549.653320312 m 2,0,1
 1722.89098554 181.446800082 1722.89098554 181.446800082 1913.01269531 180.19140625 c 2,2,-1
 1942 180 l 2,3,4
 1966 180 1966 180 1966 102 c 2,5,-1
 1966 77 l 2,6,7
 1966 -0.108244780802 1966 -0.108244780802 1942 0 c 2,8,-1
 1913.41894531 0.12890625 l 2,9,10
 1719 1 1719 1 1644.73730469 217 c 1,11,12
 1536 2 1536 2 808.87890625 2 c 0,13,14
 477 2 477 2 305.037109375 98.587890625 c 0,15,16
 104 210 104 210 104.243164062 454.830078125 c 0,17,18
 104 625 104 625 174.85546875 766.762695312 c 1,19,-1
 276.431640625 732.233398438 l 1,20,21
 244 613 244 613 243.690429688 523.778320312 c 0,22,23
 244 424 244 424 284.80859375 362.3515625 c 0,24,25
 406 180 406 180 825.046875 180.487304688 c 0,26,27
 1105 181 1105 181 1305.89550781 221.599609375 c 0,28,29
 1451 251 1451 251 1537.30078125 300.086914062 c 0,30,31
 1581 325 1581 325 1580 574 c 128,-1,32
 1579 823 1579 823 1568.0234375 976.764648438 c 0,33,34
 1563 1047 1563 1047 1537.86523438 1299.42089844 c 1,35,-1
 1685.09472656 1412.51171875 l 2,36,37
 1721.85759558 1440.89007378 1721.85759558 1440.89007378 1721.89941406 1389.92382812 c 2,38,-1
 1722.58886719 549.653320312 l 2,0,1
848.966796875 1126.08984375 m 0,39,40
 847 1081 847 1081 1004.56347656 1053.05273438 c 0,41,42
 1162 1026 1162 1026 1162.99902344 872.706054688 c 0,43,44
 1164 720 1164 720 1018.08007812 667.928710938 c 0,45,46
 957 646 957 646 862.77734375 649.596679688 c 0,47,48
 768 653 768 653 669.856445312 684.34375 c 1,49,-1
 683.578125 824.89453125 l 1,50,51
 794 786 794 786 885.76953125 787.314453125 c 0,52,53
 1067 790 1067 790 1075.1953125 858.447265625 c 0,54,55
 1077 874 1077 874 1063.83007812 887.377929688 c 0,56,57
 1036 916 1036 916 939.595703125 937.001953125 c 0,58,59
 766 975 766 975 770.80859375 1142.73046875 c 0,60,61
 776 1339 776 1339 1088.7578125 1365.15136719 c 0,62,63
 1145.43876857 1369.84775838 1145.43876857 1369.84775838 1131.62695312 1330.31835938 c 2,64,-1
 1094.68066406 1224.578125 l 1,65,66
 852 1200 852 1200 848.966796875 1126.08984375 c 0,39,40
EndSplineSet
EndChar

StartChar: uniFEDB
Encoding: 65243 65243 227
Width: 975
VWidth: 3745
GlyphClass: 2
Flags: W
AnchorPoint: "Anchor-10" 250.736 1471.92 basechar 0
AnchorPoint: "Anchor-7" 335.081 -261.885 basechar 0
LayerCount: 2
Fore
SplineSet
38.662109375 955.13671875 m 5,0,1
 75.662109375 1143.13671875 l 5,2,-1
 880.387695312 1436.50878906 l 2,3,4
 921.639400838 1451.86575803 921.639400838 1451.86575803 914.7734375 1408.34667969 c 6,5,-1
 892 1264 l 5,6,-1
 219 1033 l 5,7,8
 694 607 694 607 698.224609375 393.499023438 c 4,9,10
 701 259 701 259 619.263671875 173.694335938 c 4,11,12
 452 0 452 0 96.552734375 0 c 6,13,14
 -5 0 l 6,15,16
 -60.3662109375 0 -60.3662109375 0 -60.3662109375 77 c 6,17,-1
 -60.3662109375 102 l 6,18,19
 -60.000004585 179.999023438 -60.000004585 179.999023438 -5 179.999023438 c 6,20,-1
 96.5732421875 179.999023438 l 6,21,22
 380.538550572 180.000008809 380.538550572 180.000008809 514.095703125 293.864257812 c 4,23,24
 560 333 560 333 557.43359375 385.891601562 c 4,25,26
 550 523 550 523 38.662109375 955.13671875 c 5,0,1
EndSplineSet
EndChar

StartChar: uniFEDC
Encoding: 65244 65244 228
Width: 1211
VWidth: 3745
GlyphClass: 2
Flags: W
AnchorPoint: "Anchor-10" 242.919 1473.12 basechar 0
AnchorPoint: "Anchor-7" 404.945 -250.381 basechar 0
LayerCount: 2
Fore
SplineSet
38.662109375 955.13671875 m 1,0,1
 75.662109375 1143.13671875 l 1,2,-1
 880.387695312 1436.50878906 l 2,3,4
 921.639400838 1451.86575803 921.639400838 1451.86575803 914.7734375 1408.34667969 c 2,5,-1
 892 1264 l 1,6,-1
 219 1033 l 1,7,8
 524 757 524 757 749.3984375 486.853515625 c 0,9,10
 1001.7887729 184.253248112 1001.7887729 184.253248112 1203.55957031 180.265625 c 6,11,-1
 1217 180 l 2,12,13
 1241 180 1241 180 1241 102 c 2,14,-1
 1241 77 l 2,15,16
 1241 0 1241 0 1217 0 c 2,17,-1
 1203.9765625 0 l 2,18,19
 946 0 946 0 706.791992188 315.80859375 c 1,20,21
 645 171 645 171 482.638671875 78.162109375 c 0,22,23
 346 0 346 0 95.486328125 0 c 2,24,-1
 -5 0 l 2,25,26
 -60.3662109375 0 -60.3662109375 0 -60.3662109375 77 c 2,27,-1
 -60.3662109375 102 l 2,28,29
 -60.000004585 179.999023438 -60.000004585 179.999023438 -5 179.999023438 c 2,30,-1
 95.5068359375 179.999023438 l 2,31,32
 383 180 383 180 513.030273438 294.399414062 c 0,33,34
 572 347 572 347 567.137695312 414.953125 c 0,35,36
 560 512 560 512 38.662109375 955.13671875 c 1,0,1
EndSplineSet
EndChar

StartChar: uniFEDE
Encoding: 65246 65246 230
Width: 1379
VWidth: 3705
GlyphClass: 2
Flags: W
AnchorPoint: "Anchor-10" 587.374 1003.89 basechar 0
AnchorPoint: "Anchor-7" 616.521 -751.186 basechar 0
LayerCount: 2
Fore
SplineSet
653.125 -359.364257812 m 0,0,1
 1012 -360 1012 -360 1029.62597656 -32 c 0,2,3
 1033 30 1033 30 1029.85449219 114 c 0,4,5
 986 1238 986 1238 972.236328125 1312.83886719 c 1,6,-1
 1117 1400 l 2,7,8
 1145.20136412 1417.12225679 1145.20136412 1417.12225679 1146 1382 c 2,9,-1
 1169.19238281 362.049804688 l 2,10,11
 1173 180 1173 180 1360.6015625 180 c 2,12,-1
 1385 180 l 2,13,14
 1409 180 1409 180 1409 102 c 2,15,-1
 1409 77 l 2,16,17
 1409 0 1409 0 1385 0 c 2,18,-1
 1362.36328125 0 l 2,19,20
 1214 0 1214 0 1173.76660156 59.3427734375 c 1,21,22
 1173 -535 1173 -535 656.619140625 -538.935546875 c 0,23,24
 381 -541 381 -541 237.024414062 -386.934570312 c 0,25,26
 107 -246 107 -246 106.561523438 -25.052734375 c 0,27,28
 107 164 107 164 209.770507812 384.857421875 c 1,29,-1
 320.032226562 352.3203125 l 1,30,31
 260 159 260 159 260.487304688 18.580078125 c 0,32,33
 260 -359 260 -359 653.125 -359.364257812 c 0,0,1
EndSplineSet
EndChar

StartChar: uniFEDF
Encoding: 65247 65247 231
Width: 556
VWidth: 3705
GlyphClass: 2
Flags: W
AnchorPoint: "Anchor-10" 258.796 1522.56 basechar 0
AnchorPoint: "Anchor-7" 183.305 -251.229 basechar 0
LayerCount: 2
Fore
SplineSet
-5 179.999023438 m 2,0,-1
 16.552734375 179.999023438 l 2,1,2
 140 180 140 180 192 203.721679688 c 0,3,4
 260 235 260 235 267.282226562 367 c 0,5,6
 273 463 273 463 262.478515625 672.23046875 c 0,7,8
 252 866 252 866 206.827148438 1313.14941406 c 5,9,-1
 344 1393.48046875 l 6,10,11
 379.676853196 1413.81581053 379.676853196 1413.81581053 381 1376 c 6,12,-1
 410.239257812 540.3359375 l 2,13,14
 420 271 420 271 365.708007812 163.354492188 c 0,15,16
 285 0 285 0 10.892578125 0 c 2,17,-1
 -5 0 l 2,18,19
 -60.3662109375 0 -60.3662109375 0 -60.3662109375 77 c 2,20,-1
 -60.3662109375 102 l 2,21,22
 -60 180 -60 180 -5 179.999023438 c 2,0,-1
EndSplineSet
EndChar

StartChar: uniFEE0
Encoding: 65248 65248 232
Width: 651
VWidth: 3705
GlyphClass: 2
Flags: W
AnchorPoint: "Anchor-10" 288.267 1508.21 basechar 0
AnchorPoint: "Anchor-7" 284.362 -247.795 basechar 0
LayerCount: 2
Fore
SplineSet
-5 179.999023438 m 2,0,-1
 39.7373046875 179.999023438 l 2,1,2
 112 180 112 180 155 203.032226562 c 0,3,4
 246 254 246 254 262.838867188 370 c 0,5,6
 271 428 271 428 268.017578125 532 c 0,7,8
 255 919 255 919 232.544921875 1314.41601562 c 5,9,-1
 382 1403 l 6,10,11
 407.186523437 1418.01408688 407.186523437 1418.01408688 407.186523438 1382 c 6,12,-1
 407.186523438 430.708984375 l 2,13,14
 406.999994037 179.991985642 406.999994037 179.991985642 626.537109375 179.999023438 c 2,15,-1
 657 180 l 2,16,17
 681 180 681 180 681 102 c 2,18,-1
 681 77 l 2,19,20
 681 0 681 0 657 0 c 2,21,-1
 626.051757812 0 l 2,22,23
 419 0 419 0 324.0078125 147.907226562 c 1,24,25
 209 0 209 0 46.2060546875 0 c 2,26,-1
 -5 0 l 2,27,28
 -60.3662109375 0 -60.3662109375 0 -60.3662109375 77 c 2,29,-1
 -60.3662109375 102 l 2,30,31
 -60 180 -60 180 -5 179.999023438 c 2,0,-1
EndSplineSet
EndChar

StartChar: uniFEE2
Encoding: 65250 65250 234
Width: 1249
VWidth: 3782
GlyphClass: 2
Flags: W
AnchorPoint: "Anchor-10" 569.784 1171.23 basechar 0
AnchorPoint: "Anchor-7" 201.916 -827.977 basechar 0
LayerCount: 2
Fore
SplineSet
1255 0 m 2,0,-1
 1248.08691406 0 l 2,1,2
 1137 0 1137 0 1057 76 c 1,3,4
 978 -193 978 -193 774.975585938 -193.045898438 c 0,5,6
 493.065708571 -193.000010696 493.065708571 -193.000010696 491.208007812 158.155273438 c 2,7,8
 490.407226562 309.524414062 l 1,9,10
 312 256 312 256 246.500976562 144.25390625 c 1,11,-1
 261.356445312 -479.451171875 l 2,12,13
 263 -543 263 -543 160.544921875 -648.950195312 c 0,14,15
 144 -666 144 -666 133.09375 -666.153320312 c 0,16,17
 117.758362602 -665.997545479 117.758362602 -665.997545479 116.5 -629.165039062 c 2,18,-1
 103.159179688 -238.676757812 l 2,19,20
 101 -175 101 -175 100.885742188 -76.337890625 c 0,21,22
 101 13 101 13 108.723632812 90.7021484375 c 0,23,24
 124 244 124 244 239.178710938 360.98828125 c 0,25,26
 354 478 354 478 516.522460938 493.297851562 c 1,27,28
 538 594 538 594 561.303710938 639.526367188 c 0,29,30
 571.914299198 660.82794897 571.914299198 660.82794897 591.916015625 645.4765625 c 2,31,-1
 1098.52636719 256.651367188 l 2,32,33
 1198.00644501 179.995033674 1198.00644501 179.995033674 1243.79296875 179.999023438 c 2,34,-1
 1255 180 l 2,35,36
 1279 180 1279 180 1279 102 c 2,37,-1
 1279 77 l 2,38,39
 1279 0 1279 0 1255 0 c 2,0,-1
626.899414062 394.45703125 m 1,40,-1
 626.67578125 163.111328125 l 2,41,42
 627 -9 627 -9 786.8828125 -9.755859375 c 0,43,44
 879 -10 879 -10 913.763671875 63.1689453125 c 0,45,46
 926 89 926 89 926.014648438 120.701171875 c 4,47,48
 926 175 926 175 861.763671875 235.66015625 c 0,49,50
 778 314 778 314 626.899414062 394.45703125 c 1,40,-1
EndSplineSet
EndChar

StartChar: uniFEE3
Encoding: 65251 65251 235
Width: 1008
VWidth: 3749
GlyphClass: 2
Flags: W
AnchorPoint: "Anchor-10" 543.686 1120.83 basechar 0
AnchorPoint: "Anchor-7" 517.424 -258.974 basechar 0
LayerCount: 2
Fore
SplineSet
-5 179.999023438 m 2,0,-1
 11.01953125 179.999023438 l 2,1,2
 90 180 90 180 194 317 c 0,3,4
 316 477 316 477 387.878927003 566 c 0,5,6
 491 694 491 694 606.325195312 694.09375 c 0,7,8
 718 694 718 694 790.948242188 598.036132812 c 0,9,10
 907 447 907 447 907.232603351 289.963508471 c 0,11,12
 907 134 907 134 808.014648438 39.3388671875 c 0,13,14
 745 -21 745 -21 689.65625 -21.083984375 c 0,15,16
 552 -21 552 -21 295.989257812 179.768554688 c 5,17,18
 159 0 159 0 12.4541015625 0 c 2,19,-1
 -5 0 l 2,20,21
 -60.3662109375 0 -60.3662109375 0 -60.3662109375 77 c 2,22,-1
 -60.3662109375 102 l 2,23,24
 -60 180 -60 180 -5 179.999023438 c 2,0,-1
396.130859375 330.145507812 m 1,25,26
 577 174 577 174 675.114503226 173.997705898 c 0,27,28
 717 174 717 174 744.59375 202.744140625 c 128,-1,29
 772.288173863 231.297107417 772.288173863 231.297107417 772.249229211 279 c 0,30,31
 772.191487528 349.727177387 772.191487528 349.727177387 724.272460938 418 c 0,32,33
 661 509 661 509 605.106000554 509.497915714 c 0,34,35
 519 509 519 509 396.130859375 330.145507812 c 1,25,26
EndSplineSet
EndChar

StartChar: uniFEE4
Encoding: 65252 65252 236
Width: 1145
VWidth: 3749
GlyphClass: 2
Flags: W
AnchorPoint: "Anchor-10" 573.076 1072.23 basechar 0
AnchorPoint: "Anchor-7" 517.449 -276.66 basechar 0
LayerCount: 2
Fore
SplineSet
-5 179.999023438 m 6,0,-1
 31.01953125 179.999023438 l 6,1,2
 131 180 131 180 221 291 c 4,3,4
 375 479 375 479 441 548.827082645 c 4,5,6
 521 633 521 633 621.812432367 633.01036761 c 4,7,8
 710 633 710 633 772.264648438 569.344726562 c 4,9,10
 855 486 855 486 944.547851562 301.848632812 c 4,11,12
 1003 180 1003 180 1133.34765625 180 c 6,13,-1
 1151 180 l 6,14,15
 1175 180 1175 180 1175 102 c 6,16,-1
 1175 77 l 6,17,18
 1175 0 1175 0 1151 0 c 6,19,-1
 1133.44726562 0 l 6,20,21
 991 0 991 0 887.565429688 110.67578125 c 5,22,23
 798 -49 798 -49 687.361328125 -49.697265625 c 4,24,25
 549 -50 549 -50 306.024414062 139.534179688 c 5,26,27
 195 0 195 0 32.4541015625 0 c 6,28,-1
 -5 0 l 6,29,30
 -60.3662109375 0 -60.3662109375 0 -60.3662109375 77 c 6,31,-1
 -60.3662109375 102 l 6,32,33
 -60 180 -60 180 -5 179.999023438 c 6,0,-1
416.134765625 284.944335938 m 5,34,35
 583 140 583 140 678.0859375 139.565429688 c 4,36,37
 784.423451836 140.109640216 784.423451836 140.109640216 784.423451836 250.783921418 c 4,38,39
 784.423451836 316.296501602 784.423451836 316.296501602 735.3828125 383.169921875 c 4,40,41
 680 459 680 459 610.704101562 458.977539062 c 4,42,43
 536 459 536 459 416.134765625 284.944335938 c 5,34,35
EndSplineSet
EndChar

StartChar: uniFEEA
Encoding: 65258 65258 242
Width: 1036
VWidth: 3733
GlyphClass: 2
Flags: W
AnchorPoint: "Anchor-10" 587.224 1208.82 basechar 0
AnchorPoint: "Anchor-7" 432.803 -196.268 basechar 0
LayerCount: 2
Fore
SplineSet
1042 0 m 6,0,-1
 990.321289062 0 l 2,1,2
 769 0 769 0 684.489257812 236.897460938 c 1,3,-1
 512.211914062 135.474609375 l 1,4,-1
 511.369140625 135.487304688 l 2,5,6
 132 141 132 141 101.947265625 260.927734375 c 0,7,8
 93 297 93 297 92.4579552204 382.812538671 c 0,9,10
 92 441 92 441 106.29296875 487.627929688 c 0,11,12
 159 668 159 668 555.028320312 803.076171875 c 1,13,-1
 542.123046875 869.541015625 l 1,14,-1
 623.490234375 965.895507812 l 2,15,16
 636 981 636 981 641.3359375 983.454101562 c 0,17,18
 662.870674617 992.943014983 662.870674617 992.943014983 675 933 c 2,19,-1
 781.866210938 404.868164062 l 2,20,21
 827 180 827 180 991.045898438 180 c 2,22,-1
 1042 180 l 6,23,24
 1066 180 1066 180 1066 102 c 6,25,-1
 1066 77 l 6,26,27
 1066 0 1066 0 1042 0 c 6,0,-1
234.090820312 393.059570312 m 0,28,29
 266.380723526 328.274307637 266.380723526 328.274307637 503.953025085 328.274307637 c 0,30,31
 545.296736652 328.274307637 545.296736652 328.274307637 592.857421875 330.236328125 c 2,32,-1
 655.029296875 332.8828125 l 1,33,-1
 588.43359375 633.127929688 l 1,34,35
 317 548 317 548 260 488 c 0,36,37
 227.128363033 453.758711493 227.128363033 453.758711493 227.128363033 421.890292325 c 0,38,39
 227.128363033 407.223635628 227.128363033 407.223635628 234.090820312 393.059570312 c 0,28,29
EndSplineSet
EndChar

StartChar: uniFEEB
Encoding: 65259 65259 243
Width: 1226
VWidth: 3739
GlyphClass: 2
Flags: W
AnchorPoint: "Anchor-10" 538.316 1341.29 basechar 0
AnchorPoint: "Anchor-7" 525.812 -214.204 basechar 0
LayerCount: 2
Fore
SplineSet
-5 179.999023438 m 6,0,-1
 59.1103515625 180 l 6,1,2
 252 180 252 180 347.5546875 215.177734375 c 1,3,4
 146 289 146 289 143.479748646 452.587715486 c 0,5,6
 143 481 143 481 150.268554688 513.397460938 c 0,7,8
 193 712 193 712 389.01171875 830.481445312 c 1,9,-1
 257.727539062 884.189453125 l 1,10,-1
 320.350585938 1056.64550781 l 1,11,-1
 701.23046875 876.831054688 l 1,12,13
 1125 676 1125 676 1125.83121916 418.535769481 c 0,14,15
 1126 383 1126 383 1117.86230469 347.336914062 c 0,16,17
 1093 234 1093 234 1032 152.5 c 0,18,19
 962 59 962 59 868.555847153 59.4867263815 c 0,20,21
 775 59 775 59 502.42578125 142.095703125 c 1,22,23
 283 0 283 0 47.8837890625 0 c 2,24,-1
 -5 0 l 2,25,26
 -60.3662109375 0 -60.3662109375 0 -60.3662109375 77 c 2,27,-1
 -60.3662109375 102 l 2,28,29
 -60 180 -60 180 -5 179.999023438 c 6,0,-1
644.173828125 288.377929688 m 1,30,31
 819 227 819 227 925.875976562 221.157226562 c 1,32,33
 989.621165966 326.26182515 989.621165966 326.26182515 989.621165966 403.274089449 c 0,34,35
 989.621165966 441.183696159 989.621165966 441.183696159 974.174804688 472.286132812 c 0,36,37
 941 539 941 539 772.520507812 618.564453125 c 1,38,39
 772.817621302 609.826226717 772.817621302 609.826226717 772.817621302 601.195113277 c 0,40,41
 772.817621302 421.597708062 772.817621302 421.597708062 644.173828125 288.377929688 c 1,30,31
505.2734375 336.993164062 m 1,42,43
 609 404 609 404 645.170898438 549.45703125 c 0,44,45
 652.145665357 577.186614208 652.145665357 577.186614208 652.145665357 600.544617322 c 0,46,47
 652.145665357 683.780033323 652.145665357 683.780033323 563.578125 711.50390625 c 0,48,49
 533.950930689 720.722366578 533.950930689 720.722366578 506.180304621 720.722366578 c 0,50,51
 405.931382206 720.722366578 405.931382206 720.722366578 329.875976562 600.59375 c 0,52,53
 284.310554678 528.881209501 284.310554678 528.881209501 284.310554678 487.901035197 c 128,-1,54
 284.310554678 446.920860894 284.310554678 446.920860894 319.830078125 419.421875 c 0,55,56
 391 366 391 366 505.2734375 336.993164062 c 1,42,43
EndSplineSet
EndChar

StartChar: uniFEEC
Encoding: 65260 65260 244
Width: 928
VWidth: 3768
GlyphClass: 2
Flags: W
AnchorPoint: "Anchor-7" 339.865 -725.584 basechar 0
AnchorPoint: "Anchor-10" 439.619 1211.17 basechar 0
LayerCount: 2
Fore
SplineSet
-5 179.999023438 m 6,0,-1
 164.1796875 180.375 l 5,1,2
 200 489 200 489 317.2890625 692 c 4,3,4
 403 840 403 840 458.487304688 840.541015625 c 4,5,6
 497 841 497 841 580.112304688 753 c 4,7,8
 727 598 727 598 727.180664062 406.434570312 c 4,9,10
 727 222 727 222 612.439453125 121.495117188 c 0,11,12
 496 19 496 19 302.770507812 -0.92578125 c 1,13,14
 374 -181 374 -181 541.434570312 -308.951171875 c 1,15,16
 600 180 600 180 911.092773438 180 c 6,17,-1
 934 180 l 6,18,19
 958 180 958 180 958 102 c 2,20,-1
 958 77 l 2,21,22
 958 0 958 0 934 0 c 2,23,-1
 904.28515625 0 l 2,24,25
 696 0 696 0 695.977539062 -257.297851562 c 0,26,27
 696 -354 696 -354 718.635742188 -429.940429688 c 1,28,-1
 586.017578125 -550.971679688 l 1,29,30
 217 -287 217 -287 171.772460938 0.109375 c 1,31,-1
 -5 0 l 2,32,33
 -60.3662109375 -0 -60.3662109375 -0 -60.3662109375 77 c 2,34,-1
 -60.3662109375 102 l 2,35,36
 -60 180 -60 180 -5 179.999023438 c 6,0,-1
291.271484375 182.501953125 m 5,37,38
 606 193 606 193 606.0546875 355.203125 c 4,39,40
 606 454 606 454 443.221679688 638.567382812 c 5,41,42
 336 472 336 472 291.271484375 182.501953125 c 5,37,38
EndSplineSet
EndChar

StartChar: uniFEEE
Encoding: 65262 65262 246
Width: 816
VWidth: 3773
GlyphClass: 2
Flags: W
AnchorPoint: "Anchor-7" 356.313 -677.669 basechar 0
AnchorPoint: "Anchor-10" 406.024 1186.41 basechar 0
LayerCount: 2
Fore
SplineSet
61.212890625 -401.844726562 m 4,0,1
 487 -284 487 -284 555.234375 0.3994140625 c 1,2,-1
 431.193359375 0 l 2,3,4
 232 -1 232 -1 160.512695312 69.6064453125 c 0,5,6
 88 142 88 142 95.560546875 261.30078125 c 0,7,8
 104 401 104 401 164 515.98046875 c 0,9,10
 243 668 243 668 400.532226562 667.788085938 c 0,11,12
 568 668 568 668 652.97265625 480.303710938 c 0,13,14
 704 368 704 368 707.544921875 180 c 1,15,-1
 822 180 l 2,16,17
 846 180 846 180 846 102 c 2,18,-1
 846 77 l 2,19,20
 846 0 846 0 822 0 c 2,21,-1
 698.921875 0 l 1,22,23
 682 -104 682 -104 643.513671875 -178.618164062 c 0,24,25
 555.631632914 -346.615806913 555.631632914 -346.615806913 371.763671875 -455.211914062 c 4,26,27
 279 -510 279 -510 174.038085938 -535.3515625 c 4,28,29
 163 -538 163 -538 152.479492188 -537.866210938 c 4,30,31
 131 -538 131 -538 98.923828125 -504 c 4,32,33
 87 -492 87 -492 64.13671875 -460.24609375 c 4,34,35
 45 -435 45 -435 45.306640625 -419.809570312 c 4,36,37
 45 -406 45 -406 61.212890625 -401.844726562 c 4,0,1
563.814453125 180.555664062 m 1,38,39
 551 347 551 347 495.333007812 428 c 0,40,41
 452 491 452 491 391.065429688 490.7421875 c 0,42,43
 297 491 297 491 260.943359375 383.198242188 c 0,44,45
 241 322 241 322 241.311523438 278.197265625 c 0,46,47
 241 212 241 212 305.215820312 189.265625 c 0,48,49
 337 178 337 178 461.477539062 178.672851562 c 0,50,51
 496 179 496 179 563.814453125 180.555664062 c 1,38,39
EndSplineSet
EndChar

StartChar: uniFEF0
Encoding: 65264 65264 248
Width: 1441
VWidth: 3745
GlyphClass: 2
Flags: W
AnchorPoint: "Anchor-10" 684.539 784.408 basechar 0
AnchorPoint: "Anchor-7" 645.513 -714.205 basechar 0
LayerCount: 2
Fore
SplineSet
673.813476562 -359.276367188 m 0,0,1
 983 -359 983 -359 1125.73242188 -215.44140625 c 0,2,3
 1163 -178 1163 -178 1163.23632812 -143.415039062 c 0,4,5
 1163 -93 1163 -93 1107.39355469 -53.5849609375 c 0,6,7
 1050 -14 1050 -14 945.193359375 -2.484375 c 0,8,9
 852 7 852 7 840.94921875 12.671875 c 0,10,11
 830 18 830 18 833.204101562 44.79296875 c 0,12,13
 851 180 851 180 922.348632812 180 c 2,14,-1
 1447 180 l 2,15,16
 1471 180 1471 180 1471 102 c 2,17,-1
 1471 77 l 2,18,19
 1471 -0.121669220513 1471 -0.121669220513 1447 0 c 2,20,-1
 1250.70703125 0.9951171875 l 1,21,22
 1312 -43 1312 -43 1312.0703125 -133.166015625 c 0,23,24
 1311.96826956 -291.114316851 1311.96826956 -291.114316851 1121 -418.440385609 c 4,25,26
 940.229497944 -538.967201019 940.229497944 -538.967201019 667.483398438 -538.856445312 c 8,27,28
 457 -539 457 -539 309 -446.66796875 c 0,29,30
 107 -321 107 -321 106.9296875 -34.5048828125 c 0,31,32
 107 169 107 169 204.79296875 384.94140625 c 1,33,-1
 315.0546875 352.40234375 l 1,34,35
 258 165 258 165 257.880859375 13.18359375 c 0,36,37
 258 -360 258 -360 673.813476562 -359.276367188 c 0,0,1
EndSplineSet
EndChar

StartChar: uniFEFB
Encoding: 65275 65275 259
Width: 1197
VWidth: 3705
GlyphClass: 3
Flags: W
AnchorPoint: "Anchor-9" 200.839 1398.33 baselig 1
AnchorPoint: "Anchor-9" 908.282 1535.62 baselig 0
AnchorPoint: "Anchor-6" 900.383 -179.223 baselig 0
AnchorPoint: "Anchor-6" 263.478 -263.959 baselig 1
LayerCount: 2
Fore
SplineSet
603.092773438 196.850585938 m 1,0,1
 454 693 454 693 102 1169 c 1,2,-1
 253.931640625 1282.8828125 l 1,3,4
 533 838 533 838 721.35546875 252.651367188 c 1,5,6
 887 346 887 346 901.798828125 489.8671875 c 0,7,8
 917 644 917 644 849.234375 1315.09863281 c 1,9,-1
 985 1399 l 2,10,11
 1023.62112184 1422.76684421 1023.62112184 1422.76684421 1025 1380 c 2,12,13
 1048.72851562 644.043945312 l 2,14,15
 1059 323 1059 323 878.654296875 149.124023438 c 0,16,17
 697.903160755 -24.0928026627 697.903160755 -24.0928026627 235.874023438 -25.8291015625 c 2,18,-1
 233.275390625 -25.8388671875 l 1,19,20
 152 82 152 82 143.658203125 107.208984375 c 0,21,22
 136 130 136 130 146.59375 130.485351562 c 0,23,24
 471 151 471 151 603.092773438 196.850585938 c 1,0,1
EndSplineSet
LCarets2: 1 0
Ligature2: "'rlig' Required Ligatures in Arabic lookup 16 subtable" uniFEDF uniFE8E
EndChar

StartChar: uniFEFC
Encoding: 65276 65276 260
Width: 1281
VWidth: 3705
GlyphClass: 3
Flags: W
AnchorPoint: "Anchor-9" 908.282 1535.62 baselig 0
AnchorPoint: "Anchor-9" 200.839 1398.33 baselig 1
AnchorPoint: "Anchor-6" 931.695 -210.265 baselig 0
AnchorPoint: "Anchor-6" 258.932 -246.661 baselig 1
LayerCount: 2
Fore
SplineSet
1287 0 m 2,0,-1
 1246.6796875 0 l 2,1,2
 1012 0 1012 0 951.197265625 265.041992188 c 1,3,4
 762 -25 762 -25 233.275390625 -25.8388671875 c 1,5,6
 152 82 152 82 143.658203125 107.208984375 c 0,7,8
 136 130 136 130 146.59375 130.485351562 c 0,9,10
 471 151 471 151 602.092773438 196.850585938 c 1,11,12
 452 695 452 695 102 1169 c 1,13,-1
 253.931640625 1282.8828125 l 1,14,15
 533 838 533 838 721.35546875 252.651367188 c 1,16,17
 881 345 881 345 897.793945312 519.810546875 c 0,18,19
 906 602 906 602 905.51953125 627.924804688 c 0,20,21
 906 762 906 762 849.23046875 1314.09472656 c 1,22,-1
 996 1401 l 2,23,24
 1023.59640264 1416.76937294 1023.59640264 1416.76937294 1025 1375 c 2,25,-1
 1052.99316406 541.95703125 l 2,26,27
 1065.00568785 182.829955821 1065.00568785 182.829955821 1247.01171875 180.509765625 c 2,28,-1
 1287 180 l 2,29,30
 1311 180 1311 180 1311 102 c 2,31,-1
 1311 77 l 2,32,33
 1311 0 1311 0 1287 0 c 2,0,-1
EndSplineSet
LCarets2: 1 0
Ligature2: "'rlig' Required Ligatures in Arabic lookup 16 subtable" uniFEE0 uniFE8E
EndChar

StartChar: arabic_dot
Encoding: 65536 -1 261
Width: 233
VWidth: 3243
GlyphClass: 2
Flags: W
LayerCount: 2
Fore
SplineSet
128.224922417 262.752535769 m 2,0,-1
 251.634773213 139.343659963 l 6,1,2
 260.495457557 129.930276127 260.495457557 129.930276127 249.018858176 117.783586824 c 6,3,-1
 130.684738366 -0.551511981399 l 2,4,5
 116.098369592 -14.4169133456 116.098369592 -14.4169133456 101.857950593 -0.177205656644 c 2,6,-1
 -14.3186485966 115.99939352 l 2,7,8
 -27.5535571732 129.97904538 -27.5535571732 129.97904538 -13.7353475372 144.327071589 c 2,9,-1
 104.917660803 262.980079931 l 2,10,11
 116.866515843 274.112269495 116.866515843 274.112269495 128.224922417 262.752535769 c 2,0,-1
EndSplineSet
EndChar

StartChar: arabic_2dots
Encoding: 65537 -1 262
Width: 612
VWidth: 3243
GlyphClass: 2
Flags: W
LayerCount: 2
Fore
SplineSet
469.197265625 1.3671875 m 2,0,1
 455.959960938 -12.1826171875 455.959960938 -12.1826171875 442.42578125 1.3515625 c 2,2,-1
 331.111328125 112.66796875 l 2,3,4
 317.782226562 126.221679688 317.782226562 126.221679688 331.614257812 140.053710938 c 2,5,-1
 444.680664062 253.120117188 l 2,6,7
 456 264 456 264 466.862304688 253.186523438 c 2,8,-1
 585.596679688 134.451171875 l 2,9,10
 594.561576972 126.158709131 594.561576972 126.158709131 582.696289062 114.8671875 c 2,11,-1
 469.197265625 1.3671875 l 2,0,1
165.53515625 253.181640625 m 2,12,-1
 283.888671875 134.828125 l 2,13,14
 291.908237828 125.410373439 291.908237828 125.410373439 281.313476562 114.815429688 c 2,15,-1
 167.919921875 1.419921875 l 2,16,17
 154.227664605 -11.7805130488 154.227664605 -11.7805130488 141.177734375 1.26953125 c 2,18,-1
 29.455078125 112.993164062 l 2,19,20
 16.116752009 125.887137465 16.116752009 125.887137465 30.283203125 140.053710938 c 2,21,-1
 143.349609375 253.12109375 l 2,22,23
 154 264 154 264 165.53515625 253.181640625 c 2,12,-1
EndSplineSet
EndChar

StartChar: arabic_3dots
Encoding: 65538 -1 263
Width: 590
VWidth: 3243
GlyphClass: 2
Flags: W
LayerCount: 2
Fore
SplineSet
302.28257586 445.682570015 m 2,0,-1
 413.414213562 334.550932312 l 2,1,2
 421.065243531 326.899902344 421.065243531 326.899902344 414.202312136 320.036970949 c 2,3,-1
 304.906313084 210.739018776 l 2,4,5
 295.642490152 201.476348349 295.642490152 201.476348349 286.379718873 210.739119626 c 2,6,-1
 179.12826434 317.992535514 l 2,7,8
 170.199407463 326.878420526 170.199407463 326.878420526 179.647303558 336.326316619 c 2,9,-1
 288.943338938 445.62332855 l 2,10,11
 295.64505839 452.323810154 295.64505839 452.323810154 302.28257586 445.682570015 c 2,0,-1
448.246537372 219.318217877 m 2,12,-1
 560.414213562 107.150541688 l 2,13,14
 567.032339713 100.470265251 567.032339713 100.470265251 560.200421681 93.6376195611 c 2,15,-1
 450.187050188 -16.3874692988 l 2,16,17
 441.804841071 -25.0845259119 441.804841071 -25.0845259119 432.37972531 -15.6593243098 c 2,18,-1
 325.135681887 91.585695862 l 2,19,20
 316.478389511 100.75782464 316.478389511 100.75782464 325.647297238 109.926896237 c 2,21,-1
 434.958040341 219.239592992 l 2,22,23
 442.095920277 225.805752526 442.095920277 225.805752526 448.246537372 219.318217877 c 2,12,-1
268.202312177 93.6385334895 m 2,24,-1
 159.270589996 -15.2951416068 l 2,25,26
 149.802527831 -25.0802595081 149.802527831 -25.0802595081 140.381678436 -15.6593243098 c 2,27,-1
 33.1377260832 91.5856047897 l 2,28,29
 24.4792361902 100.756636191 24.4792361902 100.756636191 33.649244041 109.926889915 c 2,30,-1
 142.913892479 219.194468041 l 2,31,32
 150.031244417 225.168459363 150.031244417 225.168459363 156.201139985 219.366544929 c 2,33,-1
 267.41403061 108.182423202 l 2,34,35
 274.974306945 100.624102583 274.974306945 100.624102583 268.202312177 93.6385334895 c 2,24,-1
EndSplineSet
EndChar

StartChar: arabic_3dots_a
Encoding: 65539 -1 264
Width: 636
VWidth: 3243
GlyphClass: 2
Flags: W
LayerCount: 2
Fore
SplineSet
325.28257586 -205.400343452 m 2,0,1
 318.645058397 -212.041583584 318.645058397 -212.041583584 311.943201995 -205.340965056 c 2,2,-1
 202.647309876 -96.0440963749 l 2,3,4
 193.199411608 -86.596198108 193.199411608 -86.596198108 202.124836061 -77.7137290016 c 2,5,-1
 309.37973175 29.5431198124 l 2,6,7
 318.642490148 38.8058782104 318.642490148 38.8058782104 327.906413698 29.5431071764 c 2,8,-1
 437.2022995 -79.7547317502 l 2,9,10
 439.393152932 -81.9455851817 439.393152932 -81.9455851817 440.006743125 -84.4408034039 c 128,-1,11
 440.620333318 -86.9360216262 440.620333318 -86.9360216262 439.689975503 -89.4294779881 c 128,-1,12
 438.759617689 -91.92293435 438.759617689 -91.92293435 436.414213562 -94.2687057499 c 2,13,-1
 325.28257586 -205.400343452 l 2,0,1
471.246537372 20.9640086851 m 2,14,15
 465.095920276 14.4764740366 465.095920276 14.4764740366 457.95804034 21.0426335708 c 2,16,-1
 348.647309876 130.355317688 l 2,17,18
 339.47844167 139.524185893 339.47844167 139.524185893 348.135671421 148.696520235 c 2,19,-1
 455.37973175 255.941557312 l 2,20,21
 458.315072224 258.876897786 458.315072224 258.876897786 461.384621108 259.991222085 c 128,-1,22
 464.454169992 261.105546384 464.454169992 261.105546384 467.480786646 260.277671079 c 128,-1,23
 470.5074033 259.449795773 470.5074033 259.449795773 473.187025111 256.669720942 c 2,24,-1
 583.200346374 146.644682312 l 2,25,26
 590.063778687 139.78125 590.063778687 139.78125 583.414213562 133.131684876 c 2,27,-1
 471.246537372 20.9640086851 l 2,14,15
291.20230584 146.643699411 m 2,28,29
 298.081688222 139.764317029 298.081688222 139.764317029 290.414033464 132.1002548 c 2,30,-1
 179.200994699 20.9155364008 l 2,31,32
 173.80501104 15.5220566777 173.80501104 15.5220566777 166.180513339 20.8639703793 c 0,33,-1
 165.913892479 21.087758522 l 1,34,-1
 56.6492630001 130.355317688 l 2,35,36
 47.4792398954 139.525340793 47.4792398954 139.525340793 56.1377163024 148.696611992 c 2,37,-1
 163.381684876 255.941557312 l 2,38,39
 172.802813838 265.362686276 172.802813838 265.362686276 182.27060788 255.577350286 c 2,40,-1
 291.20230584 146.643699411 l 2,28,29
EndSplineSet
EndChar

StartChar: uni066E.fina
Encoding: 65540 -1 265
Width: 1942
VWidth: 3745
GlyphClass: 2
Flags: W
AnchorPoint: "Anchor-10" 1039.91 1792.78 basechar 0
AnchorPoint: "Anchor-7" 970.749 -375.569 basechar 0
LayerCount: 2
Fore
SplineSet
1948 0 m 2,0,-1
 1929.09960938 0 l 2,1,2
 1653 0 1653 0 1598.88574219 225.639648438 c 1,3,4
 1430 2 1430 2 815.678710938 2 c 4,5,6
 477 2 477 2 305.037109375 98.587890625 c 4,7,8
 104 210 104 210 104.243164062 454.830078125 c 4,9,10
 104 625 104 625 174.85546875 766.762695312 c 5,11,-1
 276.431640625 732.233398438 l 5,12,13
 244 613 244 613 243.690429688 523.778320312 c 4,14,15
 244 424 244 424 284.80859375 362.3515625 c 4,16,17
 409 180 409 180 818.309570312 180.650390625 c 4,18,19
 1518 182 1518 182 1571.9296875 448.161132812 c 2,20,-1
 1591 541.951171875 l 1,21,-1
 1707.34960938 528.94140625 l 1,22,-1
 1703.81445312 475.5625 l 2,23,24
 1703 463.264707879 1703 463.264707879 1703 437 c 0,25,26
 1703 180 1703 180 1921.35351562 180 c 2,27,-1
 1948 180 l 2,28,29
 1972 180 1972 180 1972 102 c 2,30,-1
 1972 77 l 2,31,32
 1972 0 1972 0 1948 0 c 2,0,-1
EndSplineSet
EndChar

StartChar: uni06A1.fina
Encoding: 65543 -1 266
Width: 1893
VWidth: 3740
GlyphClass: 2
Flags: W
AnchorPoint: "Anchor-10" 746.262 1972.83 basechar 0
AnchorPoint: "Anchor-7" 933.447 -460.558 basechar 0
LayerCount: 2
Fore
SplineSet
1621.99316406 212.904296875 m 5,0,1
 1722 180 1722 180 1864.953125 180 c 6,2,-1
 1899 180 l 6,3,4
 1923 180 1923 180 1923 102 c 2,5,-1
 1923 77 l 2,6,7
 1923 0 1923 0 1899 0 c 2,8,-1
 1862.36328125 0 l 2,9,10
 1637 0 1637 0 1469.5859375 118.1484375 c 1,11,12
 1259 2 1259 2 816.678710938 2 c 0,13,14
 478 2 478 2 306.037109375 98.587890625 c 0,15,16
 105 212 105 212 105.243164062 454.830078125 c 0,17,18
 105 625 105 625 175.85546875 766.762695312 c 1,19,-1
 277.431640625 732.233398438 l 1,20,21
 245 613 245 613 244.690429688 523.778320312 c 0,22,23
 245 424 245 424 285.80859375 362.3515625 c 0,24,25
 407 181 407 181 819.309570312 180.650390625 c 4,26,27
 1121 181 1121 181 1298.21875 220.7890625 c 5,28,29
 1167 322 1167 322 1167.98925781 478.473632812 c 4,30,31
 1169 588 1169 588 1237.17480469 689.913085938 c 4,32,33
 1335 835 1335 835 1472.30859375 835.40625 c 4,34,35
 1609 835 1609 835 1708.10644531 692.874023438 c 4,36,37
 1774 598 1774 598 1774.03515625 497.180664062 c 4,38,39
 1775 328 1775 328 1621.99316406 212.904296875 c 5,0,1
1594.86035156 553.317382812 m 4,40,41
 1538 640 1538 640 1470.58984375 639.643554688 c 4,42,43
 1388 640 1388 640 1333.59375 531.94921875 c 4,44,45
 1315 495 1315 495 1314.86621094 459.94921875 c 4,46,47
 1315 401 1315 401 1371.53613281 345.357421875 c 4,48,49
 1448 271 1448 271 1481.58984375 272.69140625 c 4,50,51
 1513 274 1513 274 1569.18066406 343.94921875 c 4,52,53
 1625 412 1625 412 1625.56738281 469.12109375 c 4,54,55
 1626 508 1626 508 1594.86035156 553.317382812 c 4,40,41
EndSplineSet
EndChar

StartChar: uni06A1.init
Encoding: 65544 -1 267
Width: 832
VWidth: 3773
GlyphClass: 2
Flags: W
AnchorPoint: "Anchor-10" 487.044 2032.37 basechar 0
AnchorPoint: "Anchor-7" 404.877 -373.909 basechar 0
LayerCount: 2
Fore
SplineSet
-5 179.999023438 m 2,0,-1
 179.006835938 179.999023438 l 2,1,2
 589.161039226 180.000000384 589.161039226 180.000000384 586.27734375 387.305664062 c 6,3,-1
 586.189453125 393.624023438 l 5,4,5
 488 373 488 373 416.141601562 373.318359375 c 4,6,7
 297 373 297 373 248.365234375 392.502929688 c 4,8,9
 120 446 120 446 120.326171875 586.2734375 c 4,10,11
 120 698 120 698 155.200195312 791 c 4,12,13
 243 1022 243 1022 415.864257812 1021.99316406 c 4,14,15
 532 1022 532 1022 601.16015625 935.801757812 c 4,16,17
 731 774 731 774 730.543945312 482.743164062 c 4,18,19
 730 302 730 302 682 209.788085938 c 0,20,21
 573 0 573 0 183.461914062 0 c 2,22,-1
 -5 0 l 2,23,24
 -60.3662109375 0 -60.3662109375 0 -60.3662109375 77 c 2,25,-1
 -60.3662109375 102 l 2,26,27
 -60 180 -60 180 -5 179.999023438 c 2,0,-1
407.944335938 833.416015625 m 4,28,29
 293 833 293 833 258.091796875 694.078125 c 4,30,31
 251 666 251 666 251.24609375 642.353515625 c 4,32,33
 251 581 251 581 325.328125 561.37890625 c 4,34,35
 364 551 364 551 411.077148438 551.155273438 c 4,36,37
 516 551 516 551 585.462890625 577.76953125 c 5,38,39
 575 707 575 707 528.12109375 768.87890625 c 4,40,41
 480 833 480 833 407.944335938 833.416015625 c 4,28,29
EndSplineSet
EndChar

StartChar: uni06A1.medi
Encoding: 65545 -1 268
Width: 907
VWidth: 3740
GlyphClass: 2
Flags: W
AnchorPoint: "Anchor-10" 435.076 1478.72 basechar 0
AnchorPoint: "Anchor-7" 408.729 -209.104 basechar 0
LayerCount: 2
Fore
SplineSet
-5 179.999023438 m 6,0,-1
 27.501953125 179.999023438 l 6,1,2
 217 180 217 180 309.62890625 218.83984375 c 5,3,4
 179 319 179 319 179.399414062 476.524414062 c 4,5,6
 180 584 180 584 248.584960938 687.963867188 c 4,7,8
 346 833 346 833 483.71875 833.45703125 c 4,9,10
 622 833 622 833 719.516601562 690.924804688 c 4,11,12
 786 594 786 594 785.4453125 495.231445312 c 4,13,14
 786 326 786 326 633.403320312 210.955078125 c 5,15,16
 722.015237175 179.994676235 722.015237175 179.994676235 877.966796875 179.999023438 c 6,17,-1
 913 180 l 6,18,19
 937 180 937 180 937 102 c 2,20,-1
 937 77 l 2,21,22
 937 0 937 0 913 0 c 2,23,-1
 883.709960938 0 l 2,24,25
 669 0 669 0 479.779296875 118.205078125 c 1,26,27
 303 0 303 0 27.548828125 0 c 2,28,-1
 -5 0 l 2,29,30
 -60.3662109375 0 -60.3662109375 0 -60.3662109375 77 c 2,31,-1
 -60.3662109375 102 l 2,32,33
 -60 180 -60 180 -5 179.999023438 c 6,0,-1
606.270507812 551.368164062 m 4,34,35
 549 638 549 638 482 637.694335938 c 4,36,37
 401 638 401 638 345.00390625 530 c 4,38,39
 326 493 326 493 326.276367188 458 c 4,40,41
 326 399 326 399 382.946289062 343.408203125 c 4,42,43
 459 269 459 269 493 270.7421875 c 4,44,45
 524 272 524 272 580.590820312 342 c 4,46,47
 637 411 637 411 636.977539062 467.171875 c 4,48,49
 637 506 637 506 606.270507812 551.368164062 c 4,34,35
EndSplineSet
EndChar

StartChar: uni066F.fina
Encoding: 65546 -1 269
Width: 1409
VWidth: 3773
GlyphClass: 2
Flags: W
AnchorPoint: "Anchor-10" 460.114 754.358 basechar 0
AnchorPoint: "Anchor-7" 381.375 -884 basechar 0
LayerCount: 2
Fore
SplineSet
1292.3515625 180.243164062 m 5,0,-1
 1415 180 l 6,1,2
 1439 180 1439 180 1439 102 c 2,3,-1
 1439 77 l 2,4,5
 1439 0 1439 0 1415 0 c 2,6,-1
 1291.35351562 0 l 1,7,8
 1247 -536 1247 -536 660.965820312 -538.86328125 c 24,9,10
 449 -540 449 -540 302 -447.248046875 c 0,11,12
 102 -321 102 -321 101.665039062 -35.0888671875 c 0,13,14
 102 169 102 169 199.79296875 384.94140625 c 1,15,-1
 310.0546875 352.40234375 l 1,16,17
 253 165 253 165 252.880859375 13.18359375 c 0,18,19
 253 -359 253 -359 667.813476562 -359.276367188 c 0,20,21
 995 -359 995 -359 1113.14648438 -160.129882812 c 0,22,23
 1144 -108 1144 -108 1149.04101562 0.642578125 c 1,24,-1
 1021 0.2431640625 l 2,25,26
 825 -0 825 -0 753.319335938 69.849609375 c 0,27,28
 686 137 686 137 693.3671875 261.543945312 c 0,29,30
 702 401 702 401 761.806640625 516.223632812 c 0,31,32
 840 668 840 668 990.338867188 668.03125 c 0,33,34
 1153 668 1153 668 1237.77929688 480.546875 c 0,35,36
 1289 368 1289 368 1292.3515625 180.243164062 c 5,0,-1
1153.62109375 180.798828125 m 5,37,38
 1141 347 1141 347 1085.13964844 428.243164062 c 0,39,40
 1042 491 1042 491 980.872070312 490.985351562 c 0,41,42
 886 491 886 491 850.75 383.44140625 c 0,43,44
 831 322 831 322 831.118164062 278.440429688 c 0,45,46
 831 212 831 212 895.022460938 189.508789062 c 4,47,48
 927 178 927 178 1051.28417969 178.916015625 c 4,49,50
 1086 179 1086 179 1153.62109375 180.798828125 c 5,37,38
EndSplineSet
EndChar

StartChar: arabic_gaf_bar
Encoding: 65550 -1 270
Width: 788
VWidth: 3131
GlyphClass: 2
Flags: W
LayerCount: 2
Fore
SplineSet
772.499023438 2081 m 2,0,-1
 755.013671875 1989.16601562 l 1,1,-1
 40.84375 1735.89257812 l 1,2,-1
 62 1849 l 5,3,-1
 756 2100.34082031 l 2,4,5
 778 2108 778 2108 772.499023438 2081 c 2,0,-1
EndSplineSet
EndChar

StartChar: guillemotleft
Encoding: 171 171 279
Width: 1236
VWidth: 3378
Flags: W
LayerCount: 2
Fore
SplineSet
408.756835938 2.0810546875 m 5,0,1
 114 408 114 408 114.20703125 475.755859375 c 4,2,3
 114 544 114 544 408.721679688 949.745117188 c 5,4,-1
 596.290039062 949.745117188 l 5,5,-1
 567.606445312 908.389648438 l 6,6,7
 323 556 323 556 323.396484375 475.1171875 c 4,8,9
 322.998046875 394.640625 322.998046875 394.640625 567.548828125 43.4794921875 c 6,10,-1
 596.37890625 2.0810546875 l 5,11,-1
 408.756835938 2.0810546875 l 5,0,1
889.298828125 2.080078125 m 5,12,13
 596 407 596 407 595.784179688 475.505859375 c 4,14,15
 596 543 596 543 889.262695312 949.745117188 c 5,16,-1
 1076.828125 949.745117188 l 5,17,-1
 1048.14160156 908.390625 l 6,18,19
 804 556 804 556 803.872070312 475.326171875 c 4,20,21
 804 394.063476562 804 394.063476562 1047.65136719 44.109375 c 6,22,-1
 1076.91308594 2.0810546875 l 5,23,-1
 889.298828125 2.080078125 l 5,12,13
EndSplineSet
EndChar

StartChar: guillemotright
Encoding: 187 187 280
Width: 1236
VWidth: 3378
Flags: W
LayerCount: 2
Fore
SplineSet
827.36328125 2.0810546875 m 1,0,1
 639.741210938 2.0810546875 l 1,2,-1
 668.571289062 43.4794921875 l 2,3,4
 913.122070312 394.640625 913.122070312 394.640625 912.723632812 475.1171875 c 0,5,6
 913.120117188 556 913.120117188 556 668.513671875 908.389648438 c 2,7,-1
 639.830078125 949.745117188 l 1,8,-1
 827.3984375 949.745117188 l 1,9,10
 1122.12011719 544 1122.12011719 544 1121.91308594 475.755859375 c 0,11,12
 1122.12011719 408 1122.12011719 408 827.36328125 2.0810546875 c 1,0,1
346.821289062 2.080078125 m 1,13,-1
 159.20703125 2.0810546875 l 1,14,-1
 188.46875 44.109375 l 2,15,16
 432.120117188 394.063476562 432.120117188 394.063476562 432.248046875 475.326171875 c 0,17,18
 432.120117188 556 432.120117188 556 187.978515625 908.390625 c 2,19,-1
 159.291992188 949.745117188 l 1,20,-1
 346.857421875 949.745117188 l 1,21,22
 640.120117188 543 640.120117188 543 640.3359375 475.505859375 c 0,23,24
 640.120117188 407 640.120117188 407 346.821289062 2.080078125 c 1,13,-1
EndSplineSet
EndChar

StartChar: exclam
Encoding: 33 33 289
Width: 676
VWidth: -1
Flags: W
LayerCount: 2
Fore
SplineSet
200 158.837890625 m 128,-1,1
 200 215.537109375 200 215.537109375 240.5 256.037109375 c 128,-1,2
 281 296.537109375 281 296.537109375 337.700195312 296.537109375 c 128,-1,3
 394.400390625 296.537109375 394.400390625 296.537109375 435.912109375 257.049804688 c 0,4,5
 475.400390625 215.537109375 475.400390625 215.537109375 475.400390625 158.837890625 c 128,-1,6
 475.400390625 102.137695312 475.400390625 102.137695312 434.900390625 61.6376953125 c 128,-1,7
 394.400390625 21.1376953125 394.400390625 21.1376953125 337.700195312 21.1376953125 c 128,-1,8
 281 21.1376953125 281 21.1376953125 240.5 61.6376953125 c 128,-1,0
 200 102.137695312 200 102.137695312 200 158.837890625 c 128,-1,1
345.767578125 1404.90722656 m 1,9,-1
 363.110351562 1404.54785156 l 2,10,11
 450.35312578 1402.99370942 450.35312578 1402.99370942 439.993164062 1258.71875 c 2,12,-1
 386.88671875 519.147460938 l 2,13,14
 385 496 385 496 341.177734375 495.6640625 c 0,15,16
 289.060143213 495.999612778 289.060143213 495.999612778 287.04296875 520.154296875 c 6,17,-1
 225.389648438 1258.42285156 l 2,18,19
 225 1270 225 1270 224.446289062 1281.57421875 c 0,20,21
 223.001087108 1404.90722657 223.001087108 1404.90722657 312.345703125 1404.90722656 c 2,22,-1
 345.767578125 1404.90722656 l 1,9,-1
EndSplineSet
EndChar

StartChar: period
Encoding: 46 46 290
Width: 676
VWidth: 3384
Flags: W
LayerCount: 2
Fore
SplineSet
200 158.837890625 m 132,-1,1
 200 215.537109375 200 215.537109375 240.5 256.037109375 c 132,-1,2
 281 296.537109375 281 296.537109375 337.700195312 296.537109375 c 132,-1,3
 394.400390625 296.537109375 394.400390625 296.537109375 435.912109375 257.049804688 c 4,4,5
 475.400390625 215.537109375 475.400390625 215.537109375 475.400390625 158.837890625 c 132,-1,6
 475.400390625 102.137695312 475.400390625 102.137695312 434.900390625 61.6376953125 c 132,-1,7
 394.400390625 21.1376953125 394.400390625 21.1376953125 337.700195312 21.1376953125 c 132,-1,8
 281 21.1376953125 281 21.1376953125 240.5 61.6376953125 c 132,-1,0
 200 102.137695312 200 102.137695312 200 158.837890625 c 132,-1,1
EndSplineSet
EndChar

StartChar: colon
Encoding: 58 58 291
Width: 676
VWidth: 3384
Flags: W
LayerCount: 2
Fore
SplineSet
200 818.837890625 m 132,-1,1
 200 875.537109375 200 875.537109375 240.5 916.037109375 c 132,-1,2
 281 956.537109375 281 956.537109375 337.700195312 956.537109375 c 132,-1,3
 394.400390625 956.537109375 394.400390625 956.537109375 435.912109375 917.049804688 c 4,4,5
 475.400390625 875.537109375 475.400390625 875.537109375 475.400390625 818.837890625 c 132,-1,6
 475.400390625 762.137695312 475.400390625 762.137695312 434.900390625 721.637695312 c 132,-1,7
 394.400390625 681.137695312 394.400390625 681.137695312 337.700195312 681.137695312 c 132,-1,8
 281 681.137695312 281 681.137695312 240.5 721.637695312 c 132,-1,0
 200 762.137695312 200 762.137695312 200 818.837890625 c 132,-1,1
200 158.837890625 m 128,-1,10
 200 215.537109375 200 215.537109375 240.5 256.037109375 c 128,-1,11
 281 296.537109375 281 296.537109375 337.700195312 296.537109375 c 128,-1,12
 394.400390625 296.537109375 394.400390625 296.537109375 435.912109375 257.049804688 c 0,13,14
 475.400390625 215.537109375 475.400390625 215.537109375 475.400390625 158.837890625 c 128,-1,15
 475.400390625 102.137695312 475.400390625 102.137695312 434.900390625 61.6376953125 c 128,-1,16
 394.400390625 21.1376953125 394.400390625 21.1376953125 337.700195312 21.1376953125 c 128,-1,17
 281 21.1376953125 281 21.1376953125 240.5 61.6376953125 c 128,-1,9
 200 102.137695312 200 102.137695312 200 158.837890625 c 128,-1,10
EndSplineSet
EndChar

StartChar: uniFDFC
Encoding: 65020 65020 292
Width: 2565
VWidth: 3744
Flags: W
LayerCount: 2
Fore
SplineSet
2343 -42 m 0,0,1
 2255.48632812 -210.381835938 2255.48632812 -210.381835938 2071.25 -317.59375 c 0,2,3
 1956.48632812 -384.381835938 1956.48632812 -384.381835938 1877.52441406 -402.733398438 c 0,4,5
 1866.48632812 -405.381835938 1866.48632812 -405.381835938 1855.96582031 -405.248046875 c 0,6,7
 1836.48632812 -405.381835938 1836.48632812 -405.381835938 1802.41015625 -371.381835938 c 0,8,9
 1772.29296875 -341.168945312 1772.29296875 -341.168945312 1758.62304688 -322.627929688 c 0,10,11
 1736.48632812 -292.381835938 1736.48632812 -292.381835938 1736.62011719 -286.90625 c 0,12,13
 1736.48632812 -269.381835938 1736.48632812 -269.381835938 1755.69921875 -264.2265625 c 0,14,15
 2189.48632812 -147.381835938 2189.48632812 -147.381835938 2254.48632812 141.432617188 c 0,16,17
 2290.48632812 302.618164062 2290.48632812 302.618164062 2146.48632812 506.618164062 c 1,18,-1
 2256.703125 657.618164062 l 2,19,20
 2268.48632812 673.618164062 2268.48632812 673.618164062 2294.50976562 635.618164062 c 0,21,22
 2411.48632812 461.618164062 2411.48632812 461.618164062 2411.11328125 251.618164062 c 0,23,24
 2410.48632812 86.6181640625 2410.48632812 86.6181640625 2343 -42 c 0,0,1
1514.25390625 195.1171875 m 1,25,-1
 1663.70214844 45.669921875 l 1,26,-1
 1514.25390625 -103.780273438 l 1,27,-1
 1364.80566406 45.669921875 l 1,28,-1
 1514.25390625 195.1171875 l 1,25,-1
1831.78125 195.1171875 m 1,29,-1
 1981.22949219 45.669921875 l 1,30,-1
 1831.78125 -103.78125 l 1,31,-1
 1682.33398438 45.669921875 l 1,32,-1
 1831.78125 195.1171875 l 1,29,-1
997.842773438 -22 m 0,33,34
 891 -216 891 -216 605.8515625 -215.990234375 c 0,35,36
 414 -216 414 -216 291 -123.764648438 c 0,37,38
 144 -15 144 -15 140.649414062 204 c 0,39,40
 138 386 138 386 203.790039062 530.689453125 c 5,41,-1
 304 498 l 5,42,43
 274 401 274 401 274.059570312 267 c 0,44,45
 274 150 274 150 340.624023438 67.5830078125 c 0,46,47
 429 -41 429 -41 616 -39 c 0,48,49
 926 -36 926 -36 921.3828125 218.577148438 c 0,50,51
 906 952 906 952 853.119140625 1278.56152344 c 1,52,-1
 975 1368 l 2,53,54
 1021.39086649 1402.28890132 1021.39086649 1402.28890132 1024 1333 c 2,55,-1
 1057.91796875 432.264648438 l 2,56,57
 1070 110 1070 110 997.842773438 -22 c 0,33,34
1282.32714844 714.349609375 m 0,58,59
 1286 1152 1286 1152 1255.03417969 1282.28417969 c 1,60,-1
 1387 1375 l 2,61,62
 1416 1395 1416 1395 1420 1341 c 0,63,64
 1425 1255 1425 1255 1423.5 1058 c 128,-1,65
 1422 861 1422 861 1426 737.5 c 128,-1,66
 1430 614 1430 614 1461.390625 567.6640625 c 128,-1,67
 1492.77707267 521.329101562 1492.77707267 521.329101562 1625.62304688 521.329101562 c 2,68,-1
 1675.12402344 521.329101562 l 2,69,70
 1803 521 1803 521 1835.1796875 577.83203125 c 0,71,72
 1847.87718155 601.108539193 1847.87718155 601.108539193 1841 653 c 0,73,74
 1830 736 1830 736 1784.22070312 850.741210938 c 1,75,-1
 1885 966 l 2,76,77
 1920 1006 1920 1006 1942.06738281 932.790039062 c 0,78,79
 2014 689 2014 689 1962.99121094 536.72265625 c 0,80,81
 1897.11129143 341.330078125 1897.11129143 341.330078125 1658.01660156 341.330078125 c 2,82,-1
 1575.21191406 341.330078125 l 2,83,84
 1378 341 1378 341 1323.5 463.5 c 0,85,86
 1281 557 1281 557 1282.32714844 714.349609375 c 0,58,59
EndSplineSet
EndChar

StartChar: uniFD3E
Encoding: 64830 64830 294
Width: 1480
VWidth: 3
Flags: W
LayerCount: 2
Fore
SplineSet
579.641601562 651.709960938 m 4,0,1
 577.51171875 726.267578125 577.51171875 726.267578125 632.8984375 781.65234375 c 132,-1,2
 688.283203125 837.0390625 688.283203125 837.0390625 764.971679688 837.0390625 c 132,-1,3
 841.659179688 837.0390625 841.659179688 837.0390625 897.044921875 781.65234375 c 132,-1,4
 952.430664062 726.267578125 952.430664062 726.267578125 950.299804688 651.709960938 c 4,5,6
 952.430664062 577.153320312 952.430664062 577.153320312 897.044921875 521.766601562 c 132,-1,7
 841.659179688 466.380859375 841.659179688 466.380859375 764.971679688 466.380859375 c 132,-1,8
 688.283203125 466.380859375 688.283203125 466.380859375 632.8984375 521.766601562 c 132,-1,9
 577.51171875 577.153320312 577.51171875 577.153320312 579.641601562 651.709960938 c 4,0,1
688.919921875 651.66015625 m 4,10,11
 688 619 688 619 712.459960938 594.223632812 c 4,12,13
 737 570 737 570 770.837890625 569.7421875 c 4,14,15
 805 570 805 570 829.216796875 594.223632812 c 4,16,17
 851.759765625 616.760742188 851.759765625 616.760742188 852.756835938 651.66015625 c 4,18,19
 854 685 854 685 829.216796875 709.096679688 c 4,20,21
 805 734 805 734 770.837890625 733.578125 c 4,22,23
 737 734 737 734 712.459960938 709.096679688 c 4,24,25
 690 687 690 687 688.919921875 651.66015625 c 4,10,11
1245.04882812 239.635742188 m 6,26,27
 1244.11520941 182.643554687 1244.11520941 182.643554687 1188.04882812 182.643554688 c 6,28,-1
 964.252929688 182.643554688 l 5,29,-1
 960.485351562 178.874023438 l 5,30,31
 1040.96972656 -253.350585938 1040.96972656 -253.350585938 1252.41796875 -422.350585938 c 4,32,33
 1307.24622779 -466.021419627 1307.24622779 -466.021419627 1200.98632812 -521.557617188 c 5,34,35
 728.480414222 -381.350497722 728.480414222 -381.350497722 604.09375 145.0234375 c 5,36,-1
 567.142578125 182.643554688 l 5,37,-1
 343.361328125 182.643554688 l 6,38,39
 309.65982652 182.007825384 309.65982652 182.007825384 292.188476562 215.84765625 c 4,40,41
 286.352539062 227.155030117 286.352539062 227.155030117 286.352539062 239.643554688 c 6,42,-1
 286.352539062 463.44140625 l 5,43,-1
 128.112304688 621.678710938 l 6,44,45
 117.499023438 631.805664062 117.499023438 631.805664062 111.51171875 655.760742188 c 132,-1,46
 105.524414062 679.715820312 105.524414062 679.715820312 128.104492188 702.297851562 c 6,47,-1
 286.352539062 860.544921875 l 5,48,-1
 286.352539062 1084.33105469 l 6,49,50
 285.754882812 1111.88867188 285.754882812 1111.88867188 300.592285156 1122.35644531 c 4,51,52
 327.502812161 1141.34179688 327.502812161 1141.34179688 343.3515625 1141.34179688 c 6,53,-1
 567.1484375 1141.34179688 l 5,54,-1
 592.115234375 1166.31054688 l 5,55,56
 709.580015042 1753.43908259 709.580015042 1753.43908259 1200.59960938 1898.3125 c 4,57,58
 1237.89355469 1909.26367188 1237.89355469 1909.26367188 1254.78710938 1870.16894531 c 4,59,60
 1263.80012728 1848.8227361 1263.80012728 1848.8227361 1255.1796875 1801.59570312 c 5,61,62
 1035.1999438 1600.59460398 1035.1999438 1600.59460398 957.138671875 1148.45703125 c 5,63,-1
 964.25390625 1141.34179688 l 5,64,-1
 1188.22070312 1141.34179688 l 5,65,66
 1245.04882812 1134.79543428 1245.04882812 1134.79543428 1245.04882812 1084.34179688 c 6,67,-1
 1245.04882812 239.635742188 l 6,26,27
711.333984375 187.225585938 m 4,68,69
 779.079101562 -116.46484375 779.079101562 -116.46484375 1009.91894531 -301.510742188 c 5,70,71
 883.00390625 -64.1083984375 883.00390625 -64.1083984375 842.994140625 188.545898438 c 4,72,73
 838.358398438 217.970703125 838.358398438 217.970703125 858.870117188 238.48046875 c 6,74,-1
 900.34375 279.954101562 l 6,75,76
 917.301363854 296.642578125 917.301363854 296.642578125 940.643554688 296.642578125 c 6,77,-1
 1131.04882812 296.642578125 l 5,78,-1
 1131.04882812 1027.34277344 l 5,79,-1
 940.649414062 1027.34277344 l 6,80,81
 917.31640625 1027.05957031 917.31640625 1027.05957031 900.337890625 1044.03710938 c 6,82,-1
 855.83203125 1088.54492188 l 6,83,84
 835.192382812 1108.7734375 835.192382812 1108.7734375 839.84765625 1137.84960938 c 4,85,86
 888.05929509 1439.19289852 888.05929509 1439.19289852 1022.93554688 1687.14257812 c 5,87,88
 771.803710938 1491.68847656 771.803710938 1491.68847656 700.795898438 1127.83691406 c 4,89,90
 697.365906605 1110.33953942 697.365906605 1110.33953942 685.081054688 1098.0546875 c 6,91,-1
 631.0703125 1044.04492188 l 6,92,93
 615.091950052 1027.34277344 615.091950052 1027.34277344 590.7578125 1027.34277344 c 6,94,-1
 400.3515625 1027.34277344 l 5,95,-1
 400.3515625 836.926757812 l 6,96,97
 399.91960523 812.889317479 399.91960523 812.889317479 383.65625 796.630859375 c 6,98,-1
 249.018554688 661.993164062 l 5,99,-1
 383.655273438 527.356445312 l 6,100,101
 400.3515625 510.727539062 400.3515625 510.727539062 400.3515625 487.05078125 c 6,102,-1
 400.3515625 296.642578125 l 5,103,-1
 590.765625 296.642578125 l 6,104,105
 614.750751746 296.258031308 614.750751746 296.258031308 631.0625 279.948242188 c 6,106,-1
 696.038085938 214.974609375 l 6,107,108
 708.114257812 202.9609375 708.114257812 202.9609375 711.333984375 187.225585938 c 4,68,69
EndSplineSet
EndChar

StartChar: uniFD3F
Encoding: 64831 64831 295
Width: 1480
VWidth: 3
Flags: W
LayerCount: 2
Fore
SplineSet
523.641601562 651.709960938 m 4,0,1
 521.51171875 726.267578125 521.51171875 726.267578125 576.8984375 781.65234375 c 132,-1,2
 632.283203125 837.0390625 632.283203125 837.0390625 708.971679688 837.0390625 c 132,-1,3
 785.659179688 837.0390625 785.659179688 837.0390625 841.044921875 781.65234375 c 132,-1,4
 896.430664062 726.267578125 896.430664062 726.267578125 894.299804688 651.709960938 c 4,5,6
 896.430664062 577.153320312 896.430664062 577.153320312 841.044921875 521.766601562 c 132,-1,7
 785.659179688 466.380859375 785.659179688 466.380859375 708.971679688 466.380859375 c 132,-1,8
 632.283203125 466.380859375 632.283203125 466.380859375 576.8984375 521.766601562 c 132,-1,9
 521.51171875 577.153320312 521.51171875 577.153320312 523.641601562 651.709960938 c 4,0,1
632.919921875 651.66015625 m 4,10,11
 632 619 632 619 656.459960938 594.223632812 c 4,12,13
 681 570 681 570 714.837890625 569.7421875 c 4,14,15
 749 570 749 570 773.216796875 594.223632812 c 4,16,17
 795.759765625 616.760742188 795.759765625 616.760742188 796.756835938 651.66015625 c 4,18,19
 798 685 798 685 773.216796875 709.096679688 c 4,20,21
 749 734 749 734 714.837890625 733.578125 c 4,22,23
 681 734 681 734 656.459960938 709.096679688 c 4,24,25
 634 687 634 687 632.919921875 651.66015625 c 4,10,11
278.209960938 -521.559570312 m 5,26,27
 173.243164062 -465.91015625 173.243164062 -465.91015625 226.77734375 -422.35546875 c 4,28,29
 438.63671875 -251.1640625 438.63671875 -251.1640625 518.715820312 178.875 c 5,30,-1
 514.947265625 182.643554688 l 5,31,-1
 291.16015625 182.643554688 l 6,32,33
 254.146484375 182.048828125 254.146484375 182.048828125 238.247070312 219.541015625 c 4,34,35
 234.15234375 229.198242188 234.15234375 229.198242188 234.15234375 239.643554688 c 6,36,-1
 234.15234375 1084.33300781 l 6,37,38
 233.723632812 1108.50390625 233.723632812 1108.50390625 252.361328125 1124.95117188 c 132,-1,39
 270.9375 1141.34179688 270.9375 1141.34179688 291.15234375 1141.34179688 c 6,40,-1
 514.948242188 1141.34179688 l 5,41,-1
 522.0625 1148.45507812 l 5,42,43
 444.10546875 1601.38867188 444.10546875 1601.38867188 224.020507812 1801.59472656 c 5,44,45
 215.668945312 1848.69238281 215.668945312 1848.69238281 228.649414062 1878.97949219 c 132,-1,46
 241.629882812 1909.26660156 241.629882812 1909.26660156 278.610351562 1898.30957031 c 4,47,48
 770.368164062 1749.04882812 770.368164062 1749.04882812 886.970703125 1166.890625 c 5,49,-1
 912.068359375 1141.34179688 l 5,50,-1
 1135.85546875 1141.34179688 l 6,51,52
 1159.97265625 1141.05566406 1159.97265625 1141.05566406 1176.52539062 1122.90234375 c 4,53,54
 1192.84863281 1103.78417969 1192.84863281 1103.78417969 1192.84863281 1084.34179688 c 6,55,-1
 1192.84863281 860.544921875 l 5,56,-1
 1351.09570312 702.299804688 l 6,57,58
 1373.90820312 679.625976562 1373.90820312 679.625976562 1369.45703125 661.9453125 c 4,59,60
 1362.08691406 632.676757812 1362.08691406 632.676757812 1351.09765625 621.6875 c 6,61,-1
 1192.84863281 463.44140625 l 5,62,-1
 1192.84863281 239.63671875 l 6,63,64
 1192.35449219 202.328125 1192.35449219 202.328125 1155.57324219 186.725585938 c 4,65,66
 1145.9453125 182.643554688 1145.9453125 182.643554688 1135.84960938 182.643554688 c 6,67,-1
 912.059570312 182.643554688 l 5,68,-1
 875.106445312 145.0234375 l 5,69,70
 751.1796875 -380.764648438 751.1796875 -380.764648438 278.209960938 -521.559570312 c 5,26,27
469.313476562 -301.490234375 m 5,71,72
 700.428710938 -116.459960938 700.428710938 -116.459960938 767.87109375 187.236328125 c 4,73,74
 771.493164062 203.3046875 771.493164062 203.3046875 783.161132812 214.97265625 c 6,75,-1
 848.14453125 279.954101562 l 6,76,77
 865.102539062 296.642578125 865.102539062 296.642578125 888.443359375 296.642578125 c 6,78,-1
 1078.84960938 296.642578125 l 5,79,-1
 1078.84960938 487.043945312 l 6,80,81
 1078.53125 510.344726562 1078.53125 510.344726562 1095.54492188 527.35546875 c 6,82,-1
 1230.18261719 661.993164062 l 5,83,-1
 1095.54882812 796.626953125 l 6,84,85
 1078.84960938 812.924804688 1078.84960938 812.924804688 1078.84960938 836.935546875 c 6,86,-1
 1078.84960938 1027.34277344 l 5,87,-1
 888.44921875 1027.34277344 l 6,88,89
 865.116210938 1027.05957031 865.116210938 1027.05957031 848.138671875 1044.03710938 c 6,90,-1
 794.026367188 1098.14941406 l 5,91,92
 782.130859375 1112.37304688 782.130859375 1112.37304688 778.385742188 1127.94238281 c 4,93,94
 708.102539062 1497.07128906 708.102539062 1497.07128906 456.138671875 1687.37109375 c 5,95,96
 583.533203125 1451.25878906 583.533203125 1451.25878906 639.350585938 1137.86621094 c 4,97,98
 644.388671875 1109.56640625 644.388671875 1109.56640625 623.373046875 1088.54882812 c 6,99,-1
 578.870117188 1044.04492188 l 6,100,101
 562.895507812 1027.34277344 562.895507812 1027.34277344 538.557617188 1027.34277344 c 6,102,-1
 348.15234375 1027.34277344 l 5,103,-1
 348.15234375 296.642578125 l 5,104,-1
 538.565429688 296.642578125 l 6,105,106
 562.548828125 296.26171875 562.548828125 296.26171875 578.862304688 279.948242188 c 6,107,-1
 620.330078125 238.481445312 l 6,108,109
 641.134765625 217.743164062 641.134765625 217.743164062 636.204101562 188.53125 c 4,110,111
 590.569335938 -75.58203125 590.569335938 -75.58203125 469.313476562 -301.490234375 c 5,71,72
EndSplineSet
EndChar

StartChar: NameMe.303
Encoding: 65562 -1 296
Width: 556
VWidth: 3705
Flags: W
AnchorPoint: "Anchor-10" 254.76 1395.69 basechar 0
AnchorPoint: "Anchor-7" 210.877 -259.762 basechar 0
LayerCount: 2
Fore
SplineSet
-5 179.999023438 m 2,0,-1
 16.552734375 179.999023438 l 2,1,2
 122 180 122 180 182 207.721679688 c 0,3,4
 260 243 260 243 267.282226562 367 c 0,5,6
 275 495 275 495 262.478515625 672.23046875 c 0,7,8
 255 774 255 774 212 1216 c 5,9,-1
 344 1296 l 6,10,11
 384.526810138 1320.7114696 384.526810138 1320.7114696 386 1276 c 6,12,-1
 410.239257812 540.3359375 l 2,13,14
 419 270 419 270 365.708007812 163.354492188 c 0,15,16
 285 0 285 0 10.892578125 0 c 2,17,-1
 -5 0 l 2,18,19
 -60.3662109375 0 -60.3662109375 0 -60.3662109375 77 c 2,20,-1
 -60.3662109375 102 l 2,21,22
 -60 180 -60 180 -5 179.999023438 c 2,0,-1
EndSplineSet
EndChar

StartChar: NameMe.304
Encoding: 65563 -1 297
Width: 651
VWidth: 3705
Flags: W
LayerCount: 2
Fore
SplineSet
-5 179.999023438 m 2,0,-1
 29.7001953125 179.999023438 l 2,1,2
 240 180 240 180 262.875976562 346 c 0,3,4
 272.072836725 413.223041926 272.072836725 413.223041926 267.025390625 517.5234375 c 4,5,6
 247 886 247 886 233.763671875 1081.83886719 c 1,7,-1
 371 1166.421875 l 2,8,9
 407.9765625 1189.21167794 407.9765625 1189.21167794 407.9765625 1143 c 2,10,-1
 407.9765625 433.450195312 l 2,11,12
 408.000000652 179.99295157 408.000000652 179.99295157 622.500976562 179.999023438 c 2,13,-1
 657 180 l 2,14,15
 681 180 681 180 681 102 c 2,16,-1
 681 77 l 2,17,18
 681 0 681 0 657 0 c 2,19,-1
 626.202148438 0 l 2,20,21
 428 0 428 0 324.796875 148.439453125 c 1,22,23
 222 0 222 0 26.501953125 0 c 2,24,-1
 -5 0 l 2,25,26
 -60.3662109375 0 -60.3662109375 0 -60.3662109375 77 c 2,27,-1
 -60.3662109375 102 l 2,28,29
 -60 180 -60 180 -5 179.999023438 c 2,0,-1
EndSplineSet
EndChar

StartChar: NameMe.306
Encoding: 65566 -1 299
Width: 541
VWidth: 3705
Flags: W
LayerCount: 2
Fore
SplineSet
547 0 m 2,0,-1
 512.934570312 0 l 2,1,2
 170 0 170 0 160 347 c 0,3,4
 156.707070707 454.843434343 156.707070707 454.843434343 151 783 c 28,5,6
 149 886 149 886 119.987304688 1181.0390625 c 1,7,-1
 237 1286 l 2,8,9
 278 1323 278 1323 282 1252 c 1,10,11
 296 1138 296 1138 300.779296875 472.400390625 c 0,12,13
 302 297 302 297 343.942382812 240.354492188 c 0,14,15
 389.003956388 179.994700434 389.003956388 179.994700434 517.885742188 179.999023438 c 2,16,-1
 547 180 l 2,17,18
 571 180 571 180 571 102 c 2,19,-1
 571 77 l 2,20,21
 571 0 571 0 547 0 c 2,0,-1
EndSplineSet
EndChar

StartChar: uni06C1
Encoding: 1729 1729 300
Width: 972
VWidth: 2424
Flags: W
AnchorPoint: "Anchor-7" 420.886 -224.499 basechar 0
AnchorPoint: "Anchor-10" 539.369 1109.95 basechar 0
LayerCount: 2
Fore
SplineSet
978.643554688 184 m 2,0,1
 1002.64355469 183.991794872 1002.64355469 183.991794872 1002.64355469 102 c 2,2,-1
 1002.64355469 77 l 2,3,4
 1003 0 1003 0 978.643554688 0 c 2,5,-1
 902.953125 0 l 2,6,7
 630 0 630 0 621.489257812 303.450195312 c 0,8,9
 619 401 619 401 610.649414062 415 c 0,10,11
 597 439 597 439 560.749865157 422 c 0,12,13
 469 380 469 380 355.046875 153.712890625 c 0,14,15
 263 -30 263 -30 233.357421875 -110.423828125 c 1,16,-1
 93.4287109375 -37.748046875 l 1,17,18
 183 208 183 208 297 376 c 0,19,20
 369 482 369 482 448.846191406 539.831054688 c 0,21,22
 531 599 531 599 612.810546875 597.865234375 c 0,23,24
 731.830499333 595.954560896 731.830499333 595.954560896 763.122070312 475.3828125 c 0,25,26
 764 472 764 472 784.286132812 278.19921875 c 0,27,28
 793.993490188 184.063128227 793.993490188 184.063128227 924.37109375 184.018554688 c 2,29,-1
 978.643554688 184 l 2,0,1
EndSplineSet
EndChar

StartChar: NameMe.65567
Encoding: 65567 -1 304
Width: 678
VWidth: 3745
Flags: W
LayerCount: 2
Fore
SplineSet
107.376953125 -35.0341796875 m 5,0,1
 169.2578125 -64.982421875 169.2578125 -64.982421875 251.616210938 -64.3681640625 c 4,2,3
 406.380859375 -63.0390625 406.380859375 -63.0390625 472.666015625 13.93359375 c 4,4,5
 497.170898438 42.70703125 497.170898438 42.70703125 467.2109375 59.427734375 c 4,6,7
 435.793945312 76.9619140625 435.793945312 76.9619140625 351.474609375 100.6015625 c 4,8,9
 265.4921875 124.239257812 265.4921875 124.239257812 297.475585938 232.400390625 c 4,10,11
 340.796875 376.446289062 340.796875 376.446289062 470.557617188 429.600585938 c 4,12,13
 541.537109375 458.614257812 541.537109375 458.614257812 625.641601562 432.522460938 c 5,14,15
 621.888671875 393.357421875 621.888671875 393.357421875 603.754882812 317.1484375 c 5,16,-1
 572.502929688 318.665039062 l 6,17,18
 481.236328125 323.09375 481.236328125 323.09375 425.071289062 266.928710938 c 4,19,20
 395.37109375 237.228515625 395.37109375 237.228515625 384.728515625 212.9375 c 5,21,-1
 514.37890625 169.752929688 l 6,22,23
 574.083007812 149.8671875 574.083007812 149.8671875 573.537109375 75.2333984375 c 132,-1,24
 572.991210938 0.6005859375 572.991210938 0.6005859375 527.80078125 -58.435546875 c 4,25,26
 438.94921875 -175.002929688 438.94921875 -175.002929688 248.9921875 -174.874023438 c 4,27,28
 147.037109375 -175.002929688 147.037109375 -175.002929688 68.328125 -142.765625 c 5,29,-1
 107.376953125 -35.0341796875 l 5,0,1
EndSplineSet
EndChar

StartChar: NameMe.65541
Encoding: 65541 -1 305
Width: 576
VWidth: 3744
Flags: W
AnchorPoint: "Anchor-10" 323.261 1301.53 basechar 0
AnchorPoint: "Anchor-7" 350.876 -259.541 basechar 0
LayerCount: 2
Fore
SplineSet
475.098632812 393.55859375 m 0,0,1
 475 237 475 237 393.703125 137.951171875 c 0,2,3
 280 0 280 0 80.7080078125 0 c 2,4,-1
 -5 0 l 2,5,6
 -60.3662109375 0 -60.3662109375 0 -60.3662109375 77 c 2,7,-1
 -60.3662109375 102 l 2,8,9
 -60.000004585 179.999023438 -60.000004585 179.999023438 -5 179.999023438 c 6,10,-1
 77.8056640625 179.999023438 l 6,11,12
 324 180 324 180 323.4140625 346.751953125 c 0,13,14
 323 435 323 435 251 636 c 1,15,-1
 362.000976562 763.575195312 l 2,16,17
 377 781 377 781 397.000976562 738.575195312 c 0,18,19
 475 578 475 578 475.098632812 393.55859375 c 0,0,1
EndSplineSet
EndChar

StartChar: NameMe.65542
Encoding: 65542 -1 306
Width: 688
VWidth: 3744
Flags: W
AnchorPoint: "Anchor-10" 391.618 1159.37 basechar 0
AnchorPoint: "Anchor-7" 351.317 -218.507 basechar 0
LayerCount: 2
Fore
SplineSet
308.15625 334.38671875 m 6,0,1
 327.440429688 540.31640625 l 5,2,-1
 441.720703125 540.369140625 l 5,3,-1
 461.733398438 333.099609375 l 6,4,5
 477.00104006 179.989569865 477.00104006 179.989569865 673.682617188 179.999023438 c 6,6,-1
 694 180 l 6,7,8
 718 180 718 180 718 102 c 6,9,-1
 718 77 l 6,10,11
 718 0 718 0 694 0 c 6,12,-1
 675.583007812 0 l 6,13,14
 466 0 466 0 384.059570312 130.338867188 c 5,15,16
 290 0 290 0 89.8349609375 0 c 6,17,-1
 -5 0 l 2,18,19
 -60.3662109375 0 -60.3662109375 0 -60.3662109375 77 c 2,20,-1
 -60.3662109375 102 l 2,21,22
 -60.000004585 179.999023438 -60.000004585 179.999023438 -5 179.999023438 c 2,23,-1
 85.18359375 179.999023438 l 6,24,25
 294 180 294 180 308.15625 334.38671875 c 6,0,1
EndSplineSet
EndChar
